{"glyphs":{"0":{"ha":846,"x_min":93,"x_max":754,"o":"m 382 -3 q 162 66 231 -3 q 93 286 93 135 l 93 603 q 163 822 93 753 q 382 890 232 890 l 465 890 q 685 822 615 890 q 754 601 754 753 l 754 286 q 685 66 754 135 q 465 -3 615 -3 l 382 -3 m 465 69 q 633 118 585 69 q 682 286 682 167 l 682 601 q 633 769 682 721 q 465 818 585 818 l 382 818 q 253 797 300 818 q 186 730 207 776 q 165 603 165 683 l 165 286 q 186 158 165 206 q 253 90 207 111 q 382 69 300 69 l 465 69 m 431 389 q 401 399 411 389 q 390 429 390 410 l 390 456 q 401 485 390 475 q 431 496 411 496 l 457 496 q 496 456 496 496 l 496 429 q 457 389 496 389 l 431 389 z "},"1":{"ha":492,"x_min":101,"x_max":353,"o":"m 322 894 q 353 858 353 894 l 353 36 q 317 0 353 0 q 281 36 281 0 l 281 781 l 163 665 q 138 653 150 653 q 114 665 124 653 q 101 689 101 676 q 115 715 101 703 l 278 876 q 322 894 296 894 z "},"2":{"ha":788,"x_min":78,"x_max":703,"o":"m 128 0 q 92 36 92 0 q 128 205 92 138 q 227 321 164 272 q 411 439 290 369 q 538 515 497 488 q 601 576 578 542 q 624 660 624 611 q 588 786 624 750 q 461 822 551 822 l 313 822 q 194 794 231 822 q 151 697 157 765 q 114 661 147 661 q 87 671 96 661 q 79 699 78 681 q 144 847 88 800 q 313 894 201 894 l 461 894 q 639 838 582 894 q 696 660 696 781 q 665 543 696 592 q 585 461 633 494 q 447 376 538 428 q 287 277 339 314 q 203 192 235 240 q 165 72 172 143 l 667 72 q 703 36 703 72 q 667 0 703 0 l 128 0 z "},"3":{"ha":821,"x_min":72,"x_max":728,"o":"m 321 1 q 142 52 201 1 q 74 211 82 103 q 82 239 72 229 q 110 249 92 249 q 146 213 143 249 q 192 105 151 136 q 321 74 232 74 l 479 74 q 617 112 578 74 q 656 249 656 150 q 617 385 656 347 q 479 424 578 424 l 350 424 q 324 433 333 424 q 314 460 314 442 q 324 487 314 478 q 350 496 333 496 l 497 496 q 603 535 572 496 q 633 660 633 575 q 598 786 633 750 q 471 822 563 822 l 336 822 q 218 794 254 822 q 176 697 182 765 q 139 661 172 661 q 112 671 121 661 q 104 699 103 681 q 169 847 113 800 q 336 894 225 894 l 471 894 q 649 838 593 894 q 706 660 706 781 q 606 468 706 519 q 698 388 668 442 q 728 249 728 333 q 668 61 728 121 q 479 1 608 1 l 321 1 z "},"4":{"ha":754,"x_min":46,"x_max":708,"o":"m 672 267 q 699 257 690 267 q 708 231 708 247 q 672 194 708 194 l 603 194 l 601 36 q 565 0 601 0 q 529 36 529 0 l 531 194 l 82 194 q 46 231 46 194 q 61 268 46 249 l 526 872 q 572 894 543 894 q 607 858 607 894 l 603 267 l 672 267 m 144 265 l 531 267 l 535 774 l 144 265 z "},"5":{"ha":825,"x_min":92,"x_max":733,"o":"m 340 0 q 161 51 221 0 q 93 210 101 101 q 101 238 92 228 q 128 247 110 247 q 165 211 161 247 q 210 103 171 135 q 340 72 250 72 l 485 72 q 622 112 583 72 q 661 249 661 151 l 661 344 q 622 482 661 443 q 485 521 583 521 l 382 521 q 201 476 250 521 q 167 460 182 460 q 153 463 164 460 l 146 465 q 115 506 115 474 l 115 858 q 151 894 115 894 l 689 894 q 725 858 725 894 q 689 822 725 822 l 188 822 l 188 554 q 382 593 256 593 l 485 593 q 673 533 613 593 q 733 344 733 472 l 733 249 q 673 60 733 121 q 485 0 613 0 l 340 0 z "},"6":{"ha":826,"x_min":93,"x_max":736,"o":"m 342 1 q 153 61 213 1 q 93 249 93 121 l 93 660 q 149 838 93 781 q 328 894 206 894 l 500 894 q 668 847 611 894 q 733 699 725 800 q 697 661 736 661 q 661 697 664 661 q 619 794 656 765 q 500 822 582 822 l 328 822 q 201 786 236 822 q 165 660 165 750 l 165 504 q 233 570 189 549 q 342 592 276 592 l 486 592 q 674 531 614 592 q 735 343 735 471 l 735 250 q 674 61 735 121 q 486 1 614 1 l 342 1 m 486 74 q 624 113 585 74 q 663 250 663 151 l 663 343 q 624 481 663 442 q 486 519 585 519 l 342 519 q 204 481 243 519 q 165 344 165 443 l 165 249 q 204 112 165 150 q 342 74 243 74 l 486 74 z "},"7":{"ha":660,"x_min":46,"x_max":613,"o":"m 231 0 q 194 38 194 0 q 214 262 197 175 q 273 413 231 349 q 396 533 315 476 q 503 651 471 586 q 540 822 536 715 l 82 822 q 46 858 46 822 q 82 894 46 894 l 576 894 q 613 857 613 894 q 573 630 613 717 q 438 475 533 543 q 334 376 369 426 q 284 248 299 325 q 267 38 269 171 q 231 0 267 0 z "},"8":{"ha":840,"x_min":93,"x_max":749,"o":"m 631 464 q 719 384 690 438 q 749 247 749 331 q 688 60 749 119 q 500 0 628 0 l 342 0 q 153 60 213 0 q 93 247 93 119 q 123 385 93 332 q 215 465 153 439 q 122 660 122 522 q 178 838 122 781 q 357 894 235 894 l 492 894 q 669 838 613 894 q 726 660 726 781 q 631 464 726 519 m 357 822 q 230 786 265 822 q 194 660 194 750 q 230 531 194 568 q 353 494 265 494 l 513 494 q 623 535 592 496 q 654 660 654 574 q 618 786 654 750 q 492 822 582 822 l 357 822 m 500 72 q 638 110 599 72 q 676 247 676 149 q 638 384 676 346 q 500 422 599 422 l 342 422 q 204 384 243 422 q 165 247 165 346 q 204 110 165 149 q 342 72 243 72 l 500 72 z "},"9":{"ha":826,"x_min":92,"x_max":733,"o":"m 485 893 q 674 833 614 893 q 733 646 733 774 l 733 235 q 677 57 733 114 q 499 0 621 0 l 326 0 q 158 47 215 0 q 93 196 101 94 q 129 233 92 233 q 165 197 163 233 q 208 101 171 129 q 326 72 244 72 l 499 72 q 626 108 590 72 q 661 235 661 144 l 661 390 q 594 324 638 346 q 485 303 550 303 l 340 303 q 152 363 213 303 q 92 551 92 424 l 92 644 q 152 833 92 774 q 340 893 213 893 l 485 893 m 340 821 q 203 782 242 821 q 164 644 164 743 l 164 551 q 203 415 164 454 q 340 375 243 375 l 485 375 q 622 413 583 375 q 661 550 661 451 l 661 646 q 622 783 661 744 q 485 821 583 821 l 340 821 z "},"\u0000":{"ha":0,"x_min":0,"x_max":0,"o":""},"\r":{"ha":347,"x_min":0,"x_max":0,"o":""}," ":{"ha":347,"x_min":0,"x_max":0,"o":""},"A":{"ha":851,"x_min":36,"x_max":817,"o":"m 813 51 q 817 33 817 42 q 793 4 817 15 q 775 0 785 0 q 747 22 756 0 l 654 242 l 650 242 l 200 242 l 107 22 q 76 0 97 0 q 58 4 69 0 q 36 35 36 13 q 39 51 36 46 l 383 867 q 425 894 394 894 l 428 894 q 468 867 456 894 l 813 51 m 229 314 l 624 314 l 426 781 l 229 314 z "},"Á":{"ha":851,"x_min":36,"x_max":817,"o":"m 813 51 q 817 33 817 42 q 793 4 817 15 q 775 0 785 0 q 747 22 756 0 l 654 242 l 650 242 l 200 242 l 107 22 q 76 0 97 0 q 58 4 69 0 q 36 35 36 13 q 39 51 36 46 l 383 867 q 425 894 394 894 l 428 894 q 468 867 456 894 l 813 51 m 229 314 l 624 314 l 426 781 l 229 314 m 411 975 q 397 1000 397 988 q 406 1024 397 1011 l 525 1165 q 551 1179 538 1179 q 574 1169 564 1179 q 588 1144 588 1157 q 579 1121 588 1133 l 460 979 q 433 965 447 965 q 411 975 421 965 z "},"Ă":{"ha":851,"x_min":36,"x_max":817,"o":"m 813 51 q 817 33 817 42 q 793 4 817 15 q 775 0 785 0 q 747 22 756 0 l 654 242 l 650 242 l 200 242 l 107 22 q 76 0 97 0 q 58 4 69 0 q 36 35 36 13 q 39 51 36 46 l 383 867 q 425 894 394 894 l 428 894 q 468 867 456 894 l 813 51 m 229 314 l 624 314 l 426 781 l 229 314 m 432 971 q 301 1012 346 971 q 257 1131 257 1053 l 257 1140 q 292 1175 257 1175 q 325 1140 325 1175 l 325 1131 q 350 1060 325 1082 q 432 1038 375 1038 q 513 1059 489 1038 q 538 1131 538 1081 l 538 1144 q 572 1175 538 1175 q 606 1140 606 1175 l 606 1131 q 561 1011 606 1051 q 432 971 517 971 z "},"Ắ":{"ha":851,"x_min":36,"x_max":817,"o":"m 813 51 q 817 33 817 42 q 793 4 817 15 q 775 0 785 0 q 747 22 756 0 l 654 242 l 650 242 l 200 242 l 107 22 q 76 0 97 0 q 58 4 69 0 q 36 35 36 13 q 39 51 36 46 l 383 867 q 425 894 394 894 l 428 894 q 468 867 456 894 l 813 51 m 229 314 l 624 314 l 426 781 l 229 314 m 426 971 q 296 1012 340 971 q 251 1131 251 1053 l 251 1140 q 286 1175 251 1175 q 319 1140 319 1175 l 319 1131 q 344 1060 319 1082 q 426 1038 369 1038 q 508 1059 483 1038 q 532 1131 532 1081 l 532 1144 q 567 1175 532 1175 q 600 1140 600 1175 l 600 1131 q 556 1011 600 1051 q 426 971 511 971 m 392 1163 q 378 1188 378 1175 q 386 1211 378 1199 l 506 1353 q 532 1367 518 1367 q 554 1357 544 1367 q 568 1332 568 1344 q 560 1308 568 1321 l 440 1167 q 414 1153 428 1153 q 392 1163 401 1153 z "},"Ặ":{"ha":851,"x_min":36,"x_max":817,"o":"m 813 51 q 817 33 817 42 q 793 4 817 15 q 775 0 785 0 q 747 22 756 0 l 654 242 l 650 242 l 200 242 l 107 22 q 76 0 97 0 q 58 4 69 0 q 36 35 36 13 q 39 51 36 46 l 383 867 q 425 894 394 894 l 428 894 q 468 867 456 894 l 813 51 m 229 314 l 624 314 l 426 781 l 229 314 m 413 -211 q 383 -201 393 -211 q 372 -171 372 -190 l 372 -144 q 383 -115 372 -125 q 413 -104 393 -104 l 439 -104 q 478 -144 478 -104 l 478 -171 q 439 -211 478 -211 l 413 -211 m 432 971 q 301 1012 346 971 q 257 1131 257 1053 l 257 1140 q 292 1175 257 1175 q 325 1140 325 1175 l 325 1131 q 350 1060 325 1082 q 432 1038 375 1038 q 513 1059 489 1038 q 538 1131 538 1081 l 538 1144 q 572 1175 538 1175 q 606 1140 606 1175 l 606 1131 q 561 1011 606 1051 q 432 971 517 971 z "},"Ằ":{"ha":851,"x_min":36,"x_max":817,"o":"m 813 51 q 817 33 817 42 q 793 4 817 15 q 775 0 785 0 q 747 22 756 0 l 654 242 l 650 242 l 200 242 l 107 22 q 76 0 97 0 q 58 4 69 0 q 36 35 36 13 q 39 51 36 46 l 383 867 q 425 894 394 894 l 428 894 q 468 867 456 894 l 813 51 m 229 314 l 624 314 l 426 781 l 229 314 m 426 971 q 296 1012 340 971 q 251 1131 251 1053 l 251 1140 q 286 1175 251 1175 q 319 1140 319 1175 l 319 1131 q 344 1060 319 1082 q 426 1038 369 1038 q 508 1059 483 1038 q 532 1131 532 1081 l 532 1144 q 567 1175 532 1175 q 600 1140 600 1175 l 600 1131 q 556 1011 600 1051 q 426 971 511 971 m 454 1164 q 432 1154 444 1154 q 406 1168 418 1154 l 286 1310 q 278 1333 278 1322 q 292 1358 278 1346 q 314 1368 301 1368 q 340 1354 328 1368 l 460 1213 q 468 1189 468 1200 q 454 1164 468 1176 z "},"Ẳ":{"ha":851,"x_min":36,"x_max":817,"o":"m 813 51 q 817 33 817 42 q 793 4 817 15 q 775 0 785 0 q 747 22 756 0 l 654 242 l 650 242 l 200 242 l 107 22 q 76 0 97 0 q 58 4 69 0 q 36 35 36 13 q 39 51 36 46 l 383 867 q 425 894 394 894 l 428 894 q 468 867 456 894 l 813 51 m 229 314 l 624 314 l 426 781 l 229 314 m 426 971 q 296 1012 340 971 q 251 1131 251 1053 l 251 1140 q 286 1175 251 1175 q 319 1140 319 1175 l 319 1131 q 344 1060 319 1082 q 426 1038 369 1038 q 508 1059 483 1038 q 532 1131 532 1081 l 532 1144 q 567 1175 532 1175 q 600 1140 600 1175 l 600 1131 q 556 1011 600 1051 q 426 971 511 971 m 426 1126 q 394 1157 394 1126 q 413 1217 394 1196 q 461 1257 432 1239 q 488 1276 482 1269 q 494 1296 494 1283 q 483 1340 494 1328 q 440 1351 472 1351 q 397 1340 408 1351 q 385 1296 385 1328 q 354 1264 385 1264 q 322 1296 322 1264 q 440 1414 322 1414 q 557 1296 557 1414 q 538 1239 557 1260 q 493 1203 519 1218 q 465 1179 471 1188 q 458 1157 458 1171 q 426 1126 458 1126 z "},"Ẵ":{"ha":851,"x_min":36,"x_max":817,"o":"m 813 51 q 817 33 817 42 q 793 4 817 15 q 775 0 785 0 q 747 22 756 0 l 654 242 l 650 242 l 200 242 l 107 22 q 76 0 97 0 q 58 4 69 0 q 36 35 36 13 q 39 51 36 46 l 383 867 q 425 894 394 894 l 428 894 q 468 867 456 894 l 813 51 m 229 314 l 624 314 l 426 781 l 229 314 m 424 971 q 293 1012 338 971 q 249 1131 249 1053 l 249 1140 q 283 1175 249 1175 q 317 1140 317 1175 l 317 1131 q 342 1060 317 1082 q 424 1038 367 1038 q 505 1059 481 1038 q 529 1131 529 1081 l 529 1144 q 564 1175 529 1175 q 597 1140 597 1175 l 597 1131 q 553 1011 597 1051 q 424 971 508 971 m 488 1219 q 444 1232 463 1219 q 404 1268 426 1244 q 382 1291 392 1283 q 363 1299 372 1299 q 338 1288 347 1299 q 314 1244 329 1278 q 278 1221 303 1217 q 256 1231 264 1222 q 249 1251 249 1240 q 251 1265 249 1257 q 298 1340 274 1317 q 361 1364 322 1364 q 404 1351 386 1364 q 444 1315 422 1339 q 469 1292 460 1299 q 488 1285 478 1285 q 510 1296 501 1285 q 529 1336 518 1307 q 565 1360 539 1364 q 590 1345 583 1358 q 593 1317 597 1332 q 551 1244 578 1269 q 488 1219 524 1219 z "},"Â":{"ha":851,"x_min":36,"x_max":817,"o":"m 813 51 q 817 33 817 42 q 793 4 817 15 q 775 0 785 0 q 747 22 756 0 l 654 242 l 650 242 l 200 242 l 107 22 q 76 0 97 0 q 58 4 69 0 q 36 35 36 13 q 39 51 36 46 l 383 867 q 425 894 394 894 l 428 894 q 468 867 456 894 l 813 51 m 229 314 l 624 314 l 426 781 l 229 314 m 256 976 q 231 987 240 976 q 221 1011 221 997 q 235 1039 221 1028 l 372 1154 q 415 1169 392 1169 l 432 1169 q 475 1154 456 1169 l 613 1039 q 626 1011 626 1028 q 616 987 626 997 q 592 976 606 976 q 568 986 578 976 l 431 1100 l 417 1100 l 279 986 q 256 976 269 976 z "},"Ấ":{"ha":851,"x_min":36,"x_max":817,"o":"m 813 51 q 817 33 817 42 q 793 4 817 15 q 775 0 785 0 q 747 22 756 0 l 654 242 l 650 242 l 200 242 l 107 22 q 76 0 97 0 q 58 4 69 0 q 36 35 36 13 q 39 51 36 46 l 383 867 q 425 894 394 894 l 428 894 q 468 867 456 894 l 813 51 m 229 314 l 624 314 l 426 781 l 229 314 m 568 1115 q 543 1126 554 1115 q 532 1150 532 1136 q 542 1174 532 1161 l 629 1276 q 656 1290 642 1290 q 681 1280 669 1290 q 692 1256 692 1269 q 682 1232 692 1244 l 594 1128 q 568 1115 583 1115 m 261 976 q 236 987 246 976 q 226 1011 226 997 q 240 1039 226 1028 l 378 1154 q 421 1169 397 1169 l 438 1169 q 481 1154 461 1169 l 618 1039 q 632 1011 632 1028 q 622 987 632 997 q 597 976 611 976 q 574 986 583 976 l 436 1100 l 422 1100 l 285 986 q 261 976 275 976 z "},"Ậ":{"ha":851,"x_min":36,"x_max":817,"o":"m 813 51 q 817 33 817 42 q 793 4 817 15 q 775 0 785 0 q 747 22 756 0 l 654 242 l 650 242 l 200 242 l 107 22 q 76 0 97 0 q 58 4 69 0 q 36 35 36 13 q 39 51 36 46 l 383 867 q 425 894 394 894 l 428 894 q 468 867 456 894 l 813 51 m 229 314 l 624 314 l 426 781 l 229 314 m 413 -211 q 383 -201 393 -211 q 372 -171 372 -190 l 372 -144 q 383 -115 372 -125 q 413 -104 393 -104 l 439 -104 q 478 -144 478 -104 l 478 -171 q 439 -211 478 -211 l 413 -211 m 256 976 q 231 987 240 976 q 221 1011 221 997 q 235 1039 221 1028 l 372 1154 q 415 1169 392 1169 l 432 1169 q 475 1154 456 1169 l 613 1039 q 626 1011 626 1028 q 616 987 626 997 q 592 976 606 976 q 568 986 578 976 l 431 1100 l 417 1100 l 279 986 q 256 976 269 976 z "},"Ầ":{"ha":851,"x_min":36,"x_max":817,"o":"m 813 51 q 817 33 817 42 q 793 4 817 15 q 775 0 785 0 q 747 22 756 0 l 654 242 l 650 242 l 200 242 l 107 22 q 76 0 97 0 q 58 4 69 0 q 36 35 36 13 q 39 51 36 46 l 383 867 q 425 894 394 894 l 428 894 q 468 867 456 894 l 813 51 m 229 314 l 624 314 l 426 781 l 229 314 m 250 1115 q 224 1128 233 1115 l 136 1232 q 126 1256 126 1242 q 138 1280 126 1269 q 163 1290 149 1290 q 189 1276 176 1290 l 276 1174 q 286 1150 286 1161 q 275 1126 286 1136 q 250 1115 264 1115 m 258 976 q 233 987 243 976 q 224 1011 224 997 q 238 1039 224 1028 l 375 1154 q 418 1169 394 1169 l 435 1169 q 478 1154 458 1169 l 615 1039 q 629 1011 629 1028 q 619 987 629 997 q 594 976 608 976 q 571 986 581 976 l 433 1100 l 419 1100 l 282 986 q 258 976 272 976 z "},"Ẩ":{"ha":851,"x_min":36,"x_max":817,"o":"m 813 51 q 817 33 817 42 q 793 4 817 15 q 775 0 785 0 q 747 22 756 0 l 654 242 l 650 242 l 200 242 l 107 22 q 76 0 97 0 q 58 4 69 0 q 36 35 36 13 q 39 51 36 46 l 383 867 q 425 894 394 894 l 428 894 q 468 867 456 894 l 813 51 m 229 314 l 624 314 l 426 781 l 229 314 m 257 976 q 232 987 242 976 q 222 1011 222 997 q 236 1039 222 1028 l 374 1154 q 417 1169 393 1169 l 433 1169 q 476 1154 457 1169 l 614 1039 q 628 1011 628 1028 q 617 987 628 997 q 593 976 607 976 q 569 986 579 976 l 432 1100 l 418 1100 l 281 986 q 257 976 271 976 m 553 1125 q 521 1156 521 1125 q 540 1216 521 1194 q 588 1256 558 1238 q 615 1275 608 1268 q 621 1294 621 1282 q 610 1338 621 1326 q 567 1350 599 1350 q 523 1338 535 1350 q 511 1294 511 1326 q 481 1263 511 1263 q 449 1294 449 1263 q 567 1413 449 1413 q 683 1294 683 1413 q 665 1238 683 1258 q 619 1201 646 1217 q 591 1178 597 1186 q 585 1156 585 1169 q 553 1125 585 1125 z "},"Ẫ":{"ha":851,"x_min":36,"x_max":817,"o":"m 813 51 q 817 33 817 42 q 793 4 817 15 q 775 0 785 0 q 747 22 756 0 l 654 242 l 650 242 l 200 242 l 107 22 q 76 0 97 0 q 58 4 69 0 q 36 35 36 13 q 39 51 36 46 l 383 867 q 425 894 394 894 l 428 894 q 468 867 456 894 l 813 51 m 229 314 l 624 314 l 426 781 l 229 314 m 258 976 q 233 987 243 976 q 224 1011 224 997 q 238 1039 224 1028 l 375 1154 q 418 1169 394 1169 l 435 1169 q 478 1154 458 1169 l 615 1039 q 629 1011 629 1028 q 619 987 629 997 q 594 976 608 976 q 571 986 581 976 l 433 1100 l 419 1100 l 282 986 q 258 976 272 976 m 514 1208 q 457 1222 479 1208 q 411 1260 435 1236 q 380 1286 392 1279 q 350 1293 368 1293 q 313 1281 326 1293 q 288 1235 300 1268 q 251 1211 279 1207 q 230 1221 238 1213 q 222 1242 222 1229 q 225 1254 222 1246 q 274 1335 244 1310 q 350 1360 303 1360 q 411 1345 388 1360 q 460 1306 435 1331 q 488 1281 478 1288 q 514 1275 499 1275 q 550 1288 536 1275 q 574 1332 564 1301 q 610 1356 583 1360 q 631 1346 624 1354 q 639 1325 639 1338 q 638 1314 639 1318 q 588 1235 618 1261 q 514 1208 558 1208 z "},"Ȁ":{"ha":851,"x_min":36,"x_max":817,"o":"m 219 1128 q 213 1149 213 1139 q 225 1172 213 1163 q 244 1181 236 1181 q 268 1168 256 1181 l 376 1040 q 383 1021 383 1029 q 371 997 383 1008 q 351 989 361 989 q 328 1001 340 989 l 219 1128 m 374 1128 q 367 1149 367 1139 q 379 1172 367 1163 q 399 1181 389 1181 q 422 1168 410 1181 l 531 1040 q 538 1021 538 1029 q 525 997 538 1008 q 506 989 515 989 q 482 1001 494 989 l 374 1128 m 813 51 q 817 33 817 42 q 793 4 817 15 q 775 0 785 0 q 747 22 756 0 l 654 242 l 650 242 l 200 242 l 107 22 q 76 0 97 0 q 58 4 69 0 q 36 35 36 13 q 39 51 36 46 l 383 867 q 425 894 394 894 l 428 894 q 468 867 456 894 l 813 51 m 229 314 l 624 314 l 426 781 l 229 314 z "},"Ä":{"ha":851,"x_min":36,"x_max":817,"o":"m 813 51 q 817 33 817 42 q 793 4 817 15 q 775 0 785 0 q 747 22 756 0 l 654 242 l 650 242 l 200 242 l 107 22 q 76 0 97 0 q 58 4 69 0 q 36 35 36 13 q 39 51 36 46 l 383 867 q 425 894 394 894 l 428 894 q 468 867 456 894 l 813 51 m 229 314 l 624 314 l 426 781 l 229 314 m 311 1013 q 281 1023 292 1013 q 271 1053 271 1033 l 271 1079 q 281 1109 271 1099 q 311 1119 292 1119 l 338 1119 q 376 1079 376 1119 l 376 1053 q 338 1013 376 1013 l 311 1013 m 518 1013 q 488 1023 499 1013 q 478 1053 478 1033 l 478 1079 q 488 1109 478 1099 q 518 1119 499 1119 l 544 1119 q 583 1079 583 1119 l 583 1053 q 544 1013 583 1013 l 518 1013 z "},"Ạ":{"ha":851,"x_min":36,"x_max":817,"o":"m 813 51 q 817 33 817 42 q 793 4 817 15 q 775 0 785 0 q 747 22 756 0 l 654 242 l 650 242 l 200 242 l 107 22 q 76 0 97 0 q 58 4 69 0 q 36 35 36 13 q 39 51 36 46 l 383 867 q 425 894 394 894 l 428 894 q 468 867 456 894 l 813 51 m 229 314 l 624 314 l 426 781 l 229 314 m 413 -211 q 383 -201 393 -211 q 372 -171 372 -190 l 372 -144 q 383 -115 372 -125 q 413 -104 393 -104 l 439 -104 q 478 -144 478 -104 l 478 -171 q 439 -211 478 -211 l 413 -211 z "},"À":{"ha":851,"x_min":36,"x_max":817,"o":"m 813 51 q 817 33 817 42 q 793 4 817 15 q 775 0 785 0 q 747 22 756 0 l 654 242 l 650 242 l 200 242 l 107 22 q 76 0 97 0 q 58 4 69 0 q 36 35 36 13 q 39 51 36 46 l 383 867 q 425 894 394 894 l 428 894 q 468 867 456 894 l 813 51 m 229 314 l 624 314 l 426 781 l 229 314 m 471 975 q 449 965 461 965 q 422 979 435 965 l 303 1121 q 294 1144 294 1133 q 308 1169 294 1157 q 331 1179 318 1179 q 357 1165 344 1179 l 476 1024 q 485 1000 485 1011 q 471 975 485 988 z "},"Ả":{"ha":851,"x_min":36,"x_max":817,"o":"m 813 51 q 817 33 817 42 q 793 4 817 15 q 775 0 785 0 q 747 22 756 0 l 654 242 l 650 242 l 200 242 l 107 22 q 76 0 97 0 q 58 4 69 0 q 36 35 36 13 q 39 51 36 46 l 383 867 q 425 894 394 894 l 428 894 q 468 867 456 894 l 813 51 m 229 314 l 624 314 l 426 781 l 229 314 m 426 972 q 394 1003 394 972 q 413 1063 394 1042 q 461 1103 432 1085 q 488 1122 482 1115 q 494 1142 494 1129 q 483 1185 494 1174 q 440 1197 472 1197 q 397 1185 408 1197 q 385 1142 385 1174 q 354 1110 385 1110 q 322 1142 322 1110 q 440 1260 322 1260 q 557 1142 557 1260 q 538 1085 557 1106 q 493 1049 519 1064 q 465 1025 471 1033 q 458 1003 458 1017 q 426 972 458 972 z "},"Ȃ":{"ha":851,"x_min":36,"x_max":817,"o":"m 813 51 q 817 33 817 42 q 793 4 817 15 q 775 0 785 0 q 747 22 756 0 l 654 242 l 650 242 l 200 242 l 107 22 q 76 0 97 0 q 58 4 69 0 q 36 35 36 13 q 39 51 36 46 l 383 867 q 425 894 394 894 l 428 894 q 468 867 456 894 l 813 51 m 229 314 l 624 314 l 426 781 l 229 314 m 428 1194 q 557 1154 513 1194 q 601 1035 601 1114 l 601 1025 q 568 990 601 990 q 533 1021 533 990 l 533 1035 q 509 1106 533 1085 q 428 1128 485 1128 q 346 1106 371 1128 q 321 1035 321 1083 l 321 1025 q 288 990 321 990 q 253 1025 253 990 l 253 1035 q 297 1153 253 1113 q 428 1194 342 1194 z "},"Ā":{"ha":851,"x_min":36,"x_max":817,"o":"m 813 51 q 817 33 817 42 q 793 4 817 15 q 775 0 785 0 q 747 22 756 0 l 654 242 l 650 242 l 200 242 l 107 22 q 76 0 97 0 q 58 4 69 0 q 36 35 36 13 q 39 51 36 46 l 383 867 q 425 894 394 894 l 428 894 q 468 867 456 894 l 813 51 m 229 314 l 624 314 l 426 781 l 229 314 m 250 1053 q 214 1089 214 1053 q 250 1125 214 1125 l 601 1125 q 638 1089 638 1125 q 601 1053 638 1053 l 250 1053 z "},"Ą":{"ha":851,"x_min":36,"x_max":915,"o":"m 882 -126 q 906 -136 896 -126 q 915 -161 915 -146 q 906 -185 915 -176 q 846 -227 879 -212 q 779 -242 813 -242 q 688 -209 725 -242 q 651 -128 651 -176 q 683 -43 651 -82 l 742 35 l 654 242 l 650 242 l 200 242 l 107 22 q 76 0 97 0 q 58 4 69 0 q 36 35 36 13 q 39 51 36 46 l 383 867 q 425 894 394 894 l 428 894 q 468 867 456 894 l 813 51 q 817 33 817 43 q 813 19 817 26 q 808 8 813 15 l 739 -85 q 719 -128 719 -108 q 736 -160 719 -147 q 779 -174 753 -174 q 857 -136 819 -174 q 882 -126 869 -126 m 229 314 l 624 314 l 426 781 l 229 314 z "},"Å":{"ha":851,"x_min":36,"x_max":817,"o":"m 813 51 q 817 33 817 42 q 793 4 817 15 q 775 0 785 0 q 747 22 756 0 l 654 242 l 650 242 l 200 242 l 107 22 q 76 0 97 0 q 58 4 69 0 q 36 35 36 13 q 39 51 36 46 l 383 867 q 425 894 394 894 l 428 894 q 468 867 456 894 l 813 51 m 229 314 l 624 314 l 426 781 l 229 314 m 421 976 q 343 1004 371 976 q 315 1082 315 1032 q 343 1161 315 1133 q 421 1189 371 1189 q 500 1161 472 1189 q 528 1082 528 1133 q 500 1004 528 1032 q 421 976 472 976 m 421 1040 q 455 1049 446 1040 q 464 1082 464 1058 q 455 1117 464 1108 q 421 1125 446 1125 q 388 1116 396 1125 q 379 1082 379 1107 q 388 1049 379 1057 q 421 1040 397 1040 z "},"Ǻ":{"ha":851,"x_min":36,"x_max":817,"o":"m 813 51 q 817 33 817 42 q 793 4 817 15 q 775 0 785 0 q 747 22 756 0 l 654 242 l 650 242 l 200 242 l 107 22 q 76 0 97 0 q 58 4 69 0 q 36 35 36 13 q 39 51 36 46 l 383 867 q 425 894 394 894 l 428 894 q 468 867 456 894 l 813 51 m 229 314 l 624 314 l 426 781 l 229 314 m 421 976 q 343 1004 371 976 q 315 1082 315 1032 q 343 1161 315 1133 q 421 1189 371 1189 q 500 1161 472 1189 q 528 1082 528 1133 q 500 1004 528 1032 q 421 976 472 976 m 421 1040 q 455 1049 446 1040 q 464 1082 464 1058 q 455 1117 464 1108 q 421 1125 446 1125 q 388 1116 396 1125 q 379 1082 379 1107 q 388 1049 379 1057 q 421 1040 397 1040 m 392 1278 q 378 1303 378 1290 q 386 1326 378 1314 l 506 1468 q 532 1482 518 1482 q 554 1472 544 1482 q 568 1447 568 1460 q 560 1424 568 1436 l 440 1282 q 414 1268 428 1268 q 392 1278 401 1268 z "},"Ã":{"ha":851,"x_min":36,"x_max":817,"o":"m 813 51 q 817 33 817 42 q 793 4 817 15 q 775 0 785 0 q 747 22 756 0 l 654 242 l 650 242 l 200 242 l 107 22 q 76 0 97 0 q 58 4 69 0 q 36 35 36 13 q 39 51 36 46 l 383 867 q 425 894 394 894 l 428 894 q 468 867 456 894 l 813 51 m 229 314 l 624 314 l 426 781 l 229 314 m 513 1007 q 456 1021 478 1007 q 410 1058 433 1035 q 378 1085 390 1078 q 349 1092 367 1092 q 312 1079 325 1092 q 286 1033 299 1067 q 250 1010 278 1006 q 228 1019 236 1011 q 221 1040 221 1028 q 224 1053 221 1044 q 272 1133 243 1108 q 349 1158 301 1158 q 410 1144 386 1158 q 458 1104 433 1129 q 487 1080 476 1086 q 513 1074 497 1074 q 549 1087 535 1074 q 572 1131 563 1100 q 608 1154 582 1158 q 630 1144 622 1153 q 638 1124 638 1136 q 636 1113 638 1117 q 587 1033 617 1060 q 513 1007 557 1007 z "},"Æ":{"ha":1149,"x_min":36,"x_max":1093,"o":"m 603 0 q 567 36 567 0 l 567 242 l 232 243 l 106 19 q 76 -1 93 -1 q 56 6 67 -1 q 36 36 36 18 q 42 56 36 46 l 503 868 q 544 894 515 894 l 1057 894 q 1093 858 1093 894 q 1057 822 1093 822 l 639 822 l 639 489 l 893 489 q 929 453 929 489 q 893 417 929 417 l 639 417 l 639 72 l 1057 72 q 1093 36 1093 72 q 1057 0 1093 0 l 603 0 m 272 314 l 567 314 l 567 814 l 551 814 l 272 314 z "},"Ǽ":{"ha":1149,"x_min":36,"x_max":1093,"o":"m 603 0 q 567 36 567 0 l 567 242 l 232 243 l 106 19 q 76 -1 93 -1 q 56 6 67 -1 q 36 36 36 18 q 42 56 36 46 l 503 868 q 544 894 515 894 l 1057 894 q 1093 858 1093 894 q 1057 822 1093 822 l 639 822 l 639 489 l 893 489 q 929 453 929 489 q 893 417 929 417 l 639 417 l 639 72 l 1057 72 q 1093 36 1093 72 q 1057 0 1093 0 l 603 0 m 272 314 l 567 314 l 567 814 l 551 814 l 272 314 m 679 981 q 665 1006 665 993 q 674 1029 665 1017 l 793 1171 q 819 1185 806 1185 q 842 1175 832 1185 q 856 1150 856 1163 q 847 1126 856 1139 l 728 985 q 701 971 715 971 q 679 981 689 971 z "},"B":{"ha":861,"x_min":129,"x_max":786,"o":"m 665 500 q 786 283 786 450 l 786 239 q 725 60 786 121 q 546 0 664 0 l 165 0 q 129 36 129 0 l 129 858 q 165 894 129 894 l 528 894 q 682 842 629 894 q 735 692 735 790 l 735 654 q 665 500 735 544 m 201 521 l 546 521 l 554 521 l 557 521 q 663 654 663 526 l 663 692 q 631 792 663 761 q 528 822 600 822 l 201 822 l 201 521 m 714 283 q 674 410 714 371 q 546 449 635 449 l 201 449 l 201 72 l 546 72 q 674 112 635 72 q 714 239 714 151 l 714 283 z "},"C":{"ha":924,"x_min":111,"x_max":829,"o":"m 400 0 q 181 69 250 0 q 111 289 111 139 l 111 606 q 180 826 111 757 q 399 894 249 894 l 567 894 q 757 841 694 894 q 826 669 819 788 q 790 633 829 633 q 754 669 757 633 q 707 788 749 754 q 567 822 665 822 l 399 822 q 272 801 318 822 q 204 734 225 781 q 183 606 183 688 l 183 289 q 204 160 183 207 q 272 93 225 114 q 400 72 318 72 l 567 72 q 707 106 665 72 q 754 225 749 139 q 790 261 757 261 q 826 224 829 261 q 757 53 819 106 q 567 0 694 0 l 400 0 z "},"Ć":{"ha":924,"x_min":111,"x_max":826,"o":"m 400 0 q 181 69 250 0 q 111 289 111 139 l 111 606 q 180 826 111 757 q 399 894 249 894 l 567 894 q 757 841 694 894 q 826 669 819 788 q 790 633 829 633 q 754 669 757 633 q 707 788 749 754 q 567 822 665 822 l 399 822 q 272 801 318 822 q 204 734 225 781 q 183 606 183 688 l 183 289 q 204 160 183 207 q 272 93 225 114 q 400 72 318 72 l 567 72 q 707 106 665 72 q 754 225 749 139 q 790 261 757 261 q 826 224 829 261 q 757 53 819 106 q 567 0 694 0 l 400 0 m 439 981 q 425 1006 425 993 q 433 1029 425 1017 l 553 1171 q 579 1185 565 1185 q 601 1175 592 1185 q 615 1150 615 1163 q 607 1126 615 1139 l 488 985 q 461 971 475 971 q 439 981 449 971 z "},"Č":{"ha":924,"x_min":111,"x_max":826,"o":"m 400 0 q 181 69 250 0 q 111 289 111 139 l 111 606 q 180 826 111 757 q 399 894 249 894 l 567 894 q 757 841 694 894 q 826 669 819 788 q 790 633 829 633 q 754 669 757 633 q 707 788 749 754 q 567 822 665 822 l 399 822 q 272 801 318 822 q 204 734 225 781 q 183 606 183 688 l 183 289 q 204 160 183 207 q 272 93 225 114 q 400 72 318 72 l 567 72 q 707 106 665 72 q 754 225 749 139 q 790 261 757 261 q 826 224 829 261 q 757 53 819 106 q 567 0 694 0 l 400 0 m 335 1181 q 358 1171 349 1181 l 496 1057 l 510 1057 l 647 1171 q 671 1181 657 1181 q 695 1171 685 1181 q 706 1146 706 1161 q 692 1118 706 1129 l 554 1003 q 511 988 535 988 l 494 988 q 451 1003 471 988 l 314 1118 q 300 1146 300 1129 q 310 1171 300 1161 q 335 1181 319 1181 z "},"Ç":{"ha":924,"x_min":111,"x_max":829,"o":"m 790 261 q 826 224 829 261 q 757 53 819 106 q 567 0 694 0 l 554 0 q 588 -32 560 -14 q 635 -74 617 -51 q 653 -135 653 -96 q 617 -247 653 -211 q 504 -282 581 -282 q 385 -162 385 -282 q 418 -129 385 -129 q 453 -162 453 -129 q 463 -205 453 -194 q 504 -215 474 -215 q 568 -199 551 -215 q 585 -135 585 -182 q 578 -112 585 -121 q 550 -89 572 -104 q 508 -52 525 -71 q 485 0 490 -33 l 400 0 q 181 69 250 0 q 111 289 111 139 l 111 606 q 180 826 111 757 q 399 894 249 894 l 567 894 q 757 841 694 894 q 826 669 819 788 q 790 633 829 633 q 754 669 757 633 q 707 788 749 754 q 567 822 665 822 l 399 822 q 272 801 318 822 q 204 734 225 781 q 183 606 183 688 l 183 289 q 204 160 183 207 q 272 93 225 114 q 400 72 318 72 l 567 72 q 707 106 665 72 q 754 225 749 139 q 790 261 757 261 z "},"Ĉ":{"ha":924,"x_min":111,"x_max":826,"o":"m 400 0 q 181 69 250 0 q 111 289 111 139 l 111 606 q 180 826 111 757 q 399 894 249 894 l 567 894 q 757 841 694 894 q 826 669 819 788 q 790 633 829 633 q 754 669 757 633 q 707 788 749 754 q 567 822 665 822 l 399 822 q 272 801 318 822 q 204 734 225 781 q 183 606 183 688 l 183 289 q 204 160 183 207 q 272 93 225 114 q 400 72 318 72 l 567 72 q 707 106 665 72 q 754 225 749 139 q 790 261 757 261 q 826 224 829 261 q 757 53 819 106 q 567 0 694 0 l 400 0 m 344 972 q 321 983 331 972 q 311 1007 311 993 q 318 1028 311 1018 l 425 1163 q 467 1182 443 1182 l 488 1182 q 528 1163 513 1182 l 635 1028 q 643 1007 643 1017 q 633 983 643 993 q 608 972 622 972 q 582 986 592 972 l 482 1115 l 472 1115 l 371 986 q 344 972 361 972 z "},"Ċ":{"ha":924,"x_min":111,"x_max":826,"o":"m 400 0 q 181 69 250 0 q 111 289 111 139 l 111 606 q 180 826 111 757 q 399 894 249 894 l 567 894 q 757 841 694 894 q 826 669 819 788 q 790 633 829 633 q 754 669 757 633 q 707 788 749 754 q 567 822 665 822 l 399 822 q 272 801 318 822 q 204 734 225 781 q 183 606 183 688 l 183 289 q 204 160 183 207 q 272 93 225 114 q 400 72 318 72 l 567 72 q 707 106 665 72 q 754 225 749 139 q 790 261 757 261 q 826 224 829 261 q 757 53 819 106 q 567 0 694 0 l 400 0 m 460 1021 q 424 1033 436 1021 q 411 1069 411 1046 l 411 1100 q 424 1136 411 1124 q 460 1149 436 1149 l 492 1149 q 538 1100 538 1149 l 538 1069 q 492 1021 538 1021 l 460 1021 z "},"D":{"ha":942,"x_min":129,"x_max":831,"o":"m 165 0 q 129 36 129 0 l 129 858 q 165 894 129 894 l 500 894 q 751 815 672 894 q 831 564 831 736 l 831 331 q 752 79 831 158 q 500 0 674 0 l 165 0 m 500 72 q 652 97 596 72 q 733 178 708 122 q 758 331 758 235 l 758 564 q 733 716 758 660 q 652 797 708 772 q 500 822 596 822 l 201 822 l 201 72 l 500 72 z "},"Ǳ":{"ha":1743,"x_min":129,"x_max":1683,"o":"m 165 0 q 129 36 129 0 l 129 858 q 165 894 129 894 l 500 894 q 751 815 672 894 q 831 564 831 736 l 831 331 q 752 79 831 158 q 500 0 674 0 l 165 0 m 500 72 q 652 97 596 72 q 733 178 708 122 q 758 331 758 235 l 758 564 q 733 716 758 660 q 652 797 708 772 q 500 822 596 822 l 201 822 l 201 72 l 500 72 m 1647 206 q 1676 196 1667 206 q 1683 168 1685 186 q 1623 42 1675 85 q 1479 0 1571 0 l 1006 0 q 967 36 967 0 q 972 56 967 46 q 985 75 976 65 l 1546 822 l 1150 822 q 1057 799 1089 822 q 1019 724 1025 775 q 1008 697 1017 706 q 981 689 999 689 q 954 699 964 689 q 946 726 944 710 q 1007 851 956 808 q 1150 894 1058 894 l 1610 894 q 1646 858 1646 894 q 1631 815 1646 836 l 1074 72 l 1479 72 q 1572 96 1540 72 q 1611 171 1604 119 q 1647 206 1615 206 z "},"Ǆ":{"ha":1743,"x_min":129,"x_max":1683,"o":"m 165 0 q 129 36 129 0 l 129 858 q 165 894 129 894 l 500 894 q 751 815 672 894 q 831 564 831 736 l 831 331 q 752 79 831 158 q 500 0 674 0 l 165 0 m 500 72 q 652 97 596 72 q 733 178 708 122 q 758 331 758 235 l 758 564 q 733 716 758 660 q 652 797 708 772 q 500 822 596 822 l 201 822 l 201 72 l 500 72 m 1647 206 q 1676 196 1667 206 q 1683 168 1685 186 q 1623 42 1675 85 q 1479 0 1571 0 l 1006 0 q 967 36 967 0 q 972 56 967 46 q 985 75 976 65 l 1546 822 l 1150 822 q 1057 799 1089 822 q 1019 724 1025 775 q 1008 697 1017 706 q 981 689 999 689 q 954 699 964 689 q 946 726 944 710 q 1007 851 956 808 q 1150 894 1058 894 l 1610 894 q 1646 858 1646 894 q 1631 815 1646 836 l 1074 72 l 1479 72 q 1572 96 1540 72 q 1611 171 1604 119 q 1647 206 1615 206 m 1168 1181 q 1192 1171 1182 1181 l 1329 1057 l 1343 1057 l 1481 1171 q 1504 1181 1490 1181 q 1528 1171 1518 1181 q 1539 1146 1539 1161 q 1525 1118 1539 1129 l 1388 1003 q 1344 988 1368 988 l 1328 988 q 1285 1003 1304 988 l 1147 1118 q 1133 1146 1133 1129 q 1143 1171 1133 1161 q 1168 1181 1153 1181 z "},"Ð":{"ha":942,"x_min":10,"x_max":831,"o":"m 500 894 q 751 815 672 894 q 831 564 831 736 l 831 331 q 752 79 831 158 q 500 0 674 0 l 165 0 q 129 36 129 0 l 129 418 l 43 418 q 10 451 10 418 q 43 485 10 485 l 129 485 l 129 858 q 165 894 129 894 l 500 894 m 758 564 q 733 716 758 660 q 652 797 708 772 q 500 822 596 822 l 201 822 l 201 485 l 403 485 q 438 451 438 485 q 403 418 438 418 l 201 418 l 201 72 l 500 72 q 652 97 596 72 q 733 178 708 122 q 758 331 758 235 l 758 564 z "},"Ď":{"ha":942,"x_min":129,"x_max":831,"o":"m 165 0 q 129 36 129 0 l 129 858 q 165 894 129 894 l 500 894 q 751 815 672 894 q 831 564 831 736 l 831 331 q 752 79 831 158 q 500 0 674 0 l 165 0 m 500 72 q 652 97 596 72 q 733 178 708 122 q 758 331 758 235 l 758 564 q 733 716 758 660 q 652 797 708 772 q 500 822 596 822 l 201 822 l 201 72 l 500 72 m 290 1181 q 314 1171 304 1181 l 451 1057 l 465 1057 l 603 1171 q 626 1181 613 1181 q 651 1171 640 1181 q 661 1146 661 1161 q 647 1118 661 1129 l 510 1003 q 467 988 490 988 l 450 988 q 407 1003 426 988 l 269 1118 q 256 1146 256 1129 q 265 1171 256 1161 q 290 1181 275 1181 z "},"Đ":{"ha":942,"x_min":10,"x_max":831,"o":"m 500 894 q 751 815 672 894 q 831 564 831 736 l 831 331 q 752 79 831 158 q 500 0 674 0 l 165 0 q 129 36 129 0 l 129 418 l 43 418 q 10 451 10 418 q 43 485 10 485 l 129 485 l 129 858 q 165 894 129 894 l 500 894 m 758 564 q 733 716 758 660 q 652 797 708 772 q 500 822 596 822 l 201 822 l 201 485 l 403 485 q 438 451 438 485 q 403 418 438 418 l 201 418 l 201 72 l 500 72 q 652 97 596 72 q 733 178 708 122 q 758 331 758 235 l 758 564 z "},"ǲ":{"ha":1574,"x_min":129,"x_max":1525,"o":"m 165 0 q 129 36 129 0 l 129 858 q 165 894 129 894 l 500 894 q 751 815 672 894 q 831 564 831 736 l 831 331 q 752 79 831 158 q 500 0 674 0 l 165 0 m 500 72 q 652 97 596 72 q 733 178 708 122 q 758 331 758 235 l 758 564 q 733 716 758 660 q 652 797 708 772 q 500 822 596 822 l 201 822 l 201 72 l 500 72 m 1490 178 q 1517 168 1508 178 q 1525 140 1526 158 q 1350 0 1506 0 l 979 0 q 943 36 943 0 q 958 74 943 54 l 1369 583 l 1097 583 q 1022 568 1046 583 q 993 513 999 553 q 957 478 989 478 q 928 488 938 478 q 921 515 919 497 q 972 622 929 588 q 1097 656 1015 656 l 1438 656 q 1464 647 1454 656 q 1474 619 1474 638 q 1457 581 1474 601 l 1047 72 l 1350 72 q 1423 89 1399 72 q 1453 143 1447 106 q 1465 169 1456 161 q 1490 178 1474 178 z "},"ǅ":{"ha":1574,"x_min":129,"x_max":1525,"o":"m 165 0 q 129 36 129 0 l 129 858 q 165 894 129 894 l 500 894 q 751 815 672 894 q 831 564 831 736 l 831 331 q 752 79 831 158 q 500 0 674 0 l 165 0 m 500 72 q 652 97 596 72 q 733 178 708 122 q 758 331 758 235 l 758 564 q 733 716 758 660 q 652 797 708 772 q 500 822 596 822 l 201 822 l 201 72 l 500 72 m 1490 178 q 1517 168 1508 178 q 1525 140 1526 158 q 1350 0 1506 0 l 979 0 q 943 36 943 0 q 958 74 943 54 l 1369 583 l 1097 583 q 1022 568 1046 583 q 993 513 999 553 q 957 478 989 478 q 928 488 938 478 q 921 515 919 497 q 972 622 929 588 q 1097 656 1015 656 l 1438 656 q 1464 647 1454 656 q 1474 619 1474 638 q 1457 581 1474 601 l 1047 72 l 1350 72 q 1423 89 1399 72 q 1453 143 1447 106 q 1465 169 1456 161 q 1490 178 1474 178 m 1086 942 q 1110 932 1100 942 l 1247 818 l 1261 818 l 1399 932 q 1422 942 1408 942 q 1447 932 1436 942 q 1457 907 1457 922 q 1443 879 1457 890 l 1306 764 q 1263 749 1286 749 l 1246 749 q 1203 764 1222 749 l 1065 879 q 1051 907 1051 890 q 1061 932 1051 922 q 1086 942 1071 942 z "},"E":{"ha":778,"x_min":129,"x_max":722,"o":"m 686 72 q 722 36 722 72 q 686 0 722 0 l 165 0 q 129 36 129 0 l 129 858 q 165 894 129 894 l 686 894 q 722 858 722 894 q 686 822 722 822 l 201 822 l 201 489 l 522 489 q 558 453 558 489 q 522 417 558 417 l 201 417 l 201 72 l 686 72 z "},"É":{"ha":778,"x_min":129,"x_max":722,"o":"m 686 72 q 722 36 722 72 q 686 0 722 0 l 165 0 q 129 36 129 0 l 129 858 q 165 894 129 894 l 686 894 q 722 858 722 894 q 686 822 722 822 l 201 822 l 201 489 l 522 489 q 558 453 558 489 q 522 417 558 417 l 201 417 l 201 72 l 686 72 m 414 981 q 400 1006 400 993 q 408 1029 400 1017 l 528 1171 q 554 1185 540 1185 q 576 1175 567 1185 q 590 1150 590 1163 q 582 1126 590 1139 l 463 985 q 436 971 450 971 q 414 981 424 971 z "},"Ĕ":{"ha":778,"x_min":129,"x_max":722,"o":"m 686 72 q 722 36 722 72 q 686 0 722 0 l 165 0 q 129 36 129 0 l 129 858 q 165 894 129 894 l 686 894 q 722 858 722 894 q 686 822 722 822 l 201 822 l 201 489 l 522 489 q 558 453 558 489 q 522 417 558 417 l 201 417 l 201 72 l 686 72 m 456 971 q 325 1012 369 971 q 281 1131 281 1053 l 281 1140 q 315 1175 281 1175 q 349 1140 349 1175 l 349 1131 q 374 1060 349 1082 q 456 1038 399 1038 q 537 1059 513 1038 q 561 1131 561 1081 l 561 1144 q 596 1175 561 1175 q 629 1140 629 1175 l 629 1131 q 585 1011 629 1051 q 456 971 540 971 z "},"Ě":{"ha":778,"x_min":129,"x_max":722,"o":"m 686 72 q 722 36 722 72 q 686 0 722 0 l 165 0 q 129 36 129 0 l 129 858 q 165 894 129 894 l 686 894 q 722 858 722 894 q 686 822 722 822 l 201 822 l 201 489 l 522 489 q 558 453 558 489 q 522 417 558 417 l 201 417 l 201 72 l 686 72 m 310 1181 q 333 1171 324 1181 l 471 1057 l 485 1057 l 622 1171 q 646 1181 632 1181 q 670 1171 660 1181 q 681 1146 681 1161 q 667 1118 681 1129 l 529 1003 q 486 988 510 988 l 469 988 q 426 1003 446 988 l 289 1118 q 275 1146 275 1129 q 285 1171 275 1161 q 310 1181 294 1181 z "},"Ê":{"ha":778,"x_min":129,"x_max":722,"o":"m 686 72 q 722 36 722 72 q 686 0 722 0 l 165 0 q 129 36 129 0 l 129 858 q 165 894 129 894 l 686 894 q 722 858 722 894 q 686 822 722 822 l 201 822 l 201 489 l 522 489 q 558 453 558 489 q 522 417 558 417 l 201 417 l 201 72 l 686 72 m 279 976 q 254 987 264 976 q 244 1011 244 997 q 258 1039 244 1028 l 396 1154 q 439 1169 415 1169 l 456 1169 q 499 1154 479 1169 l 636 1039 q 650 1011 650 1028 q 640 987 650 997 q 615 976 629 976 q 592 986 601 976 l 454 1100 l 440 1100 l 303 986 q 279 976 293 976 z "},"Ế":{"ha":778,"x_min":129,"x_max":722,"o":"m 686 72 q 722 36 722 72 q 686 0 722 0 l 165 0 q 129 36 129 0 l 129 858 q 165 894 129 894 l 686 894 q 722 858 722 894 q 686 822 722 822 l 201 822 l 201 489 l 522 489 q 558 453 558 489 q 522 417 558 417 l 201 417 l 201 72 l 686 72 m 592 1115 q 567 1126 578 1115 q 556 1150 556 1136 q 565 1174 556 1161 l 653 1276 q 679 1290 665 1290 q 704 1280 693 1290 q 715 1256 715 1269 q 706 1232 715 1244 l 618 1128 q 592 1115 607 1115 m 285 976 q 260 987 269 976 q 250 1011 250 997 q 264 1039 250 1028 l 401 1154 q 444 1169 421 1169 l 461 1169 q 504 1154 485 1169 l 642 1039 q 656 1011 656 1028 q 645 987 656 997 q 621 976 635 976 q 597 986 607 976 l 460 1100 l 446 1100 l 308 986 q 285 976 299 976 z "},"Ệ":{"ha":778,"x_min":129,"x_max":722,"o":"m 686 72 q 722 36 722 72 q 686 0 722 0 l 165 0 q 129 36 129 0 l 129 858 q 165 894 129 894 l 686 894 q 722 858 722 894 q 686 822 722 822 l 201 822 l 201 489 l 522 489 q 558 453 558 489 q 522 417 558 417 l 201 417 l 201 72 l 686 72 m 419 -211 q 390 -201 400 -211 q 379 -171 379 -190 l 379 -144 q 390 -115 379 -125 q 419 -104 400 -104 l 446 -104 q 485 -144 485 -104 l 485 -171 q 446 -211 485 -211 l 419 -211 m 279 976 q 254 987 264 976 q 244 1011 244 997 q 258 1039 244 1028 l 396 1154 q 439 1169 415 1169 l 456 1169 q 499 1154 479 1169 l 636 1039 q 650 1011 650 1028 q 640 987 650 997 q 615 976 629 976 q 592 986 601 976 l 454 1100 l 440 1100 l 303 986 q 279 976 293 976 z "},"Ề":{"ha":778,"x_min":129,"x_max":722,"o":"m 686 72 q 722 36 722 72 q 686 0 722 0 l 165 0 q 129 36 129 0 l 129 858 q 165 894 129 894 l 686 894 q 722 858 722 894 q 686 822 722 822 l 201 822 l 201 489 l 522 489 q 558 453 558 489 q 522 417 558 417 l 201 417 l 201 72 l 686 72 m 274 1115 q 247 1128 257 1115 l 160 1232 q 150 1256 150 1242 q 161 1280 150 1269 q 186 1290 172 1290 q 213 1276 200 1290 l 300 1174 q 310 1150 310 1161 q 299 1126 310 1136 q 274 1115 288 1115 m 282 976 q 257 987 267 976 q 247 1011 247 997 q 261 1039 247 1028 l 399 1154 q 442 1169 418 1169 l 458 1169 q 501 1154 482 1169 l 639 1039 q 653 1011 653 1028 q 642 987 653 997 q 618 976 632 976 q 594 986 604 976 l 457 1100 l 443 1100 l 306 986 q 282 976 296 976 z "},"Ể":{"ha":778,"x_min":129,"x_max":722,"o":"m 686 72 q 722 36 722 72 q 686 0 722 0 l 165 0 q 129 36 129 0 l 129 858 q 165 894 129 894 l 686 894 q 722 858 722 894 q 686 822 722 822 l 201 822 l 201 489 l 522 489 q 558 453 558 489 q 522 417 558 417 l 201 417 l 201 72 l 686 72 m 281 976 q 256 987 265 976 q 246 1011 246 997 q 260 1039 246 1028 l 397 1154 q 440 1169 417 1169 l 457 1169 q 500 1154 481 1169 l 638 1039 q 651 1011 651 1028 q 641 987 651 997 q 617 976 631 976 q 593 986 603 976 l 456 1100 l 442 1100 l 304 986 q 281 976 294 976 m 576 1125 q 544 1156 544 1125 q 563 1216 544 1194 q 611 1256 582 1238 q 638 1275 632 1268 q 644 1294 644 1282 q 633 1338 644 1326 q 590 1350 622 1350 q 547 1338 558 1350 q 535 1294 535 1326 q 504 1263 535 1263 q 472 1294 472 1263 q 590 1413 472 1413 q 707 1294 707 1413 q 688 1238 707 1258 q 643 1201 669 1217 q 615 1178 621 1186 q 608 1156 608 1169 q 576 1125 608 1125 z "},"Ễ":{"ha":778,"x_min":129,"x_max":722,"o":"m 686 72 q 722 36 722 72 q 686 0 722 0 l 165 0 q 129 36 129 0 l 129 858 q 165 894 129 894 l 686 894 q 722 858 722 894 q 686 822 722 822 l 201 822 l 201 489 l 522 489 q 558 453 558 489 q 522 417 558 417 l 201 417 l 201 72 l 686 72 m 282 976 q 257 987 267 976 q 247 1011 247 997 q 261 1039 247 1028 l 399 1154 q 442 1169 418 1169 l 458 1169 q 501 1154 482 1169 l 639 1039 q 653 1011 653 1028 q 642 987 653 997 q 618 976 632 976 q 594 986 604 976 l 457 1100 l 443 1100 l 306 986 q 282 976 296 976 m 538 1208 q 481 1222 503 1208 q 435 1260 458 1236 q 403 1286 415 1279 q 374 1293 392 1293 q 337 1281 350 1293 q 311 1235 324 1268 q 275 1211 303 1207 q 253 1221 261 1213 q 246 1242 246 1229 q 249 1254 246 1246 q 297 1335 268 1310 q 374 1360 326 1360 q 435 1345 411 1360 q 483 1306 458 1331 q 512 1281 501 1288 q 538 1275 522 1275 q 574 1288 560 1275 q 597 1332 588 1301 q 633 1356 607 1360 q 655 1346 647 1354 q 663 1325 663 1338 q 661 1314 663 1318 q 612 1235 642 1261 q 538 1208 582 1208 z "},"Ȅ":{"ha":778,"x_min":129,"x_max":722,"o":"m 243 1128 q 236 1149 236 1139 q 249 1172 236 1163 q 268 1181 260 1181 q 292 1168 279 1181 l 400 1040 q 407 1021 407 1029 q 394 997 407 1008 q 375 989 385 989 q 351 1001 364 989 l 243 1128 m 397 1128 q 390 1149 390 1139 q 403 1172 390 1163 q 422 1181 414 1181 q 446 1168 433 1181 l 554 1040 q 561 1021 561 1029 q 549 997 561 1008 q 529 989 539 989 q 506 1001 518 989 l 397 1128 m 686 72 q 722 36 722 72 q 686 0 722 0 l 165 0 q 129 36 129 0 l 129 858 q 165 894 129 894 l 686 894 q 722 858 722 894 q 686 822 722 822 l 201 822 l 201 489 l 522 489 q 558 453 558 489 q 522 417 558 417 l 201 417 l 201 72 l 686 72 z "},"Ë":{"ha":778,"x_min":129,"x_max":722,"o":"m 686 72 q 722 36 722 72 q 686 0 722 0 l 165 0 q 129 36 129 0 l 129 858 q 165 894 129 894 l 686 894 q 722 858 722 894 q 686 822 722 822 l 201 822 l 201 489 l 522 489 q 558 453 558 489 q 522 417 558 417 l 201 417 l 201 72 l 686 72 m 335 1013 q 305 1023 315 1013 q 294 1053 294 1033 l 294 1079 q 305 1109 294 1099 q 335 1119 315 1119 l 361 1119 q 400 1079 400 1119 l 400 1053 q 361 1013 400 1013 l 335 1013 m 542 1013 q 512 1023 522 1013 q 501 1053 501 1033 l 501 1079 q 512 1109 501 1099 q 542 1119 522 1119 l 568 1119 q 607 1079 607 1119 l 607 1053 q 568 1013 607 1013 l 542 1013 z "},"Ė":{"ha":778,"x_min":129,"x_max":722,"o":"m 686 72 q 722 36 722 72 q 686 0 722 0 l 165 0 q 129 36 129 0 l 129 858 q 165 894 129 894 l 686 894 q 722 858 722 894 q 686 822 722 822 l 201 822 l 201 489 l 522 489 q 558 453 558 489 q 522 417 558 417 l 201 417 l 201 72 l 686 72 m 435 1021 q 399 1033 411 1021 q 386 1069 386 1046 l 386 1100 q 399 1136 386 1124 q 435 1149 411 1149 l 467 1149 q 513 1100 513 1149 l 513 1069 q 467 1021 513 1021 l 435 1021 z "},"Ẹ":{"ha":778,"x_min":129,"x_max":722,"o":"m 686 72 q 722 36 722 72 q 686 0 722 0 l 165 0 q 129 36 129 0 l 129 858 q 165 894 129 894 l 686 894 q 722 858 722 894 q 686 822 722 822 l 201 822 l 201 489 l 522 489 q 558 453 558 489 q 522 417 558 417 l 201 417 l 201 72 l 686 72 m 419 -211 q 390 -201 400 -211 q 379 -171 379 -190 l 379 -144 q 390 -115 379 -125 q 419 -104 400 -104 l 446 -104 q 485 -144 485 -104 l 485 -171 q 446 -211 485 -211 l 419 -211 z "},"È":{"ha":778,"x_min":129,"x_max":722,"o":"m 686 72 q 722 36 722 72 q 686 0 722 0 l 165 0 q 129 36 129 0 l 129 858 q 165 894 129 894 l 686 894 q 722 858 722 894 q 686 822 722 822 l 201 822 l 201 489 l 522 489 q 558 453 558 489 q 522 417 558 417 l 201 417 l 201 72 l 686 72 m 494 975 q 472 965 485 965 q 446 979 458 965 l 326 1121 q 318 1144 318 1133 q 332 1169 318 1157 q 354 1179 342 1179 q 381 1165 368 1179 l 500 1024 q 508 1000 508 1011 q 494 975 508 988 z "},"Ẻ":{"ha":778,"x_min":129,"x_max":722,"o":"m 686 72 q 722 36 722 72 q 686 0 722 0 l 165 0 q 129 36 129 0 l 129 858 q 165 894 129 894 l 686 894 q 722 858 722 894 q 686 822 722 822 l 201 822 l 201 489 l 522 489 q 558 453 558 489 q 522 417 558 417 l 201 417 l 201 72 l 686 72 m 450 972 q 418 1003 418 972 q 437 1063 418 1042 q 485 1103 456 1085 q 512 1122 506 1115 q 518 1142 518 1129 q 507 1185 518 1174 q 464 1197 496 1197 q 420 1185 432 1197 q 408 1142 408 1174 q 378 1110 408 1110 q 346 1142 346 1110 q 464 1260 346 1260 q 581 1142 581 1260 q 562 1085 581 1106 q 517 1049 543 1064 q 488 1025 494 1033 q 482 1003 482 1017 q 450 972 482 972 z "},"Ȇ":{"ha":778,"x_min":129,"x_max":722,"o":"m 686 72 q 722 36 722 72 q 686 0 722 0 l 165 0 q 129 36 129 0 l 129 858 q 165 894 129 894 l 686 894 q 722 858 722 894 q 686 822 722 822 l 201 822 l 201 489 l 522 489 q 558 453 558 489 q 522 417 558 417 l 201 417 l 201 72 l 686 72 m 451 1194 q 581 1154 536 1194 q 625 1035 625 1114 l 625 1025 q 592 990 625 990 q 557 1021 557 990 l 557 1035 q 533 1106 557 1085 q 451 1128 508 1128 q 369 1106 394 1128 q 344 1035 344 1083 l 344 1025 q 311 990 344 990 q 276 1025 276 990 l 276 1035 q 321 1153 276 1113 q 451 1194 365 1194 z "},"Ē":{"ha":778,"x_min":129,"x_max":722,"o":"m 686 72 q 722 36 722 72 q 686 0 722 0 l 165 0 q 129 36 129 0 l 129 858 q 165 894 129 894 l 686 894 q 722 858 722 894 q 686 822 722 822 l 201 822 l 201 489 l 522 489 q 558 453 558 489 q 522 417 558 417 l 201 417 l 201 72 l 686 72 m 274 1053 q 238 1089 238 1053 q 274 1125 238 1125 l 625 1125 q 661 1089 661 1125 q 625 1053 661 1053 l 274 1053 z "},"Ę":{"ha":778,"x_min":129,"x_max":826,"o":"m 793 -112 q 817 -122 807 -112 q 826 -147 826 -132 q 817 -171 826 -162 q 757 -213 790 -199 q 690 -228 724 -228 q 599 -195 636 -228 q 563 -114 563 -162 q 594 -29 563 -68 l 617 0 l 165 0 q 129 36 129 0 l 129 858 q 165 894 129 894 l 686 894 q 722 858 722 894 q 686 822 722 822 l 201 822 l 201 489 l 522 489 q 558 453 558 489 q 522 417 558 417 l 201 417 l 201 72 l 672 72 q 692 78 679 78 q 715 68 706 78 q 725 43 725 58 q 721 25 725 36 q 706 4 719 11 l 650 -71 q 631 -114 631 -94 q 647 -147 631 -133 q 690 -160 664 -160 q 768 -122 731 -160 q 793 -112 781 -112 z "},"Ẽ":{"ha":778,"x_min":129,"x_max":722,"o":"m 686 72 q 722 36 722 72 q 686 0 722 0 l 165 0 q 129 36 129 0 l 129 858 q 165 894 129 894 l 686 894 q 722 858 722 894 q 686 822 722 822 l 201 822 l 201 489 l 522 489 q 558 453 558 489 q 522 417 558 417 l 201 417 l 201 72 l 686 72 m 536 1007 q 479 1021 501 1007 q 433 1058 457 1035 q 402 1085 414 1078 q 372 1092 390 1092 q 335 1079 349 1092 q 310 1033 322 1067 q 274 1010 301 1006 q 252 1019 260 1011 q 244 1040 244 1028 q 247 1053 244 1044 q 296 1133 267 1108 q 372 1158 325 1158 q 433 1144 410 1158 q 482 1104 457 1129 q 510 1080 500 1086 q 536 1074 521 1074 q 572 1087 558 1074 q 596 1131 586 1100 q 632 1154 606 1158 q 653 1144 646 1153 q 661 1124 661 1136 q 660 1113 661 1117 q 610 1033 640 1060 q 536 1007 581 1007 z "},"F":{"ha":703,"x_min":129,"x_max":703,"o":"m 165 0 q 129 36 129 0 l 129 858 q 165 894 129 894 l 667 894 q 703 858 703 894 q 667 822 703 822 l 201 822 l 201 489 l 519 489 q 556 453 556 489 q 519 417 556 417 l 201 417 l 201 36 q 165 0 201 0 z "},"G":{"ha":925,"x_min":111,"x_max":829,"o":"m 400 0 q 181 69 250 0 q 111 289 111 139 l 111 606 q 180 826 111 757 q 399 894 249 894 l 567 894 q 757 841 694 894 q 826 669 819 788 q 790 633 829 633 q 754 669 757 633 q 707 788 749 754 q 567 822 665 822 l 399 822 q 272 801 318 822 q 204 734 225 781 q 183 606 183 688 l 183 289 q 204 160 183 207 q 272 93 225 114 q 400 72 318 72 l 567 72 q 680 90 639 72 q 738 148 721 107 q 756 261 756 189 l 756 349 l 603 350 q 567 386 567 350 q 603 422 567 422 l 792 421 q 828 385 828 421 l 828 261 q 766 62 828 124 q 567 0 704 0 l 400 0 z "},"Ğ":{"ha":925,"x_min":111,"x_max":828,"o":"m 400 0 q 181 69 250 0 q 111 289 111 139 l 111 606 q 180 826 111 757 q 399 894 249 894 l 567 894 q 757 841 694 894 q 826 669 819 788 q 790 633 829 633 q 754 669 757 633 q 707 788 749 754 q 567 822 665 822 l 399 822 q 272 801 318 822 q 204 734 225 781 q 183 606 183 688 l 183 289 q 204 160 183 207 q 272 93 225 114 q 400 72 318 72 l 567 72 q 680 90 639 72 q 738 148 721 107 q 756 261 756 189 l 756 349 l 603 350 q 567 386 567 350 q 603 422 567 422 l 792 421 q 828 385 828 421 l 828 261 q 766 62 828 124 q 567 0 704 0 l 400 0 m 479 971 q 349 1012 393 971 q 304 1131 304 1053 l 304 1140 q 339 1175 304 1175 q 372 1140 372 1175 l 372 1131 q 397 1060 372 1082 q 479 1038 422 1038 q 560 1059 536 1038 q 585 1131 585 1081 l 585 1144 q 619 1175 585 1175 q 653 1140 653 1175 l 653 1131 q 608 1011 653 1051 q 479 971 564 971 z "},"Ǧ":{"ha":925,"x_min":111,"x_max":828,"o":"m 400 0 q 181 69 250 0 q 111 289 111 139 l 111 606 q 180 826 111 757 q 399 894 249 894 l 567 894 q 757 841 694 894 q 826 669 819 788 q 790 633 829 633 q 754 669 757 633 q 707 788 749 754 q 567 822 665 822 l 399 822 q 272 801 318 822 q 204 734 225 781 q 183 606 183 688 l 183 289 q 204 160 183 207 q 272 93 225 114 q 400 72 318 72 l 567 72 q 680 90 639 72 q 738 148 721 107 q 756 261 756 189 l 756 349 l 603 350 q 567 386 567 350 q 603 422 567 422 l 792 421 q 828 385 828 421 l 828 261 q 766 62 828 124 q 567 0 704 0 l 400 0 m 340 1182 q 367 1168 357 1182 l 468 1039 l 478 1039 l 578 1168 q 604 1182 588 1182 q 628 1172 618 1182 q 639 1147 639 1163 q 631 1126 639 1138 l 524 992 q 483 972 508 972 l 463 972 q 421 992 439 972 l 314 1126 q 307 1147 307 1136 q 317 1172 307 1161 q 340 1182 326 1182 z "},"Ĝ":{"ha":925,"x_min":111,"x_max":828,"o":"m 400 0 q 181 69 250 0 q 111 289 111 139 l 111 606 q 180 826 111 757 q 399 894 249 894 l 567 894 q 757 841 694 894 q 826 669 819 788 q 790 633 829 633 q 754 669 757 633 q 707 788 749 754 q 567 822 665 822 l 399 822 q 272 801 318 822 q 204 734 225 781 q 183 606 183 688 l 183 289 q 204 160 183 207 q 272 93 225 114 q 400 72 318 72 l 567 72 q 680 90 639 72 q 738 148 721 107 q 756 261 756 189 l 756 349 l 603 350 q 567 386 567 350 q 603 422 567 422 l 792 421 q 828 385 828 421 l 828 261 q 766 62 828 124 q 567 0 704 0 l 400 0 m 343 972 q 319 983 329 972 q 310 1007 310 993 q 317 1028 310 1018 l 424 1163 q 465 1182 442 1182 l 486 1182 q 526 1163 511 1182 l 633 1028 q 642 1007 642 1017 q 631 983 642 993 q 607 972 621 972 q 581 986 590 972 l 481 1115 l 471 1115 l 369 986 q 343 972 360 972 z "},"Ģ":{"ha":925,"x_min":111,"x_max":828,"o":"m 400 0 q 181 69 250 0 q 111 289 111 139 l 111 606 q 180 826 111 757 q 399 894 249 894 l 567 894 q 757 841 694 894 q 826 669 819 788 q 790 633 829 633 q 754 669 757 633 q 707 788 749 754 q 567 822 665 822 l 399 822 q 272 801 318 822 q 204 734 225 781 q 183 606 183 688 l 183 289 q 204 160 183 207 q 272 93 225 114 q 400 72 318 72 l 567 72 q 680 90 639 72 q 738 148 721 107 q 756 261 756 189 l 756 349 l 603 350 q 567 386 567 350 q 603 422 567 422 l 792 421 q 828 385 828 421 l 828 261 q 766 62 828 124 q 567 0 704 0 l 400 0 m 540 -125 q 535 -147 540 -140 l 483 -261 q 458 -281 474 -281 q 437 -273 444 -281 q 431 -251 429 -265 l 456 -108 l 456 -101 q 465 -76 456 -85 q 489 -67 474 -67 l 510 -67 q 540 -101 540 -67 l 540 -125 z "},"Ġ":{"ha":925,"x_min":111,"x_max":828,"o":"m 400 0 q 181 69 250 0 q 111 289 111 139 l 111 606 q 180 826 111 757 q 399 894 249 894 l 567 894 q 757 841 694 894 q 826 669 819 788 q 790 633 829 633 q 754 669 757 633 q 707 788 749 754 q 567 822 665 822 l 399 822 q 272 801 318 822 q 204 734 225 781 q 183 606 183 688 l 183 289 q 204 160 183 207 q 272 93 225 114 q 400 72 318 72 l 567 72 q 680 90 639 72 q 738 148 721 107 q 756 261 756 189 l 756 349 l 603 350 q 567 386 567 350 q 603 422 567 422 l 792 421 q 828 385 828 421 l 828 261 q 766 62 828 124 q 567 0 704 0 l 400 0 m 458 1021 q 422 1033 435 1021 q 410 1069 410 1046 l 410 1100 q 422 1136 410 1124 q 458 1149 435 1149 l 490 1149 q 536 1100 536 1149 l 536 1069 q 490 1021 536 1021 l 458 1021 z "},"H":{"ha":986,"x_min":129,"x_max":857,"o":"m 165 0 q 139 10 149 0 q 129 36 129 19 l 129 858 q 139 885 129 875 q 165 894 149 894 q 192 885 182 894 q 201 858 201 875 l 201 489 l 785 489 l 785 858 q 794 885 785 875 q 821 894 804 894 q 847 885 838 894 q 857 858 857 875 l 857 36 q 847 10 857 19 q 821 0 838 0 q 794 10 804 0 q 785 36 785 19 l 785 417 l 201 417 l 201 36 q 192 10 201 19 q 165 0 182 0 z "},"Ħ":{"ha":986,"x_min":68,"x_max":918,"o":"m 889 685 q 918 656 918 685 q 889 625 918 625 l 857 625 l 857 36 q 847 10 857 19 q 821 0 838 0 q 794 10 804 0 q 785 36 785 19 l 785 417 l 201 417 l 201 36 q 192 10 201 19 q 165 0 182 0 q 139 10 149 0 q 129 36 129 19 l 129 625 l 99 625 q 68 656 68 625 q 99 685 68 685 l 129 685 l 129 858 q 139 885 129 875 q 165 894 149 894 q 192 885 182 894 q 201 858 201 875 l 201 685 l 785 685 l 785 858 q 794 885 785 875 q 821 894 804 894 q 847 885 838 894 q 857 858 857 875 l 857 685 l 889 685 m 785 489 l 785 625 l 201 625 l 201 489 l 785 489 z "},"Ĥ":{"ha":986,"x_min":129,"x_max":857,"o":"m 165 0 q 139 10 149 0 q 129 36 129 19 l 129 858 q 139 885 129 875 q 165 894 149 894 q 192 885 182 894 q 201 858 201 875 l 201 489 l 785 489 l 785 858 q 794 885 785 875 q 821 894 804 894 q 847 885 838 894 q 857 858 857 875 l 857 36 q 847 10 857 19 q 821 0 838 0 q 794 10 804 0 q 785 36 785 19 l 785 417 l 201 417 l 201 36 q 192 10 201 19 q 165 0 182 0 m 363 972 q 339 983 349 972 q 329 1007 329 993 q 336 1028 329 1018 l 443 1163 q 485 1182 461 1182 l 506 1182 q 546 1163 531 1182 l 653 1028 q 661 1007 661 1017 q 651 983 661 993 q 626 972 640 972 q 600 986 610 972 l 500 1115 l 490 1115 l 389 986 q 363 972 379 972 z "},"I":{"ha":331,"x_min":129,"x_max":201,"o":"m 165 0 q 139 10 149 0 q 129 36 129 19 l 129 858 q 139 885 129 875 q 165 894 149 894 q 192 885 182 894 q 201 858 201 875 l 201 36 q 192 10 201 19 q 165 0 182 0 z "},"Í":{"ha":331,"x_min":115,"x_max":306,"o":"m 165 0 q 139 10 149 0 q 129 36 129 19 l 129 858 q 139 885 129 875 q 165 894 149 894 q 192 885 182 894 q 201 858 201 875 l 201 36 q 192 10 201 19 q 165 0 182 0 m 129 981 q 115 1006 115 993 q 124 1029 115 1017 l 243 1171 q 269 1185 256 1185 q 292 1175 282 1185 q 306 1150 306 1163 q 297 1126 306 1139 l 178 985 q 151 971 165 971 q 129 981 139 971 z "},"Ĭ":{"ha":331,"x_min":-4,"x_max":344,"o":"m 165 0 q 139 10 149 0 q 129 36 129 19 l 129 858 q 139 885 129 875 q 165 894 149 894 q 192 885 182 894 q 201 858 201 875 l 201 36 q 192 10 201 19 q 165 0 182 0 m 171 971 q 40 1012 85 971 q -4 1131 -4 1053 l -4 1140 q 31 1175 -4 1175 q 64 1140 64 1175 l 64 1131 q 89 1060 64 1082 q 171 1038 114 1038 q 252 1059 228 1038 q 276 1131 276 1081 l 276 1144 q 311 1175 276 1175 q 344 1140 344 1175 l 344 1131 q 300 1011 344 1051 q 171 971 256 971 z "},"Î":{"ha":331,"x_min":1,"x_max":333,"o":"m 165 0 q 139 10 149 0 q 129 36 129 19 l 129 858 q 139 885 129 875 q 165 894 149 894 q 192 885 182 894 q 201 858 201 875 l 201 36 q 192 10 201 19 q 165 0 182 0 m 35 972 q 11 983 21 972 q 1 1007 1 993 q 8 1028 1 1018 l 115 1163 q 157 1182 133 1182 l 178 1182 q 218 1163 203 1182 l 325 1028 q 333 1007 333 1017 q 323 983 333 993 q 299 972 313 972 q 272 986 282 972 l 172 1115 l 163 1115 l 61 986 q 35 972 51 972 z "},"Ȉ":{"ha":331,"x_min":-49,"x_max":276,"o":"m 110 997 q 90 989 100 989 q 67 1001 79 989 l -42 1128 q -49 1149 -49 1139 q -36 1172 -49 1163 q -17 1181 -25 1181 q 7 1168 -6 1181 l 115 1040 q 122 1021 122 1029 q 110 997 122 1008 m 264 997 q 244 989 254 989 q 221 1001 233 989 l 113 1128 q 106 1149 106 1139 q 118 1172 106 1163 q 138 1181 129 1181 q 161 1168 149 1181 l 269 1040 q 276 1021 276 1029 q 264 997 276 1008 m 165 0 q 139 10 149 0 q 129 36 129 19 l 129 858 q 139 885 129 875 q 165 894 149 894 q 192 885 182 894 q 201 858 201 875 l 201 36 q 192 10 201 19 q 165 0 182 0 z "},"Ï":{"ha":331,"x_min":10,"x_max":322,"o":"m 165 0 q 139 10 149 0 q 129 36 129 19 l 129 858 q 139 885 129 875 q 165 894 149 894 q 192 885 182 894 q 201 858 201 875 l 201 36 q 192 10 201 19 q 165 0 182 0 m 50 1013 q 20 1023 31 1013 q 10 1053 10 1033 l 10 1079 q 20 1109 10 1099 q 50 1119 31 1119 l 76 1119 q 115 1079 115 1119 l 115 1053 q 76 1013 115 1013 l 50 1013 m 257 1013 q 227 1023 238 1013 q 217 1053 217 1033 l 217 1079 q 227 1109 217 1099 q 257 1119 238 1119 l 283 1119 q 322 1079 322 1119 l 322 1053 q 283 1013 322 1013 l 257 1013 z "},"İ":{"ha":331,"x_min":101,"x_max":228,"o":"m 165 0 q 139 10 149 0 q 129 36 129 19 l 129 858 q 139 885 129 875 q 165 894 149 894 q 192 885 182 894 q 201 858 201 875 l 201 36 q 192 10 201 19 q 165 0 182 0 m 150 1021 q 114 1033 126 1021 q 101 1069 101 1046 l 101 1100 q 114 1136 101 1124 q 150 1149 126 1149 l 182 1149 q 228 1100 228 1149 l 228 1069 q 182 1021 228 1021 l 150 1021 z "},"Ị":{"ha":331,"x_min":113,"x_max":218,"o":"m 165 0 q 139 10 149 0 q 129 36 129 19 l 129 858 q 139 885 129 875 q 165 894 149 894 q 192 885 182 894 q 201 858 201 875 l 201 36 q 192 10 201 19 q 165 0 182 0 m 153 -211 q 123 -201 133 -211 q 113 -171 113 -190 l 113 -144 q 123 -115 113 -125 q 153 -104 133 -104 l 179 -104 q 218 -144 218 -104 l 218 -171 q 179 -211 218 -211 l 153 -211 z "},"Ì":{"ha":331,"x_min":33,"x_max":224,"o":"m 165 0 q 139 10 149 0 q 129 36 129 19 l 129 858 q 139 885 129 875 q 165 894 149 894 q 192 885 182 894 q 201 858 201 875 l 201 36 q 192 10 201 19 q 165 0 182 0 m 210 975 q 188 965 200 965 q 161 979 174 965 l 42 1121 q 33 1144 33 1133 q 47 1169 33 1157 q 69 1179 57 1179 q 96 1165 83 1179 l 215 1024 q 224 1000 224 1011 q 210 975 224 988 z "},"Ỉ":{"ha":331,"x_min":61,"x_max":296,"o":"m 165 0 q 139 10 149 0 q 129 36 129 19 l 129 858 q 139 885 129 875 q 165 894 149 894 q 192 885 182 894 q 201 858 201 875 l 201 36 q 192 10 201 19 q 165 0 182 0 m 165 972 q 133 1003 133 972 q 152 1063 133 1042 q 200 1103 171 1085 q 227 1122 221 1115 q 233 1142 233 1129 q 222 1185 233 1174 q 179 1197 211 1197 q 135 1185 147 1197 q 124 1142 124 1174 q 93 1110 124 1110 q 61 1142 61 1110 q 179 1260 61 1260 q 296 1142 296 1260 q 277 1085 296 1106 q 232 1049 258 1064 q 203 1025 210 1033 q 197 1003 197 1017 q 165 972 197 972 z "},"Ȋ":{"ha":331,"x_min":-8,"x_max":340,"o":"m 165 0 q 139 10 149 0 q 129 36 129 19 l 129 858 q 139 885 129 875 q 165 894 149 894 q 192 885 182 894 q 201 858 201 875 l 201 36 q 192 10 201 19 q 165 0 182 0 m 167 1194 q 296 1154 251 1194 q 340 1035 340 1114 l 340 1025 q 307 990 340 990 q 272 1021 272 990 l 272 1035 q 248 1106 272 1085 q 167 1128 224 1128 q 85 1106 110 1128 q 60 1035 60 1083 l 60 1025 q 26 990 60 990 q -8 1025 -8 990 l -8 1035 q 36 1153 -8 1113 q 167 1194 81 1194 z "},"Ī":{"ha":331,"x_min":29,"x_max":301,"o":"m 165 0 q 139 10 149 0 q 129 36 129 19 l 129 858 q 139 885 129 875 q 165 894 149 894 q 192 885 182 894 q 201 858 201 875 l 201 36 q 192 10 201 19 q 165 0 182 0 m 65 1050 q 29 1086 29 1050 q 65 1121 29 1121 l 265 1121 q 301 1086 301 1121 q 265 1050 301 1050 l 65 1050 z "},"Į":{"ha":331,"x_min":36,"x_max":300,"o":"m 267 -124 q 290 -133 281 -124 q 300 -158 300 -143 q 290 -182 300 -174 q 231 -224 264 -210 q 164 -239 197 -239 q 73 -206 110 -239 q 36 -125 36 -174 q 68 -40 36 -79 l 129 42 l 129 858 q 139 885 129 875 q 165 894 149 894 q 192 885 182 894 q 201 858 201 875 l 201 36 q 193 11 201 22 l 124 -82 q 104 -125 104 -106 q 121 -158 104 -144 q 164 -171 138 -171 q 242 -133 204 -171 q 267 -124 254 -124 z "},"Ĩ":{"ha":331,"x_min":-7,"x_max":339,"o":"m 165 0 q 139 10 149 0 q 129 36 129 19 l 129 858 q 139 885 129 875 q 165 894 149 894 q 192 885 182 894 q 201 858 201 875 l 201 36 q 192 10 201 19 q 165 0 182 0 m 232 1008 q 189 1021 207 1008 q 149 1057 171 1033 q 126 1080 136 1072 q 107 1088 117 1088 q 83 1077 92 1088 q 58 1033 74 1067 q 22 1010 47 1006 q 1 1020 8 1011 q -7 1040 -7 1029 q -4 1054 -7 1046 q 42 1129 18 1106 q 106 1153 67 1153 q 149 1140 131 1153 q 189 1104 167 1128 q 213 1081 204 1088 q 232 1074 222 1074 q 254 1085 246 1074 q 274 1125 263 1096 q 310 1149 283 1153 q 335 1134 328 1147 q 338 1106 342 1121 q 295 1033 322 1058 q 232 1008 268 1008 z "},"J":{"ha":726,"x_min":32,"x_max":611,"o":"m 294 0 q 104 53 167 0 q 33 224 42 106 q 42 251 32 242 q 69 261 51 261 q 106 225 103 261 q 153 106 111 139 q 294 72 196 72 l 350 72 q 463 90 422 72 q 522 148 504 107 q 539 261 539 189 l 539 858 q 575 894 539 894 q 611 858 611 894 l 611 261 q 549 62 611 124 q 350 0 488 0 l 294 0 z "},"Ĵ":{"ha":726,"x_min":33,"x_max":742,"o":"m 294 0 q 104 53 167 0 q 33 224 42 106 q 42 251 32 242 q 69 261 51 261 q 106 225 103 261 q 153 106 111 139 q 294 72 196 72 l 350 72 q 463 90 422 72 q 522 148 504 107 q 539 261 539 189 l 539 858 q 575 894 539 894 q 611 858 611 894 l 611 261 q 549 62 611 124 q 350 0 488 0 l 294 0 m 443 972 q 419 983 429 972 q 410 1007 410 993 q 417 1028 410 1018 l 524 1163 q 565 1182 542 1182 l 586 1182 q 626 1163 611 1182 l 733 1028 q 742 1007 742 1017 q 731 983 742 993 q 707 972 721 972 q 681 986 690 972 l 581 1115 l 571 1115 l 469 986 q 443 972 460 972 z "},"K":{"ha":764,"x_min":129,"x_max":732,"o":"m 722 57 q 732 33 732 46 q 717 6 732 18 q 693 -4 706 -4 q 667 11 679 -4 l 306 460 l 201 353 l 201 36 q 165 0 201 0 q 129 36 129 0 l 129 858 q 165 894 129 894 q 201 858 201 894 l 201 457 l 615 882 q 640 894 628 894 q 665 882 653 894 q 678 856 678 869 q 667 831 678 844 l 356 511 l 722 57 z "},"Ķ":{"ha":764,"x_min":129,"x_max":732,"o":"m 722 57 q 732 33 732 46 q 717 6 732 18 q 693 -4 706 -4 q 667 11 679 -4 l 306 460 l 201 353 l 201 36 q 165 0 201 0 q 129 36 129 0 l 129 858 q 165 894 129 894 q 201 858 201 894 l 201 457 l 615 882 q 640 894 628 894 q 665 882 653 894 q 678 856 678 869 q 667 831 678 844 l 356 511 l 722 57 m 451 -125 q 446 -147 451 -140 l 394 -261 q 369 -281 385 -281 q 348 -273 356 -281 q 342 -251 340 -265 l 367 -108 l 367 -101 q 376 -76 367 -85 q 400 -67 385 -67 l 421 -67 q 451 -101 451 -67 l 451 -125 z "},"L":{"ha":693,"x_min":129,"x_max":661,"o":"m 165 0 q 129 36 129 0 l 129 858 q 165 894 129 894 q 201 858 201 894 l 201 72 l 625 72 q 661 36 661 72 q 625 0 661 0 l 165 0 z "},"Ǉ":{"ha":1419,"x_min":129,"x_max":1304,"o":"m 165 0 q 129 36 129 0 l 129 858 q 165 894 129 894 q 201 858 201 894 l 201 72 l 625 72 q 661 36 661 72 q 625 0 661 0 l 165 0 m 988 0 q 797 53 860 0 q 726 224 735 106 q 735 251 725 242 q 763 261 744 261 q 799 225 796 261 q 847 106 804 139 q 988 72 889 72 l 1043 72 q 1156 90 1115 72 q 1215 148 1197 107 q 1232 261 1232 189 l 1232 858 q 1268 894 1232 894 q 1304 858 1304 894 l 1304 261 q 1242 62 1304 124 q 1043 0 1181 0 l 988 0 z "},"Ĺ":{"ha":693,"x_min":115,"x_max":661,"o":"m 165 0 q 129 36 129 0 l 129 858 q 165 894 129 894 q 201 858 201 894 l 201 72 l 625 72 q 661 36 661 72 q 625 0 661 0 l 165 0 m 129 981 q 115 1006 115 993 q 124 1029 115 1017 l 243 1171 q 269 1185 256 1185 q 292 1175 282 1185 q 306 1150 306 1163 q 297 1126 306 1139 l 178 985 q 151 971 165 971 q 129 981 139 971 z "},"Ľ":{"ha":693,"x_min":129,"x_max":661,"o":"m 165 0 q 129 36 129 0 l 129 858 q 165 894 129 894 q 201 858 201 894 l 201 72 l 625 72 q 661 36 661 72 q 625 0 661 0 l 165 0 m 461 844 q 454 821 461 831 l 406 711 q 381 692 396 692 q 360 699 368 692 q 354 721 353 707 l 378 860 l 378 867 q 410 900 378 900 l 431 900 q 461 867 461 900 l 461 844 z "},"Ļ":{"ha":693,"x_min":129,"x_max":661,"o":"m 165 0 q 129 36 129 0 l 129 858 q 165 894 129 894 q 201 858 201 894 l 201 72 l 625 72 q 661 36 661 72 q 625 0 661 0 l 165 0 m 461 -125 q 456 -147 461 -140 l 404 -261 q 379 -281 394 -281 q 358 -273 365 -281 q 351 -251 350 -265 l 376 -108 l 376 -101 q 385 -76 376 -85 q 410 -67 394 -67 l 431 -67 q 461 -101 461 -67 l 461 -125 z "},"Ŀ":{"ha":693,"x_min":129,"x_max":661,"o":"m 165 0 q 129 36 129 0 l 129 858 q 165 894 129 894 q 201 858 201 894 l 201 72 l 625 72 q 661 36 661 72 q 625 0 661 0 l 165 0 m 461 425 q 431 435 442 425 q 421 465 421 446 l 421 492 q 431 522 421 511 q 461 532 442 532 l 488 532 q 526 492 526 532 l 526 465 q 488 425 526 425 l 461 425 z "},"ǈ":{"ha":950,"x_min":129,"x_max":847,"o":"m 165 0 q 129 36 129 0 l 129 858 q 165 894 129 894 q 201 858 201 894 l 201 72 l 625 72 q 661 36 661 72 q 625 0 661 0 l 165 0 m 594 -242 q 605 -215 594 -225 q 632 -206 615 -206 q 724 -181 699 -206 q 749 -89 749 -156 l 749 619 q 785 656 749 656 q 821 619 821 656 l 821 -89 q 775 -232 821 -186 q 632 -278 729 -278 q 605 -268 615 -278 q 594 -242 594 -258 m 769 782 q 733 794 746 782 q 721 831 721 807 l 721 861 q 733 897 721 885 q 769 910 746 910 l 801 910 q 847 861 847 910 l 847 831 q 801 782 847 782 l 769 782 z "},"Ł":{"ha":693,"x_min":4,"x_max":661,"o":"m 625 72 q 661 36 661 72 q 625 0 661 0 l 165 0 q 129 36 129 0 l 129 344 l 63 293 q 40 285 50 285 q 13 300 25 285 q 4 322 4 313 q 19 349 4 336 l 129 432 l 129 858 q 165 894 129 894 q 201 858 201 894 l 201 488 l 363 610 q 385 618 375 618 q 411 603 399 618 q 421 581 421 593 q 404 554 421 567 l 201 399 l 201 72 l 625 72 z "},"M":{"ha":1088,"x_min":129,"x_max":958,"o":"m 926 894 q 958 858 958 894 l 958 36 q 922 0 958 0 q 886 36 886 0 l 886 744 l 586 289 q 543 265 572 265 q 503 289 518 265 l 201 749 l 201 36 q 165 0 201 0 q 129 36 129 0 l 129 858 q 165 894 129 894 q 207 871 193 894 l 546 353 l 883 871 q 926 894 897 894 z "},"N":{"ha":976,"x_min":129,"x_max":847,"o":"m 811 894 q 847 858 847 894 l 847 36 q 811 0 847 0 q 775 21 792 0 l 201 758 l 201 36 q 165 0 201 0 q 129 36 129 0 l 129 858 q 165 894 129 894 q 203 874 186 894 l 775 138 l 775 858 q 811 894 775 894 z "},"Ǌ":{"ha":1703,"x_min":129,"x_max":1588,"o":"m 811 894 q 847 858 847 894 l 847 36 q 811 0 847 0 q 775 21 792 0 l 201 758 l 201 36 q 165 0 201 0 q 129 36 129 0 l 129 858 q 165 894 129 894 q 203 874 186 894 l 775 138 l 775 858 q 811 894 775 894 m 1271 0 q 1081 53 1143 0 q 1010 224 1018 106 q 1018 251 1008 242 q 1046 261 1028 261 q 1082 225 1079 261 q 1130 106 1088 139 q 1271 72 1172 72 l 1326 72 q 1440 90 1399 72 q 1498 148 1481 107 q 1515 261 1515 189 l 1515 858 q 1551 894 1515 894 q 1588 858 1588 894 l 1588 261 q 1526 62 1588 124 q 1326 0 1464 0 l 1271 0 z "},"Ń":{"ha":976,"x_min":129,"x_max":847,"o":"m 811 894 q 847 858 847 894 l 847 36 q 811 0 847 0 q 775 21 792 0 l 201 758 l 201 36 q 165 0 201 0 q 129 36 129 0 l 129 858 q 165 894 129 894 q 203 874 186 894 l 775 138 l 775 858 q 811 894 775 894 m 461 981 q 447 1006 447 993 q 456 1029 447 1017 l 575 1171 q 601 1185 588 1185 q 624 1175 614 1185 q 638 1150 638 1163 q 629 1126 638 1139 l 510 985 q 483 971 497 971 q 461 981 471 971 z "},"Ň":{"ha":976,"x_min":129,"x_max":847,"o":"m 811 894 q 847 858 847 894 l 847 36 q 811 0 847 0 q 775 21 792 0 l 201 758 l 201 36 q 165 0 201 0 q 129 36 129 0 l 129 858 q 165 894 129 894 q 203 874 186 894 l 775 138 l 775 858 q 811 894 775 894 m 357 1181 q 381 1171 371 1181 l 518 1057 l 532 1057 l 669 1171 q 693 1181 679 1181 q 717 1171 707 1181 q 728 1146 728 1161 q 714 1118 728 1129 l 576 1003 q 533 988 557 988 l 517 988 q 474 1003 493 988 l 336 1118 q 322 1146 322 1129 q 332 1171 322 1161 q 357 1181 342 1181 z "},"Ņ":{"ha":976,"x_min":129,"x_max":847,"o":"m 811 894 q 847 858 847 894 l 847 36 q 811 0 847 0 q 775 21 792 0 l 201 758 l 201 36 q 165 0 201 0 q 129 36 129 0 l 129 858 q 165 894 129 894 q 203 874 186 894 l 775 138 l 775 858 q 811 894 775 894 m 563 -125 q 557 -147 563 -140 l 506 -261 q 481 -281 496 -281 q 459 -273 467 -281 q 453 -251 451 -265 l 478 -108 l 478 -101 q 487 -76 478 -85 q 511 -67 496 -67 l 532 -67 q 563 -101 563 -67 l 563 -125 z "},"Ŋ":{"ha":976,"x_min":129,"x_max":847,"o":"m 811 894 q 847 858 847 894 l 847 -100 q 804 -235 847 -192 q 669 -278 761 -278 l 515 -278 q 390 -244 432 -278 q 340 -137 347 -210 q 348 -110 339 -119 q 375 -100 357 -100 q 413 -136 406 -100 q 440 -190 417 -175 q 515 -206 464 -206 l 669 -206 q 753 -183 731 -206 q 775 -100 775 -161 l 775 21 l 201 758 l 201 36 q 165 0 201 0 q 129 36 129 0 l 129 858 q 165 894 129 894 q 203 874 186 894 l 775 138 l 775 858 q 811 894 775 894 z "},"ǋ":{"ha":1307,"x_min":129,"x_max":1204,"o":"m 811 894 q 847 858 847 894 l 847 36 q 811 0 847 0 q 775 21 792 0 l 201 758 l 201 36 q 165 0 201 0 q 129 36 129 0 l 129 858 q 165 894 129 894 q 203 874 186 894 l 775 138 l 775 858 q 811 894 775 894 m 951 -242 q 962 -215 951 -225 q 989 -206 972 -206 q 1081 -181 1056 -206 q 1106 -89 1106 -156 l 1106 619 q 1142 656 1106 656 q 1178 619 1178 656 l 1178 -89 q 1132 -232 1178 -186 q 989 -278 1086 -278 q 962 -268 972 -278 q 951 -242 951 -258 m 1126 782 q 1090 794 1103 782 q 1078 831 1078 807 l 1078 861 q 1090 897 1078 885 q 1126 910 1103 910 l 1158 910 q 1204 861 1204 910 l 1204 831 q 1158 782 1204 782 l 1126 782 z "},"Ñ":{"ha":976,"x_min":129,"x_max":847,"o":"m 811 894 q 847 858 847 894 l 847 36 q 811 0 847 0 q 775 21 792 0 l 201 758 l 201 36 q 165 0 201 0 q 129 36 129 0 l 129 858 q 165 894 129 894 q 203 874 186 894 l 775 138 l 775 858 q 811 894 775 894 m 583 1007 q 526 1021 549 1007 q 481 1058 504 1035 q 449 1085 461 1078 q 419 1092 438 1092 q 383 1079 396 1092 q 357 1033 369 1067 q 321 1010 349 1006 q 299 1019 307 1011 q 292 1040 292 1028 q 294 1053 292 1044 q 343 1133 314 1108 q 419 1158 372 1158 q 481 1144 457 1158 q 529 1104 504 1129 q 558 1080 547 1086 q 583 1074 568 1074 q 619 1087 606 1074 q 643 1131 633 1100 q 679 1154 653 1158 q 701 1144 693 1153 q 708 1124 708 1136 q 707 1113 708 1117 q 658 1033 688 1060 q 583 1007 628 1007 z "},"O":{"ha":967,"x_min":111,"x_max":856,"o":"m 400 0 q 180 69 249 0 q 111 289 111 138 l 111 606 q 181 826 111 757 q 399 894 250 896 l 567 894 q 787 825 718 894 q 856 606 856 756 l 856 289 q 787 69 856 138 q 567 0 718 0 l 400 0 m 567 72 q 735 121 686 72 q 783 289 783 169 l 783 606 q 735 774 783 725 q 567 822 686 822 l 399 822 q 272 803 318 824 q 204 735 225 782 q 183 606 183 688 l 183 289 q 232 121 183 169 q 400 72 281 72 l 567 72 z "},"Ó":{"ha":967,"x_min":111,"x_max":856,"o":"m 400 0 q 180 69 249 0 q 111 289 111 138 l 111 606 q 181 826 111 757 q 399 894 250 896 l 567 894 q 787 825 718 894 q 856 606 856 756 l 856 289 q 787 69 856 138 q 567 0 718 0 l 400 0 m 567 72 q 735 121 686 72 q 783 289 783 169 l 783 606 q 735 774 783 725 q 567 822 686 822 l 399 822 q 272 803 318 824 q 204 735 225 782 q 183 606 183 688 l 183 289 q 232 121 183 169 q 400 72 281 72 l 567 72 m 447 981 q 433 1006 433 993 q 442 1029 433 1017 l 561 1171 q 588 1185 574 1185 q 610 1175 600 1185 q 624 1150 624 1163 q 615 1126 624 1139 l 496 985 q 469 971 483 971 q 447 981 457 971 z "},"Ŏ":{"ha":967,"x_min":111,"x_max":856,"o":"m 400 0 q 180 69 249 0 q 111 289 111 138 l 111 606 q 181 826 111 757 q 399 894 250 896 l 567 894 q 787 825 718 894 q 856 606 856 756 l 856 289 q 787 69 856 138 q 567 0 718 0 l 400 0 m 567 72 q 735 121 686 72 q 783 289 783 169 l 783 606 q 735 774 783 725 q 567 822 686 822 l 399 822 q 272 803 318 824 q 204 735 225 782 q 183 606 183 688 l 183 289 q 232 121 183 169 q 400 72 281 72 l 567 72 m 489 971 q 358 1012 403 971 q 314 1131 314 1053 l 314 1140 q 349 1175 314 1175 q 382 1140 382 1175 l 382 1131 q 407 1060 382 1082 q 489 1038 432 1038 q 570 1059 546 1038 q 594 1131 594 1081 l 594 1144 q 629 1175 594 1175 q 663 1140 663 1175 l 663 1131 q 618 1011 663 1051 q 489 971 574 971 z "},"Ô":{"ha":967,"x_min":111,"x_max":856,"o":"m 400 0 q 180 69 249 0 q 111 289 111 138 l 111 606 q 181 826 111 757 q 399 894 250 896 l 567 894 q 787 825 718 894 q 856 606 856 756 l 856 289 q 787 69 856 138 q 567 0 718 0 l 400 0 m 567 72 q 735 121 686 72 q 783 289 783 169 l 783 606 q 735 774 783 725 q 567 822 686 822 l 399 822 q 272 803 318 824 q 204 735 225 782 q 183 606 183 688 l 183 289 q 232 121 183 169 q 400 72 281 72 l 567 72 m 313 976 q 288 987 297 976 q 278 1011 278 997 q 292 1039 278 1028 l 429 1154 q 472 1169 449 1169 l 489 1169 q 532 1154 513 1169 l 669 1039 q 683 1011 683 1028 q 673 987 683 997 q 649 976 663 976 q 625 986 635 976 l 488 1100 l 474 1100 l 336 986 q 313 976 326 976 z "},"Ố":{"ha":967,"x_min":111,"x_max":856,"o":"m 400 0 q 180 69 249 0 q 111 289 111 138 l 111 606 q 181 826 111 757 q 399 894 250 896 l 567 894 q 787 825 718 894 q 856 606 856 756 l 856 289 q 787 69 856 138 q 567 0 718 0 l 400 0 m 567 72 q 735 121 686 72 q 783 289 783 169 l 783 606 q 735 774 783 725 q 567 822 686 822 l 399 822 q 272 803 318 824 q 204 735 225 782 q 183 606 183 688 l 183 289 q 232 121 183 169 q 400 72 281 72 l 567 72 m 625 1115 q 600 1126 611 1115 q 589 1150 589 1136 q 599 1174 589 1161 l 686 1276 q 713 1290 699 1290 q 738 1280 726 1290 q 749 1256 749 1269 q 739 1232 749 1244 l 651 1128 q 625 1115 640 1115 m 318 976 q 293 987 303 976 q 283 1011 283 997 q 297 1039 283 1028 l 435 1154 q 478 1169 454 1169 l 494 1169 q 538 1154 518 1169 l 675 1039 q 689 1011 689 1028 q 678 987 689 997 q 654 976 668 976 q 631 986 640 976 l 493 1100 l 479 1100 l 342 986 q 318 976 332 976 z "},"Ộ":{"ha":967,"x_min":111,"x_max":856,"o":"m 400 0 q 180 69 249 0 q 111 289 111 138 l 111 606 q 181 826 111 757 q 399 894 250 896 l 567 894 q 787 825 718 894 q 856 606 856 756 l 856 289 q 787 69 856 138 q 567 0 718 0 l 400 0 m 567 72 q 735 121 686 72 q 783 289 783 169 l 783 606 q 735 774 783 725 q 567 822 686 822 l 399 822 q 272 803 318 824 q 204 735 225 782 q 183 606 183 688 l 183 289 q 232 121 183 169 q 400 72 281 72 l 567 72 m 467 -211 q 437 -201 447 -211 q 426 -171 426 -190 l 426 -144 q 437 -115 426 -125 q 467 -104 447 -104 l 493 -104 q 532 -144 532 -104 l 532 -171 q 493 -211 532 -211 l 467 -211 m 313 976 q 288 987 297 976 q 278 1011 278 997 q 292 1039 278 1028 l 429 1154 q 472 1169 449 1169 l 489 1169 q 532 1154 513 1169 l 669 1039 q 683 1011 683 1028 q 673 987 683 997 q 649 976 663 976 q 625 986 635 976 l 488 1100 l 474 1100 l 336 986 q 313 976 326 976 z "},"Ồ":{"ha":967,"x_min":111,"x_max":856,"o":"m 400 0 q 180 69 249 0 q 111 289 111 138 l 111 606 q 181 826 111 757 q 399 894 250 896 l 567 894 q 787 825 718 894 q 856 606 856 756 l 856 289 q 787 69 856 138 q 567 0 718 0 l 400 0 m 567 72 q 735 121 686 72 q 783 289 783 169 l 783 606 q 735 774 783 725 q 567 822 686 822 l 399 822 q 272 803 318 824 q 204 735 225 782 q 183 606 183 688 l 183 289 q 232 121 183 169 q 400 72 281 72 l 567 72 m 307 1115 q 281 1128 290 1115 l 193 1232 q 183 1256 183 1242 q 194 1280 183 1269 q 219 1290 206 1290 q 246 1276 233 1290 l 333 1174 q 343 1150 343 1161 q 332 1126 343 1136 q 307 1115 321 1115 m 315 976 q 290 987 300 976 q 281 1011 281 997 q 294 1039 281 1028 l 432 1154 q 475 1169 451 1169 l 492 1169 q 535 1154 515 1169 l 672 1039 q 686 1011 686 1028 q 676 987 686 997 q 651 976 665 976 q 628 986 638 976 l 490 1100 l 476 1100 l 339 986 q 315 976 329 976 z "},"Ổ":{"ha":967,"x_min":111,"x_max":856,"o":"m 400 0 q 180 69 249 0 q 111 289 111 138 l 111 606 q 181 826 111 757 q 399 894 250 896 l 567 894 q 787 825 718 894 q 856 606 856 756 l 856 289 q 787 69 856 138 q 567 0 718 0 l 400 0 m 567 72 q 735 121 686 72 q 783 289 783 169 l 783 606 q 735 774 783 725 q 567 822 686 822 l 399 822 q 272 803 318 824 q 204 735 225 782 q 183 606 183 688 l 183 289 q 232 121 183 169 q 400 72 281 72 l 567 72 m 314 976 q 289 987 299 976 q 279 1011 279 997 q 293 1039 279 1028 l 431 1154 q 474 1169 450 1169 l 490 1169 q 533 1154 514 1169 l 671 1039 q 685 1011 685 1028 q 674 987 685 997 q 650 976 664 976 q 626 986 636 976 l 489 1100 l 475 1100 l 338 986 q 314 976 328 976 m 610 1125 q 578 1156 578 1125 q 597 1216 578 1194 q 644 1256 615 1238 q 672 1275 665 1268 q 678 1294 678 1282 q 667 1338 678 1326 q 624 1350 656 1350 q 580 1338 592 1350 q 568 1294 568 1326 q 538 1263 568 1263 q 506 1294 506 1263 q 624 1413 506 1413 q 740 1294 740 1413 q 722 1238 740 1258 q 676 1201 703 1217 q 648 1178 654 1186 q 642 1156 642 1169 q 610 1125 642 1125 z "},"Ỗ":{"ha":967,"x_min":111,"x_max":856,"o":"m 400 0 q 180 69 249 0 q 111 289 111 138 l 111 606 q 181 826 111 757 q 399 894 250 896 l 567 894 q 787 825 718 894 q 856 606 856 756 l 856 289 q 787 69 856 138 q 567 0 718 0 l 400 0 m 567 72 q 735 121 686 72 q 783 289 783 169 l 783 606 q 735 774 783 725 q 567 822 686 822 l 399 822 q 272 803 318 824 q 204 735 225 782 q 183 606 183 688 l 183 289 q 232 121 183 169 q 400 72 281 72 l 567 72 m 315 976 q 290 987 300 976 q 281 1011 281 997 q 294 1039 281 1028 l 432 1154 q 475 1169 451 1169 l 492 1169 q 535 1154 515 1169 l 672 1039 q 686 1011 686 1028 q 676 987 686 997 q 651 976 665 976 q 628 986 638 976 l 490 1100 l 476 1100 l 339 986 q 315 976 329 976 m 571 1208 q 514 1222 536 1208 q 468 1260 492 1236 q 437 1286 449 1279 q 407 1293 425 1293 q 370 1281 383 1293 q 344 1235 357 1268 q 308 1211 336 1207 q 287 1221 294 1213 q 279 1242 279 1229 q 282 1254 279 1246 q 331 1335 301 1310 q 407 1360 360 1360 q 468 1345 444 1360 q 517 1306 492 1331 q 545 1281 535 1288 q 571 1275 556 1275 q 607 1288 593 1275 q 631 1332 621 1301 q 667 1356 640 1360 q 688 1346 681 1354 q 696 1325 696 1338 q 694 1314 696 1318 q 645 1235 675 1261 q 571 1208 615 1208 z "},"Ȍ":{"ha":967,"x_min":111,"x_max":856,"o":"m 428 997 q 408 989 417 989 q 385 1001 397 989 l 276 1128 q 269 1149 269 1139 q 282 1172 269 1163 q 301 1181 292 1181 q 325 1168 313 1181 l 433 1040 q 440 1021 440 1029 q 428 997 440 1008 m 582 997 q 563 989 572 989 q 539 1001 551 989 l 431 1128 q 424 1149 424 1139 q 436 1172 424 1163 q 456 1181 447 1181 q 479 1168 467 1181 l 588 1040 q 594 1021 594 1029 q 582 997 594 1008 m 400 0 q 180 69 249 0 q 111 289 111 138 l 111 606 q 181 826 111 757 q 399 894 250 896 l 567 894 q 787 825 718 894 q 856 606 856 756 l 856 289 q 787 69 856 138 q 567 0 718 0 l 400 0 m 567 72 q 735 121 686 72 q 783 289 783 169 l 783 606 q 735 774 783 725 q 567 822 686 822 l 399 822 q 272 803 318 824 q 204 735 225 782 q 183 606 183 688 l 183 289 q 232 121 183 169 q 400 72 281 72 l 567 72 z "},"Ö":{"ha":967,"x_min":111,"x_max":856,"o":"m 400 0 q 180 69 249 0 q 111 289 111 138 l 111 606 q 181 826 111 757 q 399 894 250 896 l 567 894 q 787 825 718 894 q 856 606 856 756 l 856 289 q 787 69 856 138 q 567 0 718 0 l 400 0 m 567 72 q 735 121 686 72 q 783 289 783 169 l 783 606 q 735 774 783 725 q 567 822 686 822 l 399 822 q 272 803 318 824 q 204 735 225 782 q 183 606 183 688 l 183 289 q 232 121 183 169 q 400 72 281 72 l 567 72 m 368 1013 q 338 1023 349 1013 q 328 1053 328 1033 l 328 1079 q 338 1109 328 1099 q 368 1119 349 1119 l 394 1119 q 433 1079 433 1119 l 433 1053 q 394 1013 433 1013 l 368 1013 m 575 1013 q 545 1023 556 1013 q 535 1053 535 1033 l 535 1079 q 545 1109 535 1099 q 575 1119 556 1119 l 601 1119 q 640 1079 640 1119 l 640 1053 q 601 1013 640 1013 l 575 1013 z "},"Ȫ":{"ha":967,"x_min":111,"x_max":856,"o":"m 400 0 q 180 69 249 0 q 111 289 111 138 l 111 606 q 181 826 111 757 q 399 894 250 896 l 567 894 q 787 825 718 894 q 856 606 856 756 l 856 289 q 787 69 856 138 q 567 0 718 0 l 400 0 m 567 72 q 735 121 686 72 q 783 289 783 169 l 783 606 q 735 774 783 725 q 567 822 686 822 l 399 822 q 272 803 318 824 q 204 735 225 782 q 183 606 183 688 l 183 289 q 232 121 183 169 q 400 72 281 72 l 567 72 m 368 1013 q 338 1023 349 1013 q 328 1053 328 1033 l 328 1079 q 338 1109 328 1099 q 368 1119 349 1119 l 394 1119 q 433 1079 433 1119 l 433 1053 q 394 1013 433 1013 l 368 1013 m 575 1013 q 545 1023 556 1013 q 535 1053 535 1033 l 535 1079 q 545 1109 535 1099 q 575 1119 556 1119 l 601 1119 q 640 1079 640 1119 l 640 1053 q 601 1013 640 1013 l 575 1013 m 307 1250 q 271 1286 271 1250 q 307 1322 271 1322 l 658 1322 q 694 1286 694 1322 q 658 1250 694 1250 l 307 1250 z "},"Ȱ":{"ha":967,"x_min":111,"x_max":856,"o":"m 400 0 q 180 69 249 0 q 111 289 111 138 l 111 606 q 181 826 111 757 q 399 894 250 896 l 567 894 q 787 825 718 894 q 856 606 856 756 l 856 289 q 787 69 856 138 q 567 0 718 0 l 400 0 m 567 72 q 735 121 686 72 q 783 289 783 169 l 783 606 q 735 774 783 725 q 567 822 686 822 l 399 822 q 272 803 318 824 q 204 735 225 782 q 183 606 183 688 l 183 289 q 232 121 183 169 q 400 72 281 72 l 567 72 m 468 1021 q 432 1033 444 1021 q 419 1069 419 1046 l 419 1100 q 432 1136 419 1124 q 468 1149 444 1149 l 500 1149 q 546 1100 546 1149 l 546 1069 q 500 1021 546 1021 l 468 1021 m 307 1282 q 271 1318 271 1282 q 307 1354 271 1354 l 658 1354 q 694 1318 694 1354 q 658 1282 694 1282 l 307 1282 z "},"Ọ":{"ha":967,"x_min":111,"x_max":856,"o":"m 400 0 q 180 69 249 0 q 111 289 111 138 l 111 606 q 181 826 111 757 q 399 894 250 896 l 567 894 q 787 825 718 894 q 856 606 856 756 l 856 289 q 787 69 856 138 q 567 0 718 0 l 400 0 m 567 72 q 735 121 686 72 q 783 289 783 169 l 783 606 q 735 774 783 725 q 567 822 686 822 l 399 822 q 272 803 318 824 q 204 735 225 782 q 183 606 183 688 l 183 289 q 232 121 183 169 q 400 72 281 72 l 567 72 m 467 -211 q 437 -201 447 -211 q 426 -171 426 -190 l 426 -144 q 437 -115 426 -125 q 467 -104 447 -104 l 493 -104 q 532 -144 532 -104 l 532 -171 q 493 -211 532 -211 l 467 -211 z "},"Ò":{"ha":967,"x_min":111,"x_max":856,"o":"m 400 0 q 180 69 249 0 q 111 289 111 138 l 111 606 q 181 826 111 757 q 399 894 250 896 l 567 894 q 787 825 718 894 q 856 606 856 756 l 856 289 q 787 69 856 138 q 567 0 718 0 l 400 0 m 567 72 q 735 121 686 72 q 783 289 783 169 l 783 606 q 735 774 783 725 q 567 822 686 822 l 399 822 q 272 803 318 824 q 204 735 225 782 q 183 606 183 688 l 183 289 q 232 121 183 169 q 400 72 281 72 l 567 72 m 528 975 q 506 965 518 965 q 479 979 492 965 l 360 1121 q 351 1144 351 1133 q 365 1169 351 1157 q 388 1179 375 1179 q 414 1165 401 1179 l 533 1024 q 542 1000 542 1011 q 528 975 542 988 z "},"Ỏ":{"ha":967,"x_min":111,"x_max":856,"o":"m 400 0 q 180 69 249 0 q 111 289 111 138 l 111 606 q 181 826 111 757 q 399 894 250 896 l 567 894 q 787 825 718 894 q 856 606 856 756 l 856 289 q 787 69 856 138 q 567 0 718 0 l 400 0 m 567 72 q 735 121 686 72 q 783 289 783 169 l 783 606 q 735 774 783 725 q 567 822 686 822 l 399 822 q 272 803 318 824 q 204 735 225 782 q 183 606 183 688 l 183 289 q 232 121 183 169 q 400 72 281 72 l 567 72 m 483 972 q 451 1003 451 972 q 470 1063 451 1042 q 518 1103 489 1085 q 545 1122 539 1115 q 551 1142 551 1129 q 540 1185 551 1174 q 497 1197 529 1197 q 453 1185 465 1197 q 442 1142 442 1174 q 411 1110 442 1110 q 379 1142 379 1110 q 497 1260 379 1260 q 614 1142 614 1260 q 595 1085 614 1106 q 550 1049 576 1064 q 522 1025 528 1033 q 515 1003 515 1017 q 483 972 515 972 z "},"Ơ":{"ha":967,"x_min":111,"x_max":910,"o":"m 875 969 q 910 933 910 969 l 910 906 q 818 783 910 807 q 856 606 856 717 l 856 289 q 787 69 856 138 q 567 0 718 0 l 400 0 q 180 69 249 0 q 111 289 111 138 l 111 606 q 181 826 111 757 q 399 894 250 896 l 567 894 q 767 842 700 894 q 824 858 808 844 q 840 906 840 871 l 840 938 q 875 969 840 969 m 783 606 q 735 774 783 725 q 567 822 686 822 l 399 822 q 272 803 318 824 q 204 735 225 782 q 183 606 183 688 l 183 289 q 232 121 183 169 q 400 72 281 72 l 567 72 q 735 121 686 72 q 783 289 783 169 l 783 606 z "},"Ớ":{"ha":967,"x_min":111,"x_max":910,"o":"m 875 969 q 910 933 910 969 l 910 906 q 818 783 910 807 q 856 606 856 717 l 856 289 q 787 69 856 138 q 567 0 718 0 l 400 0 q 180 69 249 0 q 111 289 111 138 l 111 606 q 181 826 111 757 q 399 894 250 896 l 567 894 q 767 842 700 894 q 824 858 808 844 q 840 906 840 871 l 840 938 q 875 969 840 969 m 783 606 q 735 774 783 725 q 567 822 686 822 l 399 822 q 272 803 318 824 q 204 735 225 782 q 183 606 183 688 l 183 289 q 232 121 183 169 q 400 72 281 72 l 567 72 q 735 121 686 72 q 783 289 783 169 l 783 606 m 447 981 q 433 1006 433 993 q 442 1029 433 1017 l 561 1171 q 588 1185 574 1185 q 610 1175 600 1185 q 624 1150 624 1163 q 615 1126 624 1139 l 496 985 q 469 971 483 971 q 447 981 457 971 z "},"Ợ":{"ha":967,"x_min":111,"x_max":910,"o":"m 875 969 q 910 933 910 969 l 910 906 q 818 783 910 807 q 856 606 856 717 l 856 289 q 787 69 856 138 q 567 0 718 0 l 400 0 q 180 69 249 0 q 111 289 111 138 l 111 606 q 181 826 111 757 q 399 894 250 896 l 567 894 q 767 842 700 894 q 824 858 808 844 q 840 906 840 871 l 840 938 q 875 969 840 969 m 783 606 q 735 774 783 725 q 567 822 686 822 l 399 822 q 272 803 318 824 q 204 735 225 782 q 183 606 183 688 l 183 289 q 232 121 183 169 q 400 72 281 72 l 567 72 q 735 121 686 72 q 783 289 783 169 l 783 606 m 467 -211 q 437 -201 447 -211 q 426 -171 426 -190 l 426 -144 q 437 -115 426 -125 q 467 -104 447 -104 l 493 -104 q 532 -144 532 -104 l 532 -171 q 493 -211 532 -211 l 467 -211 z "},"Ờ":{"ha":967,"x_min":111,"x_max":910,"o":"m 875 969 q 910 933 910 969 l 910 906 q 818 783 910 807 q 856 606 856 717 l 856 289 q 787 69 856 138 q 567 0 718 0 l 400 0 q 180 69 249 0 q 111 289 111 138 l 111 606 q 181 826 111 757 q 399 894 250 896 l 567 894 q 767 842 700 894 q 824 858 808 844 q 840 906 840 871 l 840 938 q 875 969 840 969 m 783 606 q 735 774 783 725 q 567 822 686 822 l 399 822 q 272 803 318 824 q 204 735 225 782 q 183 606 183 688 l 183 289 q 232 121 183 169 q 400 72 281 72 l 567 72 q 735 121 686 72 q 783 289 783 169 l 783 606 m 528 975 q 506 965 518 965 q 479 979 492 965 l 360 1121 q 351 1144 351 1133 q 365 1169 351 1157 q 388 1179 375 1179 q 414 1165 401 1179 l 533 1024 q 542 1000 542 1011 q 528 975 542 988 z "},"Ở":{"ha":967,"x_min":111,"x_max":910,"o":"m 875 969 q 910 933 910 969 l 910 906 q 818 783 910 807 q 856 606 856 717 l 856 289 q 787 69 856 138 q 567 0 718 0 l 400 0 q 180 69 249 0 q 111 289 111 138 l 111 606 q 181 826 111 757 q 399 894 250 896 l 567 894 q 767 842 700 894 q 824 858 808 844 q 840 906 840 871 l 840 938 q 875 969 840 969 m 783 606 q 735 774 783 725 q 567 822 686 822 l 399 822 q 272 803 318 824 q 204 735 225 782 q 183 606 183 688 l 183 289 q 232 121 183 169 q 400 72 281 72 l 567 72 q 735 121 686 72 q 783 289 783 169 l 783 606 m 483 972 q 451 1003 451 972 q 470 1063 451 1042 q 518 1103 489 1085 q 545 1122 539 1115 q 551 1142 551 1129 q 540 1185 551 1174 q 497 1197 529 1197 q 453 1185 465 1197 q 442 1142 442 1174 q 411 1110 442 1110 q 379 1142 379 1110 q 497 1260 379 1260 q 614 1142 614 1260 q 595 1085 614 1106 q 550 1049 576 1064 q 522 1025 528 1033 q 515 1003 515 1017 q 483 972 515 972 z "},"Ỡ":{"ha":967,"x_min":111,"x_max":910,"o":"m 875 969 q 910 933 910 969 l 910 906 q 818 783 910 807 q 856 606 856 717 l 856 289 q 787 69 856 138 q 567 0 718 0 l 400 0 q 180 69 249 0 q 111 289 111 138 l 111 606 q 181 826 111 757 q 399 894 250 896 l 567 894 q 767 842 700 894 q 824 858 808 844 q 840 906 840 871 l 840 938 q 875 969 840 969 m 783 606 q 735 774 783 725 q 567 822 686 822 l 399 822 q 272 803 318 824 q 204 735 225 782 q 183 606 183 688 l 183 289 q 232 121 183 169 q 400 72 281 72 l 567 72 q 735 121 686 72 q 783 289 783 169 l 783 606 m 569 1007 q 513 1021 535 1007 q 467 1058 490 1035 q 435 1085 447 1078 q 406 1092 424 1092 q 369 1079 382 1092 q 343 1033 356 1067 q 307 1010 335 1006 q 285 1019 293 1011 q 278 1040 278 1028 q 281 1053 278 1044 q 329 1133 300 1108 q 406 1158 358 1158 q 467 1144 443 1158 q 515 1104 490 1129 q 544 1080 533 1086 q 569 1074 554 1074 q 606 1087 592 1074 q 629 1131 619 1100 q 665 1154 639 1158 q 687 1144 679 1153 q 694 1124 694 1136 q 693 1113 694 1117 q 644 1033 674 1060 q 569 1007 614 1007 z "},"Ő":{"ha":967,"x_min":111,"x_max":856,"o":"m 400 0 q 180 69 249 0 q 111 289 111 138 l 111 606 q 181 826 111 757 q 399 894 250 896 l 567 894 q 787 825 718 894 q 856 606 856 756 l 856 289 q 787 69 856 138 q 567 0 718 0 l 400 0 m 567 72 q 735 121 686 72 q 783 289 783 169 l 783 606 q 735 774 783 725 q 567 822 686 822 l 399 822 q 272 803 318 824 q 204 735 225 782 q 183 606 183 688 l 183 289 q 232 121 183 169 q 400 72 281 72 l 567 72 z "},"Ȏ":{"ha":967,"x_min":111,"x_max":856,"o":"m 400 0 q 180 69 249 0 q 111 289 111 138 l 111 606 q 181 826 111 757 q 399 894 250 896 l 567 894 q 787 825 718 894 q 856 606 856 756 l 856 289 q 787 69 856 138 q 567 0 718 0 l 400 0 m 567 72 q 735 121 686 72 q 783 289 783 169 l 783 606 q 735 774 783 725 q 567 822 686 822 l 399 822 q 272 803 318 824 q 204 735 225 782 q 183 606 183 688 l 183 289 q 232 121 183 169 q 400 72 281 72 l 567 72 m 485 1194 q 614 1154 569 1194 q 658 1035 658 1114 l 658 1025 q 625 990 658 990 q 590 1021 590 990 l 590 1035 q 566 1106 590 1085 q 485 1128 542 1128 q 403 1106 428 1128 q 378 1035 378 1083 l 378 1025 q 344 990 378 990 q 310 1025 310 990 l 310 1035 q 354 1153 310 1113 q 485 1194 399 1194 z "},"Ō":{"ha":967,"x_min":111,"x_max":856,"o":"m 400 0 q 180 69 249 0 q 111 289 111 138 l 111 606 q 181 826 111 757 q 399 894 250 896 l 567 894 q 787 825 718 894 q 856 606 856 756 l 856 289 q 787 69 856 138 q 567 0 718 0 l 400 0 m 567 72 q 735 121 686 72 q 783 289 783 169 l 783 606 q 735 774 783 725 q 567 822 686 822 l 399 822 q 272 803 318 824 q 204 735 225 782 q 183 606 183 688 l 183 289 q 232 121 183 169 q 400 72 281 72 l 567 72 m 307 1053 q 271 1089 271 1053 q 307 1125 271 1125 l 658 1125 q 694 1089 694 1125 q 658 1053 694 1053 l 307 1053 z "},"Ǫ":{"ha":967,"x_min":111,"x_max":856,"o":"m 660 -57 q 640 -100 640 -81 q 657 -133 640 -119 q 700 -146 674 -146 q 778 -108 740 -146 q 803 -99 790 -99 q 826 -108 817 -99 q 836 -133 836 -118 q 826 -157 836 -149 q 767 -199 800 -185 q 700 -214 733 -214 q 609 -181 646 -214 q 572 -100 572 -149 q 604 -15 572 -54 l 617 1 q 567 0 601 0 l 400 0 q 180 69 249 0 q 111 289 111 138 l 111 606 q 181 826 111 757 q 399 894 250 896 l 567 894 q 787 825 718 894 q 856 606 856 756 l 856 289 q 823 120 856 185 q 721 26 790 56 l 660 -57 m 567 72 q 735 121 686 72 q 783 289 783 169 l 783 606 q 735 774 783 725 q 567 822 686 822 l 399 822 q 272 803 318 824 q 204 735 225 782 q 183 606 183 688 l 183 289 q 232 121 183 169 q 400 72 281 72 l 567 72 z "},"Ø":{"ha":967,"x_min":111,"x_max":856,"o":"m 763 846 q 856 606 856 779 l 856 289 q 787 69 856 138 q 567 0 718 0 l 400 0 q 260 21 317 0 l 219 -44 q 193 -62 210 -62 q 171 -56 185 -62 q 153 -28 153 -43 q 160 -7 153 -18 l 197 54 q 132 147 153 89 q 111 289 111 204 l 111 606 q 181 826 111 757 q 399 894 250 896 l 567 894 q 699 876 644 894 l 740 946 q 768 964 753 964 q 789 957 778 964 q 808 929 808 944 q 801 908 808 919 l 763 846 m 183 289 q 235 117 183 167 l 660 813 q 567 822 622 822 l 399 822 q 272 803 318 824 q 204 735 225 782 q 183 606 183 688 l 183 289 m 783 606 q 769 715 783 672 q 725 783 756 758 l 297 83 q 400 72 344 72 l 567 72 q 735 121 686 72 q 783 289 783 169 l 783 606 z "},"Ǿ":{"ha":967,"x_min":111,"x_max":856,"o":"m 763 846 q 856 606 856 779 l 856 289 q 787 69 856 138 q 567 0 718 0 l 400 0 q 260 21 317 0 l 219 -44 q 193 -62 210 -62 q 171 -56 185 -62 q 153 -28 153 -43 q 160 -7 153 -18 l 197 54 q 132 147 153 89 q 111 289 111 204 l 111 606 q 181 826 111 757 q 399 894 250 896 l 567 894 q 699 876 644 894 l 740 946 q 768 964 753 964 q 789 957 778 964 q 808 929 808 944 q 801 908 808 919 l 763 846 m 183 289 q 235 117 183 167 l 660 813 q 567 822 622 822 l 399 822 q 272 803 318 824 q 204 735 225 782 q 183 606 183 688 l 183 289 m 783 606 q 769 715 783 672 q 725 783 756 758 l 297 83 q 400 72 344 72 l 567 72 q 735 121 686 72 q 783 289 783 169 l 783 606 m 447 981 q 433 1006 433 993 q 442 1029 433 1017 l 561 1171 q 588 1185 574 1185 q 610 1175 600 1185 q 624 1150 624 1163 q 615 1126 624 1139 l 496 985 q 469 971 483 971 q 447 981 457 971 z "},"Õ":{"ha":967,"x_min":111,"x_max":856,"o":"m 400 0 q 180 69 249 0 q 111 289 111 138 l 111 606 q 181 826 111 757 q 399 894 250 896 l 567 894 q 787 825 718 894 q 856 606 856 756 l 856 289 q 787 69 856 138 q 567 0 718 0 l 400 0 m 567 72 q 735 121 686 72 q 783 289 783 169 l 783 606 q 735 774 783 725 q 567 822 686 822 l 399 822 q 272 803 318 824 q 204 735 225 782 q 183 606 183 688 l 183 289 q 232 121 183 169 q 400 72 281 72 l 567 72 m 569 1007 q 513 1021 535 1007 q 467 1058 490 1035 q 435 1085 447 1078 q 406 1092 424 1092 q 369 1079 382 1092 q 343 1033 356 1067 q 307 1010 335 1006 q 285 1019 293 1011 q 278 1040 278 1028 q 281 1053 278 1044 q 329 1133 300 1108 q 406 1158 358 1158 q 467 1144 443 1158 q 515 1104 490 1129 q 544 1080 533 1086 q 569 1074 554 1074 q 606 1087 592 1074 q 629 1131 619 1100 q 665 1154 639 1158 q 687 1144 679 1153 q 694 1124 694 1136 q 693 1113 694 1117 q 644 1033 674 1060 q 569 1007 614 1007 z "},"Ȭ":{"ha":967,"x_min":111,"x_max":856,"o":"m 400 0 q 180 69 249 0 q 111 289 111 138 l 111 606 q 181 826 111 757 q 399 894 250 896 l 567 894 q 787 825 718 894 q 856 606 856 756 l 856 289 q 787 69 856 138 q 567 0 718 0 l 400 0 m 567 72 q 735 121 686 72 q 783 289 783 169 l 783 606 q 735 774 783 725 q 567 822 686 822 l 399 822 q 272 803 318 824 q 204 735 225 782 q 183 606 183 688 l 183 289 q 232 121 183 169 q 400 72 281 72 l 567 72 m 569 1007 q 513 1021 535 1007 q 467 1058 490 1035 q 435 1085 447 1078 q 406 1092 424 1092 q 369 1079 382 1092 q 343 1033 356 1067 q 307 1010 335 1006 q 285 1019 293 1011 q 278 1040 278 1028 q 281 1053 278 1044 q 329 1133 300 1108 q 406 1158 358 1158 q 467 1144 443 1158 q 515 1104 490 1129 q 544 1080 533 1086 q 569 1074 554 1074 q 606 1087 592 1074 q 629 1131 619 1100 q 665 1154 639 1158 q 687 1144 679 1153 q 694 1124 694 1136 q 693 1113 694 1117 q 644 1033 674 1060 q 569 1007 614 1007 m 307 1278 q 271 1314 271 1278 q 307 1350 271 1350 l 658 1350 q 694 1314 694 1350 q 658 1278 694 1278 l 307 1278 z "},"Œ":{"ha":1150,"x_min":111,"x_max":1094,"o":"m 1058 72 q 1094 36 1094 72 q 1058 0 1094 0 l 400 0 q 180 69 249 0 q 111 289 111 138 l 111 606 q 180 826 111 757 q 399 894 249 894 l 1058 894 q 1094 858 1094 894 q 1058 822 1094 822 l 657 822 l 657 489 l 894 489 q 931 453 931 489 q 894 417 931 417 l 657 417 l 657 72 l 1058 72 m 183 289 q 232 121 183 169 q 400 72 281 72 l 585 72 l 585 822 l 399 822 q 272 801 318 822 q 204 734 225 781 q 183 606 183 688 l 183 289 z "},"P":{"ha":778,"x_min":129,"x_max":731,"o":"m 490 894 q 669 833 608 894 q 731 654 731 772 l 731 613 q 670 433 731 494 q 490 372 610 372 l 201 372 l 201 36 q 165 0 201 0 q 129 36 129 0 l 129 858 q 165 894 129 894 l 490 894 m 658 654 q 619 782 658 742 q 490 822 579 822 l 201 822 l 201 444 l 490 444 q 619 484 579 444 q 658 613 658 524 l 658 654 z "},"Þ":{"ha":711,"x_min":129,"x_max":664,"o":"m 424 765 q 603 705 543 765 q 664 525 664 644 l 664 483 q 603 304 664 365 q 424 243 542 243 l 201 243 l 201 36 q 165 0 201 0 q 129 36 129 0 l 129 858 q 165 894 129 894 q 201 858 201 894 l 201 765 l 424 765 m 592 525 q 552 653 592 614 q 424 693 513 693 l 201 693 l 201 315 l 424 315 q 552 356 513 315 q 592 483 592 396 l 592 525 z "},"Q":{"ha":968,"x_min":111,"x_max":857,"o":"m 846 -6 q 857 -29 857 -17 q 844 -53 857 -40 q 821 -64 835 -64 q 797 -53 808 -64 l 721 25 q 567 0 658 0 l 400 0 q 180 69 249 0 q 111 289 111 138 l 111 606 q 181 826 111 757 q 399 894 250 896 l 567 894 q 787 825 718 894 q 856 606 856 756 l 856 289 q 779 63 856 129 l 846 -6 m 567 72 q 665 83 628 72 l 611 138 q 600 163 600 151 q 611 186 600 175 q 635 197 625 197 q 660 185 647 197 l 728 114 q 770 183 757 140 q 783 289 783 225 l 783 606 q 735 774 783 725 q 567 822 686 822 l 399 822 q 272 803 318 824 q 204 735 225 782 q 183 606 183 688 l 183 289 q 232 121 183 169 q 400 72 281 72 l 567 72 z "},"R":{"ha":822,"x_min":129,"x_max":754,"o":"m 747 47 q 754 26 754 36 q 735 -1 754 10 q 714 -8 724 -8 q 686 10 696 -8 l 457 372 l 201 372 l 201 36 q 165 0 201 0 q 129 36 129 0 l 129 858 q 165 894 129 894 l 490 894 q 669 833 608 894 q 731 654 731 772 l 731 613 q 683 447 731 507 q 542 375 635 388 l 747 47 m 201 444 l 490 444 q 619 484 579 444 q 658 613 658 524 l 658 654 q 619 782 658 742 q 490 822 579 822 l 201 822 l 201 444 z "},"Ŕ":{"ha":822,"x_min":129,"x_max":754,"o":"m 747 47 q 754 26 754 36 q 735 -1 754 10 q 714 -8 724 -8 q 686 10 696 -8 l 457 372 l 201 372 l 201 36 q 165 0 201 0 q 129 36 129 0 l 129 858 q 165 894 129 894 l 490 894 q 669 833 608 894 q 731 654 731 772 l 731 613 q 683 447 731 507 q 542 375 635 388 l 747 47 m 201 444 l 490 444 q 619 484 579 444 q 658 613 658 524 l 658 654 q 619 782 658 742 q 490 822 579 822 l 201 822 l 201 444 m 375 981 q 361 1006 361 993 q 369 1029 361 1017 l 489 1171 q 515 1185 501 1185 q 538 1175 528 1185 q 551 1150 551 1163 q 543 1126 551 1139 l 424 985 q 397 971 411 971 q 375 981 385 971 z "},"Ř":{"ha":822,"x_min":129,"x_max":754,"o":"m 747 47 q 754 26 754 36 q 735 -1 754 10 q 714 -8 724 -8 q 686 10 696 -8 l 457 372 l 201 372 l 201 36 q 165 0 201 0 q 129 36 129 0 l 129 858 q 165 894 129 894 l 490 894 q 669 833 608 894 q 731 654 731 772 l 731 613 q 683 447 731 507 q 542 375 635 388 l 747 47 m 201 444 l 490 444 q 619 484 579 444 q 658 613 658 524 l 658 654 q 619 782 658 742 q 490 822 579 822 l 201 822 l 201 444 m 271 1181 q 294 1171 285 1181 l 432 1057 l 446 1057 l 583 1171 q 607 1181 593 1181 q 631 1171 621 1181 q 642 1146 642 1161 q 628 1118 642 1129 l 490 1003 q 447 988 471 988 l 431 988 q 388 1003 407 988 l 250 1118 q 236 1146 236 1129 q 246 1171 236 1161 q 271 1181 256 1181 z "},"Ŗ":{"ha":822,"x_min":129,"x_max":754,"o":"m 747 47 q 754 26 754 36 q 735 -1 754 10 q 714 -8 724 -8 q 686 10 696 -8 l 457 372 l 201 372 l 201 36 q 165 0 201 0 q 129 36 129 0 l 129 858 q 165 894 129 894 l 490 894 q 669 833 608 894 q 731 654 731 772 l 731 613 q 683 447 731 507 q 542 375 635 388 l 747 47 m 201 444 l 490 444 q 619 484 579 444 q 658 613 658 524 l 658 654 q 619 782 658 742 q 490 822 579 822 l 201 822 l 201 444 m 476 -125 q 471 -147 476 -140 l 419 -261 q 394 -281 410 -281 q 373 -273 381 -281 q 367 -251 365 -265 l 392 -108 l 392 -101 q 401 -76 392 -85 q 425 -67 410 -67 l 446 -67 q 476 -101 476 -67 l 476 -125 z "},"Ȑ":{"ha":822,"x_min":129,"x_max":754,"o":"m 204 1128 q 197 1149 197 1139 q 210 1172 197 1163 q 229 1181 219 1181 q 253 1168 240 1181 l 361 1040 q 368 1021 368 1029 q 356 997 368 1008 q 336 989 344 989 q 313 1001 325 989 l 204 1128 m 358 1128 q 351 1149 351 1139 q 364 1172 351 1163 q 383 1181 375 1181 q 407 1168 394 1181 l 515 1040 q 522 1021 522 1029 q 510 997 522 1008 q 490 989 500 989 q 467 1001 479 989 l 358 1128 m 747 47 q 754 26 754 36 q 735 -1 754 10 q 714 -8 724 -8 q 686 10 696 -8 l 457 372 l 201 372 l 201 36 q 165 0 201 0 q 129 36 129 0 l 129 858 q 165 894 129 894 l 490 894 q 669 833 608 894 q 731 654 731 772 l 731 613 q 683 447 731 507 q 542 375 635 388 l 747 47 m 201 444 l 490 444 q 619 484 579 444 q 658 613 658 524 l 658 654 q 619 782 658 742 q 490 822 579 822 l 201 822 l 201 444 z "},"Ȓ":{"ha":822,"x_min":129,"x_max":754,"o":"m 747 47 q 754 26 754 36 q 735 -1 754 10 q 714 -8 724 -8 q 686 10 696 -8 l 457 372 l 201 372 l 201 36 q 165 0 201 0 q 129 36 129 0 l 129 858 q 165 894 129 894 l 490 894 q 669 833 608 894 q 731 654 731 772 l 731 613 q 683 447 731 507 q 542 375 635 388 l 747 47 m 201 444 l 490 444 q 619 484 579 444 q 658 613 658 524 l 658 654 q 619 782 658 742 q 490 822 579 822 l 201 822 l 201 444 m 413 1194 q 542 1154 497 1194 q 586 1035 586 1114 l 586 1025 q 553 990 586 990 q 518 1021 518 990 l 518 1035 q 494 1106 518 1085 q 413 1128 469 1128 q 331 1106 356 1128 q 306 1035 306 1083 l 306 1025 q 272 990 306 990 q 238 1025 238 990 l 238 1035 q 282 1153 238 1113 q 413 1194 326 1194 z "},"S":{"ha":918,"x_min":110,"x_max":807,"o":"m 358 1 q 175 56 235 1 q 111 231 115 111 q 120 258 110 247 q 147 268 131 268 q 172 258 163 268 q 183 232 182 249 q 225 108 186 143 q 358 74 264 74 l 558 74 q 697 112 658 74 q 735 249 735 150 q 696 385 735 347 q 558 424 657 424 l 368 424 q 189 481 246 424 q 132 660 132 538 q 189 838 132 781 q 367 894 246 894 l 563 894 q 735 842 679 894 q 796 678 792 789 q 787 651 797 661 q 760 642 776 642 q 735 651 744 642 q 724 676 725 661 q 685 790 722 757 q 563 822 649 822 l 367 822 q 240 786 276 822 q 204 660 204 750 q 240 532 204 568 q 368 496 276 496 l 558 496 q 747 436 688 496 q 807 249 807 376 q 747 61 807 121 q 558 1 688 1 l 358 1 z "},"Ś":{"ha":918,"x_min":111,"x_max":807,"o":"m 358 1 q 175 56 235 1 q 111 231 115 111 q 120 258 110 247 q 147 268 131 268 q 172 258 163 268 q 183 232 182 249 q 225 108 186 143 q 358 74 264 74 l 558 74 q 697 112 658 74 q 735 249 735 150 q 696 385 735 347 q 558 424 657 424 l 368 424 q 189 481 246 424 q 132 660 132 538 q 189 838 132 781 q 367 894 246 894 l 563 894 q 735 842 679 894 q 796 678 792 789 q 787 651 797 661 q 760 642 776 642 q 735 651 744 642 q 724 676 725 661 q 685 790 722 757 q 563 822 649 822 l 367 822 q 240 786 276 822 q 204 660 204 750 q 240 532 204 568 q 368 496 276 496 l 558 496 q 747 436 688 496 q 807 249 807 376 q 747 61 807 121 q 558 1 688 1 l 358 1 m 425 981 q 411 1006 411 993 q 419 1029 411 1017 l 539 1171 q 565 1185 551 1185 q 588 1175 578 1185 q 601 1150 601 1163 q 593 1126 601 1139 l 474 985 q 447 971 461 971 q 425 981 435 971 z "},"Š":{"ha":918,"x_min":111,"x_max":807,"o":"m 358 1 q 175 56 235 1 q 111 231 115 111 q 120 258 110 247 q 147 268 131 268 q 172 258 163 268 q 183 232 182 249 q 225 108 186 143 q 358 74 264 74 l 558 74 q 697 112 658 74 q 735 249 735 150 q 696 385 735 347 q 558 424 657 424 l 368 424 q 189 481 246 424 q 132 660 132 538 q 189 838 132 781 q 367 894 246 894 l 563 894 q 735 842 679 894 q 796 678 792 789 q 787 651 797 661 q 760 642 776 642 q 735 651 744 642 q 724 676 725 661 q 685 790 722 757 q 563 822 649 822 l 367 822 q 240 786 276 822 q 204 660 204 750 q 240 532 204 568 q 368 496 276 496 l 558 496 q 747 436 688 496 q 807 249 807 376 q 747 61 807 121 q 558 1 688 1 l 358 1 m 321 1181 q 344 1171 335 1181 l 482 1057 l 496 1057 l 633 1171 q 657 1181 643 1181 q 681 1171 671 1181 q 692 1146 692 1161 q 678 1118 692 1129 l 540 1003 q 497 988 521 988 l 481 988 q 438 1003 457 988 l 300 1118 q 286 1146 286 1129 q 296 1171 286 1161 q 321 1181 306 1181 z "},"Ş":{"ha":918,"x_min":110,"x_max":807,"o":"m 807 249 q 747 61 807 121 q 558 1 688 1 l 531 1 q 564 -32 538 -15 q 611 -74 593 -51 q 629 -135 629 -96 q 593 -247 629 -211 q 481 -282 557 -282 q 361 -162 361 -282 q 394 -129 361 -129 q 429 -162 429 -129 q 440 -205 429 -194 q 481 -215 450 -215 q 544 -199 528 -215 q 561 -135 561 -182 q 555 -112 561 -121 q 526 -89 549 -104 q 482 -49 499 -68 q 461 1 465 -31 l 358 1 q 175 56 235 1 q 111 231 115 111 q 120 258 110 247 q 147 268 131 268 q 172 258 163 268 q 183 232 182 249 q 225 108 186 143 q 358 74 264 74 l 558 74 q 697 112 658 74 q 735 249 735 150 q 696 385 735 347 q 558 424 657 424 l 368 424 q 189 481 246 424 q 132 660 132 538 q 189 838 132 781 q 367 894 246 894 l 563 894 q 735 842 679 894 q 796 678 792 789 q 787 651 797 661 q 760 642 776 642 q 735 651 744 642 q 724 676 725 661 q 685 790 722 757 q 563 822 649 822 l 367 822 q 240 786 276 822 q 204 660 204 750 q 240 532 204 568 q 368 496 276 496 l 558 496 q 747 436 688 496 q 807 249 807 376 z "},"Ŝ":{"ha":918,"x_min":111,"x_max":807,"o":"m 358 1 q 175 56 235 1 q 111 231 115 111 q 120 258 110 247 q 147 268 131 268 q 172 258 163 268 q 183 232 182 249 q 225 108 186 143 q 358 74 264 74 l 558 74 q 697 112 658 74 q 735 249 735 150 q 696 385 735 347 q 558 424 657 424 l 368 424 q 189 481 246 424 q 132 660 132 538 q 189 838 132 781 q 367 894 246 894 l 563 894 q 735 842 679 894 q 796 678 792 789 q 787 651 797 661 q 760 642 776 642 q 735 651 744 642 q 724 676 725 661 q 685 790 722 757 q 563 822 649 822 l 367 822 q 240 786 276 822 q 204 660 204 750 q 240 532 204 568 q 368 496 276 496 l 558 496 q 747 436 688 496 q 807 249 807 376 q 747 61 807 121 q 558 1 688 1 l 358 1 m 331 972 q 307 983 317 972 q 297 1007 297 993 q 304 1028 297 1018 l 411 1163 q 453 1182 429 1182 l 474 1182 q 514 1163 499 1182 l 621 1028 q 629 1007 629 1017 q 619 983 629 993 q 594 972 608 972 q 568 986 578 972 l 468 1115 l 458 1115 l 357 986 q 331 972 347 972 z "},"Ș":{"ha":918,"x_min":111,"x_max":807,"o":"m 358 1 q 175 56 235 1 q 111 231 115 111 q 120 258 110 247 q 147 268 131 268 q 172 258 163 268 q 183 232 182 249 q 225 108 186 143 q 358 74 264 74 l 558 74 q 697 112 658 74 q 735 249 735 150 q 696 385 735 347 q 558 424 657 424 l 368 424 q 189 481 246 424 q 132 660 132 538 q 189 838 132 781 q 367 894 246 894 l 563 894 q 735 842 679 894 q 796 678 792 789 q 787 651 797 661 q 760 642 776 642 q 735 651 744 642 q 724 676 725 661 q 685 790 722 757 q 563 822 649 822 l 367 822 q 240 786 276 822 q 204 660 204 750 q 240 532 204 568 q 368 496 276 496 l 558 496 q 747 436 688 496 q 807 249 807 376 q 747 61 807 121 q 558 1 688 1 l 358 1 m 526 -125 q 521 -147 526 -140 l 469 -261 q 444 -281 460 -281 q 423 -273 431 -281 q 417 -251 415 -265 l 442 -108 l 442 -101 q 451 -76 442 -85 q 475 -67 460 -67 l 496 -67 q 526 -101 526 -67 l 526 -125 z "},"ẞ":{"ha":786,"x_min":129,"x_max":675,"o":"m 165 -7 q 139 3 149 -7 q 129 29 129 13 l 129 667 q 186 845 129 789 q 364 901 243 901 l 375 901 q 550 848 493 901 q 608 681 607 794 q 592 635 608 653 l 499 533 q 633 390 592 464 q 675 222 675 315 q 619 49 675 104 q 446 -7 564 -7 l 349 -7 q 322 3 332 -7 q 313 29 313 13 q 322 56 313 46 q 349 65 332 65 l 446 65 q 569 100 535 65 q 603 222 603 135 q 562 369 603 306 q 424 497 521 432 l 424 557 l 536 682 q 499 797 535 764 q 375 829 463 829 l 364 829 q 238 793 274 829 q 201 667 201 757 l 201 29 q 192 3 201 13 q 165 -7 182 -7 z "},"Ə":{"ha":967,"x_min":111,"x_max":856,"o":"m 400 1 q 180 70 249 1 q 111 290 111 139 l 111 414 l 783 414 l 783 604 q 735 772 783 724 q 567 821 686 821 l 400 821 q 232 772 281 821 q 183 604 183 724 q 173 578 183 589 q 147 568 163 568 q 122 578 132 568 q 111 604 111 589 q 180 824 111 754 q 400 893 249 893 l 567 893 q 787 824 718 893 q 856 604 856 754 l 856 290 q 787 70 856 139 q 567 1 718 1 l 400 1 m 567 74 q 694 94 647 74 q 763 162 742 115 q 783 290 783 208 l 783 342 l 183 342 l 183 290 q 204 162 183 208 q 272 94 225 115 q 400 74 319 74 l 567 74 z "},"T":{"ha":788,"x_min":25,"x_max":761,"o":"m 393 -1 q 367 9 378 -1 q 357 35 357 19 l 357 822 l 61 822 q 35 833 46 822 q 25 858 25 843 q 35 885 25 875 q 61 894 46 894 l 725 894 q 751 885 742 894 q 761 858 761 875 q 751 833 761 843 q 725 822 742 822 l 429 822 l 429 35 q 419 9 429 19 q 393 -1 410 -1 z "},"Ŧ":{"ha":788,"x_min":25,"x_max":761,"o":"m 725 894 q 751 885 742 894 q 761 858 761 875 q 751 833 761 843 q 725 822 742 822 l 429 822 l 429 481 l 572 481 q 607 447 607 481 q 572 414 607 414 l 429 414 l 429 35 q 419 9 429 19 q 393 -1 410 -1 q 367 9 378 -1 q 357 35 357 19 l 357 414 l 213 414 q 179 447 179 414 q 213 481 179 481 l 357 481 l 357 822 l 61 822 q 35 833 46 822 q 25 858 25 843 q 35 885 25 875 q 61 894 46 894 l 725 894 z "},"Ť":{"ha":788,"x_min":25,"x_max":761,"o":"m 393 -1 q 367 9 378 -1 q 357 35 357 19 l 357 822 l 61 822 q 35 833 46 822 q 25 858 25 843 q 35 885 25 875 q 61 894 46 894 l 725 894 q 751 885 742 894 q 761 858 761 875 q 751 833 761 843 q 725 822 742 822 l 429 822 l 429 35 q 419 9 429 19 q 393 -1 410 -1 m 253 1181 q 276 1171 267 1181 l 414 1057 l 428 1057 l 565 1171 q 589 1181 575 1181 q 613 1171 603 1181 q 624 1146 624 1161 q 610 1118 624 1129 l 472 1003 q 429 988 453 988 l 413 988 q 369 1003 389 988 l 232 1118 q 218 1146 218 1129 q 228 1171 218 1161 q 253 1181 238 1181 z "},"Ţ":{"ha":788,"x_min":25,"x_max":761,"o":"m 725 894 q 751 885 742 894 q 761 858 761 875 q 751 833 761 843 q 725 822 742 822 l 429 822 l 429 35 q 428 24 429 26 l 428 21 q 435 -8 428 3 q 464 -32 442 -18 q 511 -74 493 -51 q 529 -135 529 -96 q 493 -247 529 -211 q 381 -282 457 -282 q 261 -162 261 -282 q 294 -129 261 -129 q 329 -162 329 -129 q 340 -205 329 -194 q 381 -215 350 -215 q 444 -199 428 -215 q 461 -135 461 -182 q 455 -112 461 -121 q 426 -89 449 -104 q 378 -44 396 -67 q 360 19 360 -21 q 357 35 357 31 l 357 822 l 61 822 q 35 833 46 822 q 25 858 25 843 q 35 885 25 875 q 61 894 46 894 l 725 894 z "},"Ț":{"ha":788,"x_min":25,"x_max":761,"o":"m 393 -1 q 367 9 378 -1 q 357 35 357 19 l 357 822 l 61 822 q 35 833 46 822 q 25 858 25 843 q 35 885 25 875 q 61 894 46 894 l 725 894 q 751 885 742 894 q 761 858 761 875 q 751 833 761 843 q 725 822 742 822 l 429 822 l 429 35 q 419 9 429 19 q 393 -1 410 -1 m 426 -125 q 421 -147 426 -140 l 369 -261 q 344 -281 360 -281 q 323 -273 331 -281 q 317 -251 315 -265 l 342 -108 l 342 -101 q 351 -76 342 -85 q 375 -67 360 -67 l 396 -67 q 426 -101 426 -67 l 426 -125 z "},"U":{"ha":975,"x_min":115,"x_max":860,"o":"m 404 0 q 185 69 254 0 q 115 289 115 138 l 115 858 q 126 884 115 874 q 151 894 136 894 q 178 884 168 894 q 188 858 188 874 l 188 289 q 236 121 188 169 q 404 72 285 72 l 571 72 q 699 93 653 72 q 767 161 746 114 q 788 289 788 208 l 788 858 q 798 884 788 874 q 824 894 808 894 q 850 884 840 894 q 860 858 860 874 l 860 289 q 791 69 860 138 q 571 0 722 0 l 404 0 z "},"Ú":{"ha":975,"x_min":115,"x_max":860,"o":"m 404 0 q 185 69 254 0 q 115 289 115 138 l 115 858 q 126 884 115 874 q 151 894 136 894 q 178 884 168 894 q 188 858 188 874 l 188 289 q 236 121 188 169 q 404 72 285 72 l 571 72 q 699 93 653 72 q 767 161 746 114 q 788 289 788 208 l 788 858 q 798 884 788 874 q 824 894 808 894 q 850 884 840 894 q 860 858 860 874 l 860 289 q 791 69 860 138 q 571 0 722 0 l 404 0 m 451 981 q 438 1006 438 993 q 446 1029 438 1017 l 565 1171 q 592 1185 578 1185 q 614 1175 604 1185 q 628 1150 628 1163 q 619 1126 628 1139 l 500 985 q 474 971 488 971 q 451 981 461 971 z "},"Ŭ":{"ha":975,"x_min":115,"x_max":860,"o":"m 404 0 q 185 69 254 0 q 115 289 115 138 l 115 858 q 126 884 115 874 q 151 894 136 894 q 178 884 168 894 q 188 858 188 874 l 188 289 q 236 121 188 169 q 404 72 285 72 l 571 72 q 699 93 653 72 q 767 161 746 114 q 788 289 788 208 l 788 858 q 798 884 788 874 q 824 894 808 894 q 850 884 840 894 q 860 858 860 874 l 860 289 q 791 69 860 138 q 571 0 722 0 l 404 0 m 493 971 q 363 1012 407 971 q 318 1131 318 1053 l 318 1140 q 353 1175 318 1175 q 386 1140 386 1175 l 386 1131 q 411 1060 386 1082 q 493 1038 436 1038 q 574 1059 550 1038 q 599 1131 599 1081 l 599 1144 q 633 1175 599 1175 q 667 1140 667 1175 l 667 1131 q 622 1011 667 1051 q 493 971 578 971 z "},"Û":{"ha":975,"x_min":115,"x_max":860,"o":"m 404 0 q 185 69 254 0 q 115 289 115 138 l 115 858 q 126 884 115 874 q 151 894 136 894 q 178 884 168 894 q 188 858 188 874 l 188 289 q 236 121 188 169 q 404 72 285 72 l 571 72 q 699 93 653 72 q 767 161 746 114 q 788 289 788 208 l 788 858 q 798 884 788 874 q 824 894 808 894 q 850 884 840 894 q 860 858 860 874 l 860 289 q 791 69 860 138 q 571 0 722 0 l 404 0 m 317 976 q 292 987 301 976 q 282 1011 282 997 q 296 1039 282 1028 l 433 1154 q 476 1169 453 1169 l 493 1169 q 536 1154 517 1169 l 674 1039 q 688 1011 688 1028 q 677 987 688 997 q 653 976 667 976 q 629 986 639 976 l 492 1100 l 478 1100 l 340 986 q 317 976 331 976 z "},"Ȕ":{"ha":975,"x_min":115,"x_max":860,"o":"m 432 997 q 413 989 422 989 q 389 1001 401 989 l 281 1128 q 274 1149 274 1139 q 286 1172 274 1163 q 306 1181 296 1181 q 329 1168 317 1181 l 438 1040 q 444 1021 444 1029 q 432 997 444 1008 m 586 997 q 567 989 576 989 q 543 1001 556 989 l 435 1128 q 428 1149 428 1139 q 440 1172 428 1163 q 460 1181 451 1181 q 483 1168 471 1181 l 592 1040 q 599 1021 599 1029 q 586 997 599 1008 m 404 0 q 185 69 254 0 q 115 289 115 138 l 115 858 q 126 884 115 874 q 151 894 136 894 q 178 884 168 894 q 188 858 188 874 l 188 289 q 236 121 188 169 q 404 72 285 72 l 571 72 q 699 93 653 72 q 767 161 746 114 q 788 289 788 208 l 788 858 q 798 884 788 874 q 824 894 808 894 q 850 884 840 894 q 860 858 860 874 l 860 289 q 791 69 860 138 q 571 0 722 0 l 404 0 z "},"Ü":{"ha":975,"x_min":115,"x_max":860,"o":"m 404 0 q 185 69 254 0 q 115 289 115 138 l 115 858 q 126 884 115 874 q 151 894 136 894 q 178 884 168 894 q 188 858 188 874 l 188 289 q 236 121 188 169 q 404 72 285 72 l 571 72 q 699 93 653 72 q 767 161 746 114 q 788 289 788 208 l 788 858 q 798 884 788 874 q 824 894 808 894 q 850 884 840 894 q 860 858 860 874 l 860 289 q 791 69 860 138 q 571 0 722 0 l 404 0 m 372 1013 q 342 1023 353 1013 q 332 1053 332 1033 l 332 1079 q 342 1109 332 1099 q 372 1119 353 1119 l 399 1119 q 438 1079 438 1119 l 438 1053 q 399 1013 438 1013 l 372 1013 m 579 1013 q 549 1023 560 1013 q 539 1053 539 1033 l 539 1079 q 549 1109 539 1099 q 579 1119 560 1119 l 606 1119 q 644 1079 644 1119 l 644 1053 q 606 1013 644 1013 l 579 1013 z "},"Ụ":{"ha":975,"x_min":115,"x_max":860,"o":"m 404 0 q 185 69 254 0 q 115 289 115 138 l 115 858 q 126 884 115 874 q 151 894 136 894 q 178 884 168 894 q 188 858 188 874 l 188 289 q 236 121 188 169 q 404 72 285 72 l 571 72 q 699 93 653 72 q 767 161 746 114 q 788 289 788 208 l 788 858 q 798 884 788 874 q 824 894 808 894 q 850 884 840 894 q 860 858 860 874 l 860 289 q 791 69 860 138 q 571 0 722 0 l 404 0 m 475 -211 q 445 -201 456 -211 q 435 -171 435 -190 l 435 -144 q 445 -115 435 -125 q 475 -104 456 -104 l 501 -104 q 540 -144 540 -104 l 540 -171 q 501 -211 540 -211 l 475 -211 z "},"Ù":{"ha":975,"x_min":115,"x_max":860,"o":"m 404 0 q 185 69 254 0 q 115 289 115 138 l 115 858 q 126 884 115 874 q 151 894 136 894 q 178 884 168 894 q 188 858 188 874 l 188 289 q 236 121 188 169 q 404 72 285 72 l 571 72 q 699 93 653 72 q 767 161 746 114 q 788 289 788 208 l 788 858 q 798 884 788 874 q 824 894 808 894 q 850 884 840 894 q 860 858 860 874 l 860 289 q 791 69 860 138 q 571 0 722 0 l 404 0 m 532 975 q 510 965 522 965 q 483 979 496 965 l 364 1121 q 356 1144 356 1133 q 369 1169 356 1157 q 392 1179 379 1179 q 418 1165 406 1179 l 538 1024 q 546 1000 546 1011 q 532 975 546 988 z "},"Ủ":{"ha":975,"x_min":115,"x_max":860,"o":"m 404 0 q 185 69 254 0 q 115 289 115 138 l 115 858 q 126 884 115 874 q 151 894 136 894 q 178 884 168 894 q 188 858 188 874 l 188 289 q 236 121 188 169 q 404 72 285 72 l 571 72 q 699 93 653 72 q 767 161 746 114 q 788 289 788 208 l 788 858 q 798 884 788 874 q 824 894 808 894 q 850 884 840 894 q 860 858 860 874 l 860 289 q 791 69 860 138 q 571 0 722 0 l 404 0 m 488 972 q 456 1003 456 972 q 474 1063 456 1042 q 522 1103 493 1085 q 549 1122 543 1115 q 556 1142 556 1129 q 544 1185 556 1174 q 501 1197 533 1197 q 458 1185 469 1197 q 446 1142 446 1174 q 415 1110 446 1110 q 383 1142 383 1110 q 501 1260 383 1260 q 618 1142 618 1260 q 599 1085 618 1106 q 554 1049 581 1064 q 526 1025 532 1033 q 519 1003 519 1017 q 488 972 519 972 z "},"Ư":{"ha":975,"x_min":115,"x_max":979,"o":"m 944 1022 q 979 986 979 1022 l 979 958 q 860 831 979 846 l 860 289 q 791 69 860 138 q 571 0 722 0 l 404 0 q 185 69 254 0 q 115 289 115 138 l 115 858 q 126 884 115 874 q 151 894 136 894 q 178 884 168 894 q 188 858 188 874 l 188 289 q 236 121 188 169 q 404 72 285 72 l 571 72 q 699 93 653 72 q 767 161 746 114 q 788 289 788 208 l 788 858 q 798 884 788 874 q 824 894 808 894 q 891 908 872 894 q 910 958 910 922 l 910 990 q 944 1022 910 1022 z "},"Ứ":{"ha":975,"x_min":115,"x_max":979,"o":"m 944 1022 q 979 986 979 1022 l 979 958 q 860 831 979 846 l 860 289 q 791 69 860 138 q 571 0 722 0 l 404 0 q 185 69 254 0 q 115 289 115 138 l 115 858 q 126 884 115 874 q 151 894 136 894 q 178 884 168 894 q 188 858 188 874 l 188 289 q 236 121 188 169 q 404 72 285 72 l 571 72 q 699 93 653 72 q 767 161 746 114 q 788 289 788 208 l 788 858 q 798 884 788 874 q 824 894 808 894 q 891 908 872 894 q 910 958 910 922 l 910 990 q 944 1022 910 1022 m 451 981 q 438 1006 438 993 q 446 1029 438 1017 l 565 1171 q 592 1185 578 1185 q 614 1175 604 1185 q 628 1150 628 1163 q 619 1126 628 1139 l 500 985 q 474 971 488 971 q 451 981 461 971 z "},"Ự":{"ha":975,"x_min":115,"x_max":979,"o":"m 944 1022 q 979 986 979 1022 l 979 958 q 860 831 979 846 l 860 289 q 791 69 860 138 q 571 0 722 0 l 404 0 q 185 69 254 0 q 115 289 115 138 l 115 858 q 126 884 115 874 q 151 894 136 894 q 178 884 168 894 q 188 858 188 874 l 188 289 q 236 121 188 169 q 404 72 285 72 l 571 72 q 699 93 653 72 q 767 161 746 114 q 788 289 788 208 l 788 858 q 798 884 788 874 q 824 894 808 894 q 891 908 872 894 q 910 958 910 922 l 910 990 q 944 1022 910 1022 m 475 -211 q 445 -201 456 -211 q 435 -171 435 -190 l 435 -144 q 445 -115 435 -125 q 475 -104 456 -104 l 501 -104 q 540 -144 540 -104 l 540 -171 q 501 -211 540 -211 l 475 -211 z "},"Ừ":{"ha":975,"x_min":115,"x_max":979,"o":"m 944 1022 q 979 986 979 1022 l 979 958 q 860 831 979 846 l 860 289 q 791 69 860 138 q 571 0 722 0 l 404 0 q 185 69 254 0 q 115 289 115 138 l 115 858 q 126 884 115 874 q 151 894 136 894 q 178 884 168 894 q 188 858 188 874 l 188 289 q 236 121 188 169 q 404 72 285 72 l 571 72 q 699 93 653 72 q 767 161 746 114 q 788 289 788 208 l 788 858 q 798 884 788 874 q 824 894 808 894 q 891 908 872 894 q 910 958 910 922 l 910 990 q 944 1022 910 1022 m 532 975 q 510 965 522 965 q 483 979 496 965 l 364 1121 q 356 1144 356 1133 q 369 1169 356 1157 q 392 1179 379 1179 q 418 1165 406 1179 l 538 1024 q 546 1000 546 1011 q 532 975 546 988 z "},"Ử":{"ha":975,"x_min":115,"x_max":979,"o":"m 944 1022 q 979 986 979 1022 l 979 958 q 860 831 979 846 l 860 289 q 791 69 860 138 q 571 0 722 0 l 404 0 q 185 69 254 0 q 115 289 115 138 l 115 858 q 126 884 115 874 q 151 894 136 894 q 178 884 168 894 q 188 858 188 874 l 188 289 q 236 121 188 169 q 404 72 285 72 l 571 72 q 699 93 653 72 q 767 161 746 114 q 788 289 788 208 l 788 858 q 798 884 788 874 q 824 894 808 894 q 891 908 872 894 q 910 958 910 922 l 910 990 q 944 1022 910 1022 m 488 972 q 456 1003 456 972 q 474 1063 456 1042 q 522 1103 493 1085 q 549 1122 543 1115 q 556 1142 556 1129 q 544 1185 556 1174 q 501 1197 533 1197 q 458 1185 469 1197 q 446 1142 446 1174 q 415 1110 446 1110 q 383 1142 383 1110 q 501 1260 383 1260 q 618 1142 618 1260 q 599 1085 618 1106 q 554 1049 581 1064 q 526 1025 532 1033 q 519 1003 519 1017 q 488 972 519 972 z "},"Ữ":{"ha":975,"x_min":115,"x_max":979,"o":"m 944 1022 q 979 986 979 1022 l 979 958 q 860 831 979 846 l 860 289 q 791 69 860 138 q 571 0 722 0 l 404 0 q 185 69 254 0 q 115 289 115 138 l 115 858 q 126 884 115 874 q 151 894 136 894 q 178 884 168 894 q 188 858 188 874 l 188 289 q 236 121 188 169 q 404 72 285 72 l 571 72 q 699 93 653 72 q 767 161 746 114 q 788 289 788 208 l 788 858 q 798 884 788 874 q 824 894 808 894 q 891 908 872 894 q 910 958 910 922 l 910 990 q 944 1022 910 1022 m 574 1007 q 517 1021 539 1007 q 471 1058 494 1035 q 440 1085 451 1078 q 410 1092 428 1092 q 373 1079 386 1092 q 347 1033 360 1067 q 311 1010 339 1006 q 290 1019 297 1011 q 282 1040 282 1028 q 285 1053 282 1044 q 333 1133 304 1108 q 410 1158 363 1158 q 471 1144 447 1158 q 519 1104 494 1129 q 548 1080 538 1086 q 574 1074 558 1074 q 610 1087 596 1074 q 633 1131 624 1100 q 669 1154 643 1158 q 691 1144 683 1153 q 699 1124 699 1136 q 697 1113 699 1117 q 648 1033 678 1060 q 574 1007 618 1007 z "},"Ű":{"ha":975,"x_min":115,"x_max":860,"o":"m 404 0 q 185 69 254 0 q 115 289 115 138 l 115 858 q 126 884 115 874 q 151 894 136 894 q 178 884 168 894 q 188 858 188 874 l 188 289 q 236 121 188 169 q 404 72 285 72 l 571 72 q 699 93 653 72 q 767 161 746 114 q 788 289 788 208 l 788 858 q 798 884 788 874 q 824 894 808 894 q 850 884 840 894 q 860 858 860 874 l 860 289 q 791 69 860 138 q 571 0 722 0 l 404 0 m 383 981 q 369 1006 369 993 q 378 1029 369 1017 l 497 1171 q 524 1185 510 1185 q 546 1175 536 1185 q 560 1150 560 1163 q 551 1126 560 1139 l 432 985 q 406 971 419 971 q 383 981 393 971 m 542 981 q 528 1006 528 993 q 536 1029 528 1017 l 656 1171 q 682 1185 668 1185 q 704 1175 694 1185 q 718 1150 718 1163 q 710 1126 718 1139 l 590 985 q 564 971 578 971 q 542 981 551 971 z "},"Ȗ":{"ha":975,"x_min":115,"x_max":860,"o":"m 404 0 q 185 69 254 0 q 115 289 115 138 l 115 858 q 126 884 115 874 q 151 894 136 894 q 178 884 168 894 q 188 858 188 874 l 188 289 q 236 121 188 169 q 404 72 285 72 l 571 72 q 699 93 653 72 q 767 161 746 114 q 788 289 788 208 l 788 858 q 798 884 788 874 q 824 894 808 894 q 850 884 840 894 q 860 858 860 874 l 860 289 q 791 69 860 138 q 571 0 722 0 l 404 0 m 489 1194 q 618 1154 574 1194 q 663 1035 663 1114 l 663 1025 q 629 990 663 990 q 594 1021 594 990 l 594 1035 q 570 1106 594 1085 q 489 1128 546 1128 q 407 1106 432 1128 q 382 1035 382 1083 l 382 1025 q 349 990 382 990 q 314 1025 314 990 l 314 1035 q 358 1153 314 1113 q 489 1194 403 1194 z "},"Ū":{"ha":975,"x_min":115,"x_max":860,"o":"m 404 0 q 185 69 254 0 q 115 289 115 138 l 115 858 q 126 884 115 874 q 151 894 136 894 q 178 884 168 894 q 188 858 188 874 l 188 289 q 236 121 188 169 q 404 72 285 72 l 571 72 q 699 93 653 72 q 767 161 746 114 q 788 289 788 208 l 788 858 q 798 884 788 874 q 824 894 808 894 q 850 884 840 894 q 860 858 860 874 l 860 289 q 791 69 860 138 q 571 0 722 0 l 404 0 m 311 1053 q 275 1089 275 1053 q 311 1125 275 1125 l 663 1125 q 699 1089 699 1125 q 663 1053 699 1053 l 311 1053 z "},"Ų":{"ha":975,"x_min":115,"x_max":864,"o":"m 829 -108 q 855 -118 846 -108 q 864 -143 864 -128 q 851 -167 864 -158 q 797 -201 826 -189 q 738 -214 767 -214 q 647 -181 683 -214 q 610 -100 610 -149 q 642 -15 610 -54 l 658 7 q 571 0 614 0 l 404 0 q 185 69 254 0 q 115 289 115 138 l 115 858 q 126 884 115 874 q 151 894 136 894 q 178 884 168 894 q 188 858 188 874 l 188 289 q 236 121 188 169 q 404 72 285 72 l 571 72 q 699 93 653 72 q 767 161 746 114 q 788 289 788 208 l 788 858 q 798 884 788 874 q 824 894 808 894 q 850 884 840 894 q 860 858 860 874 l 860 289 q 796 75 860 143 l 697 -57 q 678 -100 678 -81 q 694 -133 678 -119 q 738 -146 711 -146 q 808 -115 774 -146 q 829 -108 817 -108 z "},"Ů":{"ha":975,"x_min":115,"x_max":860,"o":"m 404 0 q 185 69 254 0 q 115 289 115 138 l 115 858 q 126 884 115 874 q 151 894 136 894 q 178 884 168 894 q 188 858 188 874 l 188 289 q 236 121 188 169 q 404 72 285 72 l 571 72 q 699 93 653 72 q 767 161 746 114 q 788 289 788 208 l 788 858 q 798 884 788 874 q 824 894 808 894 q 850 884 840 894 q 860 858 860 874 l 860 289 q 791 69 860 138 q 571 0 722 0 l 404 0 m 482 976 q 404 1004 432 976 q 376 1082 376 1032 q 404 1161 376 1133 q 482 1189 432 1189 q 561 1161 533 1189 q 589 1082 589 1133 q 561 1004 589 1032 q 482 976 533 976 m 482 1040 q 516 1049 507 1040 q 525 1082 525 1058 q 516 1117 525 1108 q 482 1125 507 1125 q 449 1116 457 1125 q 440 1082 440 1107 q 449 1049 440 1057 q 482 1040 458 1040 z "},"Ũ":{"ha":975,"x_min":115,"x_max":860,"o":"m 404 0 q 185 69 254 0 q 115 289 115 138 l 115 858 q 126 884 115 874 q 151 894 136 894 q 178 884 168 894 q 188 858 188 874 l 188 289 q 236 121 188 169 q 404 72 285 72 l 571 72 q 699 93 653 72 q 767 161 746 114 q 788 289 788 208 l 788 858 q 798 884 788 874 q 824 894 808 894 q 850 884 840 894 q 860 858 860 874 l 860 289 q 791 69 860 138 q 571 0 722 0 l 404 0 m 574 1007 q 517 1021 539 1007 q 471 1058 494 1035 q 440 1085 451 1078 q 410 1092 428 1092 q 373 1079 386 1092 q 347 1033 360 1067 q 311 1010 339 1006 q 290 1019 297 1011 q 282 1040 282 1028 q 285 1053 282 1044 q 333 1133 304 1108 q 410 1158 363 1158 q 471 1144 447 1158 q 519 1104 494 1129 q 548 1080 538 1086 q 574 1074 558 1074 q 610 1087 596 1074 q 633 1131 624 1100 q 669 1154 643 1158 q 691 1144 683 1153 q 699 1124 699 1136 q 697 1113 699 1117 q 648 1033 678 1060 q 574 1007 618 1007 z "},"V":{"ha":844,"x_min":18,"x_max":825,"o":"m 417 0 q 383 25 394 0 l 22 843 q 18 860 18 851 q 27 881 18 872 q 49 892 36 889 q 58 893 51 893 q 88 871 79 893 l 422 114 l 756 871 q 794 892 767 899 q 817 881 808 889 q 825 861 825 874 q 821 843 825 854 l 460 25 q 425 0 449 0 l 417 0 z "},"W":{"ha":1188,"x_min":18,"x_max":1168,"o":"m 1129 893 q 1158 884 1149 893 q 1168 861 1168 875 q 1165 846 1168 857 l 899 28 q 864 0 890 0 l 857 0 q 821 28 829 0 l 593 763 l 364 28 q 351 7 358 14 q 328 0 343 0 l 321 0 q 288 28 296 0 l 21 846 q 18 860 18 854 q 26 882 18 872 q 50 893 35 892 l 57 893 q 89 868 83 893 l 328 140 l 551 867 q 589 894 560 894 l 599 894 q 635 867 626 894 l 860 138 l 1097 868 q 1129 893 1106 893 z "},"Ẃ":{"ha":1188,"x_min":18,"x_max":1168,"o":"m 1129 893 q 1158 884 1149 893 q 1168 861 1168 875 q 1165 846 1168 857 l 899 28 q 864 0 890 0 l 857 0 q 821 28 829 0 l 593 763 l 364 28 q 351 7 358 14 q 328 0 343 0 l 321 0 q 288 28 296 0 l 21 846 q 18 860 18 854 q 26 882 18 872 q 50 893 35 892 l 57 893 q 89 868 83 893 l 328 140 l 551 867 q 589 894 560 894 l 599 894 q 635 867 626 894 l 860 138 l 1097 868 q 1129 893 1106 893 m 557 981 q 543 1006 543 993 q 551 1029 543 1017 l 671 1171 q 697 1185 683 1185 q 719 1175 710 1185 q 733 1150 733 1163 q 725 1126 733 1139 l 606 985 q 579 971 593 971 q 557 981 567 971 z "},"Ŵ":{"ha":1188,"x_min":18,"x_max":1168,"o":"m 1129 893 q 1158 884 1149 893 q 1168 861 1168 875 q 1165 846 1168 857 l 899 28 q 864 0 890 0 l 857 0 q 821 28 829 0 l 593 763 l 364 28 q 351 7 358 14 q 328 0 343 0 l 321 0 q 288 28 296 0 l 21 846 q 18 860 18 854 q 26 882 18 872 q 50 893 35 892 l 57 893 q 89 868 83 893 l 328 140 l 551 867 q 589 894 560 894 l 599 894 q 635 867 626 894 l 860 138 l 1097 868 q 1129 893 1106 893 m 422 976 q 397 987 407 976 q 388 1011 388 997 q 401 1039 388 1028 l 539 1154 q 582 1169 558 1169 l 599 1169 q 642 1154 622 1169 l 779 1039 q 793 1011 793 1028 q 783 987 793 997 q 758 976 772 976 q 735 986 744 976 l 597 1100 l 583 1100 l 446 986 q 422 976 436 976 z "},"Ẅ":{"ha":1188,"x_min":18,"x_max":1168,"o":"m 1129 893 q 1158 884 1149 893 q 1168 861 1168 875 q 1165 846 1168 857 l 899 28 q 864 0 890 0 l 857 0 q 821 28 829 0 l 593 763 l 364 28 q 351 7 358 14 q 328 0 343 0 l 321 0 q 288 28 296 0 l 21 846 q 18 860 18 854 q 26 882 18 872 q 50 893 35 892 l 57 893 q 89 868 83 893 l 328 140 l 551 867 q 589 894 560 894 l 599 894 q 635 867 626 894 l 860 138 l 1097 868 q 1129 893 1106 893 m 478 1013 q 448 1023 458 1013 q 438 1053 438 1033 l 438 1079 q 448 1109 438 1099 q 478 1119 458 1119 l 504 1119 q 543 1079 543 1119 l 543 1053 q 504 1013 543 1013 l 478 1013 m 685 1013 q 655 1023 665 1013 q 644 1053 644 1033 l 644 1079 q 655 1109 644 1099 q 685 1119 665 1119 l 711 1119 q 750 1079 750 1119 l 750 1053 q 711 1013 750 1013 l 685 1013 z "},"Ẁ":{"ha":1188,"x_min":18,"x_max":1168,"o":"m 1129 893 q 1158 884 1149 893 q 1168 861 1168 875 q 1165 846 1168 857 l 899 28 q 864 0 890 0 l 857 0 q 821 28 829 0 l 593 763 l 364 28 q 351 7 358 14 q 328 0 343 0 l 321 0 q 288 28 296 0 l 21 846 q 18 860 18 854 q 26 882 18 872 q 50 893 35 892 l 57 893 q 89 868 83 893 l 328 140 l 551 867 q 589 894 560 894 l 599 894 q 635 867 626 894 l 860 138 l 1097 868 q 1129 893 1106 893 m 638 975 q 615 965 628 965 q 589 979 601 965 l 469 1121 q 461 1144 461 1133 q 475 1169 461 1157 q 497 1179 485 1179 q 524 1165 511 1179 l 643 1024 q 651 1000 651 1011 q 638 975 651 988 z "},"X":{"ha":799,"x_min":57,"x_max":733,"o":"m 74 8 q 57 38 57 21 q 64 58 57 47 l 344 467 l 81 836 q 72 858 72 847 q 89 886 72 874 q 111 893 99 893 q 140 876 128 893 l 392 524 l 653 878 q 679 894 665 894 q 703 885 688 894 q 719 857 719 872 q 711 835 719 847 l 438 461 l 725 58 q 733 36 733 49 q 717 8 733 21 q 694 0 704 0 q 667 17 678 0 l 389 404 l 124 18 q 96 0 113 0 q 74 8 86 0 z "},"Y":{"ha":749,"x_min":18,"x_max":729,"o":"m 711 886 q 729 860 729 876 q 722 838 729 849 l 408 346 l 408 36 q 372 0 408 0 q 336 36 336 0 l 336 346 l 25 838 q 18 858 18 849 q 38 888 18 875 q 58 894 49 894 q 88 875 75 894 l 372 424 l 661 876 q 689 893 672 893 q 711 886 700 893 z "},"Ý":{"ha":749,"x_min":18,"x_max":729,"o":"m 711 886 q 729 860 729 876 q 722 838 729 849 l 408 346 l 408 36 q 372 0 408 0 q 336 36 336 0 l 336 346 l 25 838 q 18 858 18 849 q 38 888 18 875 q 58 894 49 894 q 88 875 75 894 l 372 424 l 661 876 q 689 893 672 893 q 711 886 700 893 m 339 981 q 325 1006 325 993 q 333 1029 325 1017 l 453 1171 q 479 1185 465 1185 q 501 1175 492 1185 q 515 1150 515 1163 q 507 1126 515 1139 l 388 985 q 361 971 375 971 q 339 981 349 971 z "},"Ŷ":{"ha":749,"x_min":18,"x_max":729,"o":"m 711 886 q 729 860 729 876 q 722 838 729 849 l 408 346 l 408 36 q 372 0 408 0 q 336 36 336 0 l 336 346 l 25 838 q 18 858 18 849 q 38 888 18 875 q 58 894 49 894 q 88 875 75 894 l 372 424 l 661 876 q 689 893 672 893 q 711 886 700 893 m 204 976 q 179 987 189 976 q 169 1011 169 997 q 183 1039 169 1028 l 321 1154 q 364 1169 340 1169 l 381 1169 q 424 1154 404 1169 l 561 1039 q 575 1011 575 1028 q 565 987 575 997 q 540 976 554 976 q 517 986 526 976 l 379 1100 l 365 1100 l 228 986 q 204 976 218 976 z "},"Ÿ":{"ha":749,"x_min":18,"x_max":729,"o":"m 711 886 q 729 860 729 876 q 722 838 729 849 l 408 346 l 408 36 q 372 0 408 0 q 336 36 336 0 l 336 346 l 25 838 q 18 858 18 849 q 38 888 18 875 q 58 894 49 894 q 88 875 75 894 l 372 424 l 661 876 q 689 893 672 893 q 711 886 700 893 m 260 1013 q 230 1023 240 1013 q 219 1053 219 1033 l 219 1079 q 230 1109 219 1099 q 260 1119 240 1119 l 286 1119 q 325 1079 325 1119 l 325 1053 q 286 1013 325 1013 l 260 1013 m 467 1013 q 437 1023 447 1013 q 426 1053 426 1033 l 426 1079 q 437 1109 426 1099 q 467 1119 447 1119 l 493 1119 q 532 1079 532 1119 l 532 1053 q 493 1013 532 1013 l 467 1013 z "},"Ỵ":{"ha":749,"x_min":18,"x_max":729,"o":"m 711 886 q 729 860 729 876 q 722 838 729 849 l 408 346 l 408 36 q 372 0 408 0 q 336 36 336 0 l 336 346 l 25 838 q 18 858 18 849 q 38 888 18 875 q 58 894 49 894 q 88 875 75 894 l 372 424 l 661 876 q 689 893 672 893 q 711 886 700 893 m 363 -211 q 333 -201 343 -211 q 322 -171 322 -190 l 322 -144 q 333 -115 322 -125 q 363 -104 343 -104 l 389 -104 q 428 -144 428 -104 l 428 -171 q 389 -211 428 -211 l 363 -211 z "},"Ỳ":{"ha":749,"x_min":18,"x_max":729,"o":"m 711 886 q 729 860 729 876 q 722 838 729 849 l 408 346 l 408 36 q 372 0 408 0 q 336 36 336 0 l 336 346 l 25 838 q 18 858 18 849 q 38 888 18 875 q 58 894 49 894 q 88 875 75 894 l 372 424 l 661 876 q 689 893 672 893 q 711 886 700 893 m 419 975 q 397 965 410 965 q 371 979 383 965 l 251 1121 q 243 1144 243 1133 q 257 1169 243 1157 q 279 1179 267 1179 q 306 1165 293 1179 l 425 1024 q 433 1000 433 1011 q 419 975 433 988 z "},"Ỷ":{"ha":749,"x_min":18,"x_max":729,"o":"m 711 886 q 729 860 729 876 q 722 838 729 849 l 408 346 l 408 36 q 372 0 408 0 q 336 36 336 0 l 336 346 l 25 838 q 18 858 18 849 q 38 888 18 875 q 58 894 49 894 q 88 875 75 894 l 372 424 l 661 876 q 689 893 672 893 q 711 886 700 893 m 375 972 q 343 1003 343 972 q 362 1063 343 1042 q 410 1103 381 1085 q 437 1122 431 1115 q 443 1142 443 1129 q 432 1185 443 1174 q 389 1197 421 1197 q 345 1185 357 1197 q 333 1142 333 1174 q 303 1110 333 1110 q 271 1142 271 1110 q 389 1260 271 1260 q 506 1142 506 1260 q 487 1085 506 1106 q 442 1049 468 1064 q 413 1025 419 1033 q 407 1003 407 1017 q 375 972 407 972 z "},"Ȳ":{"ha":749,"x_min":18,"x_max":729,"o":"m 711 886 q 729 860 729 876 q 722 838 729 849 l 408 346 l 408 36 q 372 0 408 0 q 336 36 336 0 l 336 346 l 25 838 q 18 858 18 849 q 38 888 18 875 q 58 894 49 894 q 88 875 75 894 l 372 424 l 661 876 q 689 893 672 893 q 711 886 700 893 m 199 1053 q 163 1089 163 1053 q 199 1125 163 1125 l 550 1125 q 586 1089 586 1125 q 550 1053 586 1053 l 199 1053 z "},"Ỹ":{"ha":749,"x_min":18,"x_max":729,"o":"m 711 886 q 729 860 729 876 q 722 838 729 849 l 408 346 l 408 36 q 372 0 408 0 q 336 36 336 0 l 336 346 l 25 838 q 18 858 18 849 q 38 888 18 875 q 58 894 49 894 q 88 875 75 894 l 372 424 l 661 876 q 689 893 672 893 q 711 886 700 893 m 461 1007 q 404 1021 426 1007 q 358 1058 382 1035 q 327 1085 339 1078 q 297 1092 315 1092 q 260 1079 274 1092 q 235 1033 247 1067 q 199 1010 226 1006 q 177 1019 185 1011 q 169 1040 169 1028 q 172 1053 169 1044 q 221 1133 192 1108 q 297 1158 250 1158 q 358 1144 335 1158 q 407 1104 382 1129 q 435 1080 425 1086 q 461 1074 446 1074 q 497 1087 483 1074 q 521 1131 511 1100 q 557 1154 531 1158 q 578 1144 571 1153 q 586 1124 586 1136 q 585 1113 586 1117 q 535 1033 565 1060 q 461 1007 506 1007 z "},"Z":{"ha":857,"x_min":58,"x_max":799,"o":"m 761 206 q 790 196 781 206 q 797 168 799 186 q 737 42 789 85 q 593 0 685 0 l 119 0 q 81 36 81 0 q 85 56 81 46 q 99 75 90 65 l 660 822 l 264 822 q 171 799 203 822 q 133 724 139 775 q 122 697 131 706 q 94 689 113 689 q 68 699 78 689 q 60 726 58 710 q 121 851 69 808 q 264 894 172 894 l 724 894 q 760 858 760 894 q 744 815 760 836 l 188 72 l 593 72 q 686 96 654 72 q 725 171 718 119 q 761 206 729 206 z "},"Ź":{"ha":857,"x_min":60,"x_max":797,"o":"m 761 206 q 790 196 781 206 q 797 168 799 186 q 737 42 789 85 q 593 0 685 0 l 119 0 q 81 36 81 0 q 85 56 81 46 q 99 75 90 65 l 660 822 l 264 822 q 171 799 203 822 q 133 724 139 775 q 122 697 131 706 q 94 689 113 689 q 68 699 78 689 q 60 726 58 710 q 121 851 69 808 q 264 894 172 894 l 724 894 q 760 858 760 894 q 744 815 760 836 l 188 72 l 593 72 q 686 96 654 72 q 725 171 718 119 q 761 206 729 206 m 419 981 q 406 1006 406 993 q 414 1029 406 1017 l 533 1171 q 560 1185 546 1185 q 582 1175 572 1185 q 596 1150 596 1163 q 588 1126 596 1139 l 468 985 q 442 971 456 971 q 419 981 429 971 z "},"Ž":{"ha":857,"x_min":60,"x_max":797,"o":"m 761 206 q 790 196 781 206 q 797 168 799 186 q 737 42 789 85 q 593 0 685 0 l 119 0 q 81 36 81 0 q 85 56 81 46 q 99 75 90 65 l 660 822 l 264 822 q 171 799 203 822 q 133 724 139 775 q 122 697 131 706 q 94 689 113 689 q 68 699 78 689 q 60 726 58 710 q 121 851 69 808 q 264 894 172 894 l 724 894 q 760 858 760 894 q 744 815 760 836 l 188 72 l 593 72 q 686 96 654 72 q 725 171 718 119 q 761 206 729 206 m 315 1181 q 339 1171 329 1181 l 476 1057 l 490 1057 l 628 1171 q 651 1181 638 1181 q 676 1171 665 1181 q 686 1146 686 1161 q 672 1118 686 1129 l 535 1003 q 492 988 515 988 l 475 988 q 432 1003 451 988 l 294 1118 q 281 1146 281 1129 q 290 1171 281 1161 q 315 1181 300 1181 z "},"Ż":{"ha":857,"x_min":60,"x_max":797,"o":"m 761 206 q 790 196 781 206 q 797 168 799 186 q 737 42 789 85 q 593 0 685 0 l 119 0 q 81 36 81 0 q 85 56 81 46 q 99 75 90 65 l 660 822 l 264 822 q 171 799 203 822 q 133 724 139 775 q 122 697 131 706 q 94 689 113 689 q 68 699 78 689 q 60 726 58 710 q 121 851 69 808 q 264 894 172 894 l 724 894 q 760 858 760 894 q 744 815 760 836 l 188 72 l 593 72 q 686 96 654 72 q 725 171 718 119 q 761 206 729 206 m 440 1021 q 404 1033 417 1021 q 392 1069 392 1046 l 392 1100 q 404 1136 392 1124 q 440 1149 417 1149 l 472 1149 q 518 1100 518 1149 l 518 1069 q 472 1021 518 1021 l 440 1021 z "},"a":{"ha":815,"x_min":101,"x_max":699,"o":"m 449 656 q 639 596 579 656 q 699 406 699 536 l 699 36 q 663 0 699 0 q 626 36 626 0 l 626 104 q 533 26 593 53 q 388 0 472 0 l 310 0 q 152 50 203 0 q 101 208 101 100 q 152 367 101 317 q 310 418 203 418 l 626 418 q 585 547 624 510 q 449 583 546 583 l 368 583 q 239 565 279 583 q 189 500 199 546 q 175 474 183 482 q 151 467 167 467 q 123 476 132 467 q 115 504 114 486 q 187 619 125 583 q 368 656 249 656 l 449 656 m 626 222 l 626 346 l 310 346 q 203 316 232 346 q 174 208 174 286 q 203 102 174 132 q 310 72 233 72 l 388 72 q 624 211 603 72 l 626 222 z "},"á":{"ha":815,"x_min":101,"x_max":699,"o":"m 449 656 q 639 596 579 656 q 699 406 699 536 l 699 36 q 663 0 699 0 q 626 36 626 0 l 626 104 q 533 26 593 53 q 388 0 472 0 l 310 0 q 152 50 203 0 q 101 208 101 100 q 152 367 101 317 q 310 418 203 418 l 626 418 q 585 547 624 510 q 449 583 546 583 l 368 583 q 239 565 279 583 q 189 500 199 546 q 175 474 183 482 q 151 467 167 467 q 123 476 132 467 q 115 504 114 486 q 187 619 125 583 q 368 656 249 656 l 449 656 m 626 222 l 626 346 l 310 346 q 203 316 232 346 q 174 208 174 286 q 203 102 174 132 q 310 72 233 72 l 388 72 q 624 211 603 72 l 626 222 m 367 742 q 353 767 353 754 q 361 790 353 778 l 481 932 q 507 946 493 946 q 529 936 519 946 q 543 911 543 924 q 535 888 543 900 l 415 746 q 389 732 403 732 q 367 742 376 732 z "},"ă":{"ha":815,"x_min":101,"x_max":699,"o":"m 449 656 q 639 596 579 656 q 699 406 699 536 l 699 36 q 663 0 699 0 q 626 36 626 0 l 626 104 q 533 26 593 53 q 388 0 472 0 l 310 0 q 152 50 203 0 q 101 208 101 100 q 152 367 101 317 q 310 418 203 418 l 626 418 q 585 547 624 510 q 449 583 546 583 l 368 583 q 239 565 279 583 q 189 500 199 546 q 175 474 183 482 q 151 467 167 467 q 123 476 132 467 q 115 504 114 486 q 187 619 125 583 q 368 656 249 656 l 449 656 m 626 222 l 626 346 l 310 346 q 203 316 232 346 q 174 208 174 286 q 203 102 174 132 q 310 72 233 72 l 388 72 q 624 211 603 72 l 626 222 m 408 732 q 278 773 322 732 q 233 892 233 814 l 233 901 q 268 936 233 936 q 301 901 301 936 l 301 892 q 326 821 301 843 q 408 799 351 799 q 490 820 465 799 q 514 892 514 842 l 514 906 q 549 936 514 936 q 582 901 582 936 l 582 892 q 538 772 582 813 q 408 732 493 732 z "},"ắ":{"ha":815,"x_min":101,"x_max":699,"o":"m 449 656 q 639 596 579 656 q 699 406 699 536 l 699 36 q 663 0 699 0 q 626 36 626 0 l 626 104 q 533 26 593 53 q 388 0 472 0 l 310 0 q 152 50 203 0 q 101 208 101 100 q 152 367 101 317 q 310 418 203 418 l 626 418 q 585 547 624 510 q 449 583 546 583 l 368 583 q 239 565 279 583 q 189 500 199 546 q 175 474 183 482 q 151 467 167 467 q 123 476 132 467 q 115 504 114 486 q 187 619 125 583 q 368 656 249 656 l 449 656 m 626 222 l 626 346 l 310 346 q 203 316 232 346 q 174 208 174 286 q 203 102 174 132 q 310 72 233 72 l 388 72 q 624 211 603 72 l 626 222 m 403 732 q 272 773 317 732 q 228 892 228 814 l 228 901 q 263 936 228 936 q 296 901 296 936 l 296 892 q 321 821 296 843 q 403 799 346 799 q 484 820 460 799 q 508 892 508 842 l 508 906 q 543 936 508 936 q 576 901 576 936 l 576 892 q 532 772 576 813 q 403 732 488 732 m 368 924 q 354 949 354 936 q 363 972 354 960 l 482 1114 q 508 1128 494 1128 q 531 1118 521 1128 q 544 1093 544 1106 q 536 1069 544 1082 l 417 928 q 390 914 404 914 q 368 924 378 914 z "},"ặ":{"ha":815,"x_min":101,"x_max":699,"o":"m 449 656 q 639 596 579 656 q 699 406 699 536 l 699 36 q 663 0 699 0 q 626 36 626 0 l 626 104 q 533 26 593 53 q 388 0 472 0 l 310 0 q 152 50 203 0 q 101 208 101 100 q 152 367 101 317 q 310 418 203 418 l 626 418 q 585 547 624 510 q 449 583 546 583 l 368 583 q 239 565 279 583 q 189 500 199 546 q 175 474 183 482 q 151 467 167 467 q 123 476 132 467 q 115 504 114 486 q 187 619 125 583 q 368 656 249 656 l 449 656 m 626 222 l 626 346 l 310 346 q 203 316 232 346 q 174 208 174 286 q 203 102 174 132 q 310 72 233 72 l 388 72 q 624 211 603 72 l 626 222 m 390 -211 q 360 -201 371 -211 q 350 -171 350 -190 l 350 -144 q 360 -115 350 -125 q 390 -104 371 -104 l 417 -104 q 456 -144 456 -104 l 456 -171 q 417 -211 456 -211 l 390 -211 m 408 732 q 278 773 322 732 q 233 892 233 814 l 233 901 q 268 936 233 936 q 301 901 301 936 l 301 892 q 326 821 301 843 q 408 799 351 799 q 490 820 465 799 q 514 892 514 842 l 514 906 q 549 936 514 936 q 582 901 582 936 l 582 892 q 538 772 582 813 q 408 732 493 732 z "},"ằ":{"ha":815,"x_min":101,"x_max":699,"o":"m 449 656 q 639 596 579 656 q 699 406 699 536 l 699 36 q 663 0 699 0 q 626 36 626 0 l 626 104 q 533 26 593 53 q 388 0 472 0 l 310 0 q 152 50 203 0 q 101 208 101 100 q 152 367 101 317 q 310 418 203 418 l 626 418 q 585 547 624 510 q 449 583 546 583 l 368 583 q 239 565 279 583 q 189 500 199 546 q 175 474 183 482 q 151 467 167 467 q 123 476 132 467 q 115 504 114 486 q 187 619 125 583 q 368 656 249 656 l 449 656 m 626 222 l 626 346 l 310 346 q 203 316 232 346 q 174 208 174 286 q 203 102 174 132 q 310 72 233 72 l 388 72 q 624 211 603 72 l 626 222 m 403 732 q 272 773 317 732 q 228 892 228 814 l 228 901 q 263 936 228 936 q 296 901 296 936 l 296 892 q 321 821 296 843 q 403 799 346 799 q 484 820 460 799 q 508 892 508 842 l 508 906 q 543 936 508 936 q 576 901 576 936 l 576 892 q 532 772 576 813 q 403 732 488 732 m 431 925 q 408 915 421 915 q 382 929 394 915 l 263 1071 q 254 1094 254 1083 q 268 1119 254 1107 q 290 1129 278 1129 q 317 1115 304 1129 l 436 974 q 444 950 444 961 q 431 925 444 938 z "},"ẳ":{"ha":815,"x_min":101,"x_max":699,"o":"m 449 656 q 639 596 579 656 q 699 406 699 536 l 699 36 q 663 0 699 0 q 626 36 626 0 l 626 104 q 533 26 593 53 q 388 0 472 0 l 310 0 q 152 50 203 0 q 101 208 101 100 q 152 367 101 317 q 310 418 203 418 l 626 418 q 585 547 624 510 q 449 583 546 583 l 368 583 q 239 565 279 583 q 189 500 199 546 q 175 474 183 482 q 151 467 167 467 q 123 476 132 467 q 115 504 114 486 q 187 619 125 583 q 368 656 249 656 l 449 656 m 626 222 l 626 346 l 310 346 q 203 316 232 346 q 174 208 174 286 q 203 102 174 132 q 310 72 233 72 l 388 72 q 624 211 603 72 l 626 222 m 403 732 q 272 773 317 732 q 228 892 228 814 l 228 901 q 263 936 228 936 q 296 901 296 936 l 296 892 q 321 821 296 843 q 403 799 346 799 q 484 820 460 799 q 508 892 508 842 l 508 906 q 543 936 508 936 q 576 901 576 936 l 576 892 q 532 772 576 813 q 403 732 488 732 m 403 888 q 371 918 371 888 q 390 978 371 957 q 438 1018 408 1000 q 465 1038 458 1031 q 471 1057 471 1044 q 460 1101 471 1089 q 417 1113 449 1113 q 373 1101 385 1113 q 361 1057 361 1089 q 331 1025 361 1025 q 299 1057 299 1025 q 417 1175 299 1175 q 533 1057 533 1175 q 515 1000 533 1021 q 469 964 496 979 q 441 940 447 949 q 435 918 435 932 q 403 888 435 888 z "},"ẵ":{"ha":815,"x_min":101,"x_max":699,"o":"m 449 656 q 639 596 579 656 q 699 406 699 536 l 699 36 q 663 0 699 0 q 626 36 626 0 l 626 104 q 533 26 593 53 q 388 0 472 0 l 310 0 q 152 50 203 0 q 101 208 101 100 q 152 367 101 317 q 310 418 203 418 l 626 418 q 585 547 624 510 q 449 583 546 583 l 368 583 q 239 565 279 583 q 189 500 199 546 q 175 474 183 482 q 151 467 167 467 q 123 476 132 467 q 115 504 114 486 q 187 619 125 583 q 368 656 249 656 l 449 656 m 626 222 l 626 346 l 310 346 q 203 316 232 346 q 174 208 174 286 q 203 102 174 132 q 310 72 233 72 l 388 72 q 624 211 603 72 l 626 222 m 400 732 q 269 773 314 732 q 225 892 225 814 l 225 901 q 260 936 225 936 q 293 901 293 936 l 293 892 q 318 821 293 843 q 400 799 343 799 q 481 820 457 799 q 506 892 506 842 l 506 906 q 540 936 506 936 q 574 901 574 936 l 574 892 q 529 772 574 813 q 400 732 485 732 m 464 981 q 421 993 439 981 q 381 1029 403 1006 q 358 1052 368 1044 q 339 1060 349 1060 q 315 1049 324 1060 q 290 1006 306 1039 q 254 982 279 978 q 233 992 240 983 q 225 1013 225 1001 q 228 1026 225 1018 q 274 1101 250 1078 q 338 1125 299 1125 q 381 1113 363 1125 q 421 1076 399 1100 q 445 1053 436 1060 q 464 1046 454 1046 q 486 1057 478 1046 q 506 1097 494 1068 q 542 1121 515 1125 q 567 1106 560 1119 q 569 1078 574 1093 q 527 1006 554 1031 q 464 981 500 981 z "},"â":{"ha":815,"x_min":101,"x_max":699,"o":"m 449 656 q 639 596 579 656 q 699 406 699 536 l 699 36 q 663 0 699 0 q 626 36 626 0 l 626 104 q 533 26 593 53 q 388 0 472 0 l 310 0 q 152 50 203 0 q 101 208 101 100 q 152 367 101 317 q 310 418 203 418 l 626 418 q 585 547 624 510 q 449 583 546 583 l 368 583 q 239 565 279 583 q 189 500 199 546 q 175 474 183 482 q 151 467 167 467 q 123 476 132 467 q 115 504 114 486 q 187 619 125 583 q 368 656 249 656 l 449 656 m 626 222 l 626 346 l 310 346 q 203 316 232 346 q 174 208 174 286 q 203 102 174 132 q 310 72 233 72 l 388 72 q 624 211 603 72 l 626 222 m 272 733 q 249 744 258 733 q 239 768 239 754 q 246 789 239 779 l 353 924 q 394 943 371 943 l 415 943 q 456 924 440 943 l 563 789 q 571 768 571 778 q 560 744 571 754 q 536 733 550 733 q 510 747 519 733 l 410 876 l 400 876 l 299 747 q 272 733 289 733 z "},"ấ":{"ha":815,"x_min":101,"x_max":699,"o":"m 449 656 q 639 596 579 656 q 699 406 699 536 l 699 36 q 663 0 699 0 q 626 36 626 0 l 626 104 q 533 26 593 53 q 388 0 472 0 l 310 0 q 152 50 203 0 q 101 208 101 100 q 152 367 101 317 q 310 418 203 418 l 626 418 q 585 547 624 510 q 449 583 546 583 l 368 583 q 239 565 279 583 q 189 500 199 546 q 175 474 183 482 q 151 467 167 467 q 123 476 132 467 q 115 504 114 486 q 187 619 125 583 q 368 656 249 656 l 449 656 m 626 222 l 626 346 l 310 346 q 203 316 232 346 q 174 208 174 286 q 203 102 174 132 q 310 72 233 72 l 388 72 q 624 211 603 72 l 626 222 m 540 860 q 526 885 526 872 q 536 908 526 897 l 621 1004 q 647 1019 633 1019 q 669 1010 657 1019 q 683 983 683 997 q 674 961 683 971 l 589 864 q 563 850 576 850 q 540 860 550 850 m 271 733 q 247 744 257 733 q 238 768 238 754 q 244 789 238 779 l 351 924 q 393 943 369 943 l 414 943 q 454 924 439 943 l 561 789 q 569 768 569 778 q 559 744 569 754 q 535 733 549 733 q 508 747 518 733 l 408 876 l 399 876 l 297 747 q 271 733 288 733 z "},"ậ":{"ha":815,"x_min":101,"x_max":699,"o":"m 449 656 q 639 596 579 656 q 699 406 699 536 l 699 36 q 663 0 699 0 q 626 36 626 0 l 626 104 q 533 26 593 53 q 388 0 472 0 l 310 0 q 152 50 203 0 q 101 208 101 100 q 152 367 101 317 q 310 418 203 418 l 626 418 q 585 547 624 510 q 449 583 546 583 l 368 583 q 239 565 279 583 q 189 500 199 546 q 175 474 183 482 q 151 467 167 467 q 123 476 132 467 q 115 504 114 486 q 187 619 125 583 q 368 656 249 656 l 449 656 m 626 222 l 626 346 l 310 346 q 203 316 232 346 q 174 208 174 286 q 203 102 174 132 q 310 72 233 72 l 388 72 q 624 211 603 72 l 626 222 m 390 -211 q 360 -201 371 -211 q 350 -171 350 -190 l 350 -144 q 360 -115 350 -125 q 390 -104 371 -104 l 417 -104 q 456 -144 456 -104 l 456 -171 q 417 -211 456 -211 l 390 -211 m 272 733 q 249 744 258 733 q 239 768 239 754 q 246 789 239 779 l 353 924 q 394 943 371 943 l 415 943 q 456 924 440 943 l 563 789 q 571 768 571 778 q 560 744 571 754 q 536 733 550 733 q 510 747 519 733 l 410 876 l 400 876 l 299 747 q 272 733 289 733 z "},"ầ":{"ha":815,"x_min":101,"x_max":699,"o":"m 449 656 q 639 596 579 656 q 699 406 699 536 l 699 36 q 663 0 699 0 q 626 36 626 0 l 626 104 q 533 26 593 53 q 388 0 472 0 l 310 0 q 152 50 203 0 q 101 208 101 100 q 152 367 101 317 q 310 418 203 418 l 626 418 q 585 547 624 510 q 449 583 546 583 l 368 583 q 239 565 279 583 q 189 500 199 546 q 175 474 183 482 q 151 467 167 467 q 123 476 132 467 q 115 504 114 486 q 187 619 125 583 q 368 656 249 656 l 449 656 m 626 222 l 626 346 l 310 346 q 203 316 232 346 q 174 208 174 286 q 203 102 174 132 q 310 72 233 72 l 388 72 q 624 211 603 72 l 626 222 m 265 860 q 243 850 256 850 q 217 864 229 850 l 132 961 q 124 982 124 972 q 138 1010 124 997 q 160 1019 150 1019 q 186 1004 174 1019 l 271 908 q 279 886 279 896 q 265 860 279 872 m 271 733 q 247 744 257 733 q 238 768 238 754 q 244 789 238 779 l 351 924 q 393 943 369 943 l 414 943 q 454 924 439 943 l 561 789 q 569 768 569 778 q 559 744 569 754 q 535 733 549 733 q 508 747 518 733 l 408 876 l 399 876 l 297 747 q 271 733 288 733 z "},"ẩ":{"ha":815,"x_min":101,"x_max":699,"o":"m 449 656 q 639 596 579 656 q 699 406 699 536 l 699 36 q 663 0 699 0 q 626 36 626 0 l 626 104 q 533 26 593 53 q 388 0 472 0 l 310 0 q 152 50 203 0 q 101 208 101 100 q 152 367 101 317 q 310 418 203 418 l 626 418 q 585 547 624 510 q 449 583 546 583 l 368 583 q 239 565 279 583 q 189 500 199 546 q 175 474 183 482 q 151 467 167 467 q 123 476 132 467 q 115 504 114 486 q 187 619 125 583 q 368 656 249 656 l 449 656 m 626 222 l 626 346 l 310 346 q 203 316 232 346 q 174 208 174 286 q 203 102 174 132 q 310 72 233 72 l 388 72 q 624 211 603 72 l 626 222 m 271 733 q 247 744 257 733 q 238 768 238 754 q 244 789 238 779 l 351 924 q 393 943 369 943 l 414 943 q 454 924 439 943 l 561 789 q 569 768 569 778 q 559 744 569 754 q 535 733 549 733 q 508 747 518 733 l 408 876 l 399 876 l 297 747 q 271 733 288 733 m 563 854 q 531 885 531 854 q 549 945 531 924 q 597 985 568 967 q 624 1004 618 997 q 631 1024 631 1011 q 619 1067 631 1056 q 576 1079 608 1079 q 533 1067 544 1079 q 521 1024 521 1056 q 490 992 521 992 q 458 1024 458 992 q 576 1142 458 1142 q 693 1024 693 1142 q 674 967 693 988 q 629 931 656 946 q 601 907 607 915 q 594 885 594 899 q 563 854 594 854 z "},"ẫ":{"ha":815,"x_min":101,"x_max":699,"o":"m 449 656 q 639 596 579 656 q 699 406 699 536 l 699 36 q 663 0 699 0 q 626 36 626 0 l 626 104 q 533 26 593 53 q 388 0 472 0 l 310 0 q 152 50 203 0 q 101 208 101 100 q 152 367 101 317 q 310 418 203 418 l 626 418 q 585 547 624 510 q 449 583 546 583 l 368 583 q 239 565 279 583 q 189 500 199 546 q 175 474 183 482 q 151 467 167 467 q 123 476 132 467 q 115 504 114 486 q 187 619 125 583 q 368 656 249 656 l 449 656 m 626 222 l 626 346 l 310 346 q 203 316 232 346 q 174 208 174 286 q 203 102 174 132 q 310 72 233 72 l 388 72 q 624 211 603 72 l 626 222 m 271 733 q 247 744 257 733 q 238 768 238 754 q 244 789 238 779 l 351 924 q 393 943 369 943 l 414 943 q 454 924 439 943 l 561 789 q 569 768 569 778 q 559 744 569 754 q 535 733 549 733 q 508 747 518 733 l 408 876 l 399 876 l 297 747 q 271 733 288 733 m 474 976 q 431 989 449 976 q 390 1025 413 1001 q 368 1048 378 1040 q 349 1056 358 1056 q 324 1045 333 1056 q 300 1001 315 1035 q 264 978 289 974 q 242 988 250 979 q 235 1008 235 997 q 238 1022 235 1014 q 284 1097 260 1074 q 347 1121 308 1121 q 390 1108 372 1121 q 431 1072 408 1096 q 455 1049 446 1056 q 474 1042 464 1042 q 496 1053 488 1042 q 515 1093 504 1064 q 551 1117 525 1121 q 576 1102 569 1115 q 579 1074 583 1089 q 537 1001 564 1026 q 474 976 510 976 z "},"ȁ":{"ha":815,"x_min":101,"x_max":699,"o":"m 196 889 q 189 910 189 900 q 201 933 189 924 q 221 942 213 942 q 244 929 232 942 l 353 801 q 360 782 360 790 q 347 758 360 769 q 328 750 338 750 q 304 763 317 750 l 196 889 m 350 889 q 343 910 343 900 q 356 933 343 924 q 375 942 367 942 q 399 929 386 942 l 507 801 q 514 782 514 790 q 501 758 514 769 q 482 750 492 750 q 458 763 471 750 l 350 889 m 449 656 q 639 596 579 656 q 699 406 699 536 l 699 36 q 663 0 699 0 q 626 36 626 0 l 626 104 q 533 26 593 53 q 388 0 472 0 l 310 0 q 152 50 203 0 q 101 208 101 100 q 152 367 101 317 q 310 418 203 418 l 626 418 q 585 547 624 510 q 449 583 546 583 l 368 583 q 239 565 279 583 q 189 500 199 546 q 175 474 183 482 q 151 467 167 467 q 123 476 132 467 q 115 504 114 486 q 187 619 125 583 q 368 656 249 656 l 449 656 m 626 222 l 626 346 l 310 346 q 203 316 232 346 q 174 208 174 286 q 203 102 174 132 q 310 72 233 72 l 388 72 q 624 211 603 72 l 626 222 z "},"ä":{"ha":815,"x_min":101,"x_max":699,"o":"m 449 656 q 639 596 579 656 q 699 406 699 536 l 699 36 q 663 0 699 0 q 626 36 626 0 l 626 104 q 533 26 593 53 q 388 0 472 0 l 310 0 q 152 50 203 0 q 101 208 101 100 q 152 367 101 317 q 310 418 203 418 l 626 418 q 585 547 624 510 q 449 583 546 583 l 368 583 q 239 565 279 583 q 189 500 199 546 q 175 474 183 482 q 151 467 167 467 q 123 476 132 467 q 115 504 114 486 q 187 619 125 583 q 368 656 249 656 l 449 656 m 626 222 l 626 346 l 310 346 q 203 316 232 346 q 174 208 174 286 q 203 102 174 132 q 310 72 233 72 l 388 72 q 624 211 603 72 l 626 222 m 288 774 q 258 784 268 774 q 247 814 247 794 l 247 840 q 258 870 247 860 q 288 881 268 881 l 314 881 q 353 840 353 881 l 353 814 q 314 774 353 774 l 288 774 m 494 774 q 465 784 475 774 q 454 814 454 794 l 454 840 q 465 870 454 860 q 494 881 475 881 l 521 881 q 560 840 560 881 l 560 814 q 521 774 560 774 l 494 774 z "},"ạ":{"ha":815,"x_min":101,"x_max":699,"o":"m 449 656 q 639 596 579 656 q 699 406 699 536 l 699 36 q 663 0 699 0 q 626 36 626 0 l 626 104 q 533 26 593 53 q 388 0 472 0 l 310 0 q 152 50 203 0 q 101 208 101 100 q 152 367 101 317 q 310 418 203 418 l 626 418 q 585 547 624 510 q 449 583 546 583 l 368 583 q 239 565 279 583 q 189 500 199 546 q 175 474 183 482 q 151 467 167 467 q 123 476 132 467 q 115 504 114 486 q 187 619 125 583 q 368 656 249 656 l 449 656 m 626 222 l 626 346 l 310 346 q 203 316 232 346 q 174 208 174 286 q 203 102 174 132 q 310 72 233 72 l 388 72 q 624 211 603 72 l 626 222 m 390 -211 q 360 -201 371 -211 q 350 -171 350 -190 l 350 -144 q 360 -115 350 -125 q 390 -104 371 -104 l 417 -104 q 456 -144 456 -104 l 456 -171 q 417 -211 456 -211 l 390 -211 z "},"à":{"ha":815,"x_min":101,"x_max":699,"o":"m 449 656 q 639 596 579 656 q 699 406 699 536 l 699 36 q 663 0 699 0 q 626 36 626 0 l 626 104 q 533 26 593 53 q 388 0 472 0 l 310 0 q 152 50 203 0 q 101 208 101 100 q 152 367 101 317 q 310 418 203 418 l 626 418 q 585 547 624 510 q 449 583 546 583 l 368 583 q 239 565 279 583 q 189 500 199 546 q 175 474 183 482 q 151 467 167 467 q 123 476 132 467 q 115 504 114 486 q 187 619 125 583 q 368 656 249 656 l 449 656 m 626 222 l 626 346 l 310 346 q 203 316 232 346 q 174 208 174 286 q 203 102 174 132 q 310 72 233 72 l 388 72 q 624 211 603 72 l 626 222 m 447 736 q 425 726 438 726 q 399 740 411 726 l 279 882 q 271 906 271 894 q 285 931 271 918 q 307 940 294 940 q 333 926 321 940 l 453 785 q 461 761 461 772 q 447 736 461 749 z "},"ả":{"ha":815,"x_min":101,"x_max":699,"o":"m 449 656 q 639 596 579 656 q 699 406 699 536 l 699 36 q 663 0 699 0 q 626 36 626 0 l 626 104 q 533 26 593 53 q 388 0 472 0 l 310 0 q 152 50 203 0 q 101 208 101 100 q 152 367 101 317 q 310 418 203 418 l 626 418 q 585 547 624 510 q 449 583 546 583 l 368 583 q 239 565 279 583 q 189 500 199 546 q 175 474 183 482 q 151 467 167 467 q 123 476 132 467 q 115 504 114 486 q 187 619 125 583 q 368 656 249 656 l 449 656 m 626 222 l 626 346 l 310 346 q 203 316 232 346 q 174 208 174 286 q 203 102 174 132 q 310 72 233 72 l 388 72 q 624 211 603 72 l 626 222 m 403 733 q 371 764 371 733 q 390 824 371 803 q 438 864 408 846 q 465 883 458 876 q 471 903 471 890 q 460 947 471 935 q 417 958 449 958 q 373 947 385 958 q 361 903 361 935 q 331 871 361 871 q 299 903 299 871 q 417 1021 299 1021 q 533 903 533 1021 q 515 846 533 867 q 469 810 496 825 q 441 786 447 794 q 435 764 435 778 q 403 733 435 733 z "},"ȃ":{"ha":815,"x_min":101,"x_max":699,"o":"m 449 656 q 639 596 579 656 q 699 406 699 536 l 699 36 q 663 0 699 0 q 626 36 626 0 l 626 104 q 533 26 593 53 q 388 0 472 0 l 310 0 q 152 50 203 0 q 101 208 101 100 q 152 367 101 317 q 310 418 203 418 l 626 418 q 585 547 624 510 q 449 583 546 583 l 368 583 q 239 565 279 583 q 189 500 199 546 q 175 474 183 482 q 151 467 167 467 q 123 476 132 467 q 115 504 114 486 q 187 619 125 583 q 368 656 249 656 l 449 656 m 626 222 l 626 346 l 310 346 q 203 316 232 346 q 174 208 174 286 q 203 102 174 132 q 310 72 233 72 l 388 72 q 624 211 603 72 l 626 222 m 404 956 q 533 915 489 956 q 578 796 578 875 l 578 786 q 544 751 578 751 q 510 782 510 751 l 510 796 q 485 867 510 846 q 404 889 461 889 q 322 867 347 889 q 297 796 297 844 l 297 786 q 264 751 297 751 q 229 786 229 751 l 229 796 q 274 915 229 874 q 404 956 318 956 z "},"ā":{"ha":815,"x_min":101,"x_max":699,"o":"m 449 656 q 639 596 579 656 q 699 406 699 536 l 699 36 q 663 0 699 0 q 626 36 626 0 l 626 104 q 533 26 593 53 q 388 0 472 0 l 310 0 q 152 50 203 0 q 101 208 101 100 q 152 367 101 317 q 310 418 203 418 l 626 418 q 585 547 624 510 q 449 583 546 583 l 368 583 q 239 565 279 583 q 189 500 199 546 q 175 474 183 482 q 151 467 167 467 q 123 476 132 467 q 115 504 114 486 q 187 619 125 583 q 368 656 249 656 l 449 656 m 626 222 l 626 346 l 310 346 q 203 316 232 346 q 174 208 174 286 q 203 102 174 132 q 310 72 233 72 l 388 72 q 624 211 603 72 l 626 222 m 226 814 q 190 850 190 814 q 226 886 190 886 l 578 886 q 614 850 614 886 q 578 814 614 814 l 226 814 z "},"ą":{"ha":815,"x_min":101,"x_max":796,"o":"m 763 -124 q 786 -133 776 -124 q 796 -158 796 -143 q 786 -182 796 -174 q 726 -224 760 -210 q 660 -239 693 -239 q 569 -206 606 -239 q 532 -125 532 -174 q 564 -40 532 -79 l 626 43 l 626 104 q 533 26 593 53 q 388 0 472 0 l 310 0 q 152 50 203 0 q 101 208 101 100 q 152 367 101 317 q 310 418 203 418 l 626 418 q 585 547 624 510 q 449 583 546 583 l 368 583 q 239 565 279 583 q 189 500 199 546 q 175 474 183 482 q 151 467 167 467 q 123 476 132 467 q 115 504 114 486 q 187 619 125 583 q 368 656 249 656 l 449 656 q 639 596 579 656 q 699 406 699 536 l 699 36 q 685 6 699 14 l 619 -82 q 600 -125 600 -106 q 617 -158 600 -144 q 660 -171 633 -171 q 738 -133 700 -171 q 763 -124 750 -124 m 626 222 l 626 346 l 310 346 q 203 316 232 346 q 174 208 174 286 q 203 102 174 132 q 310 72 233 72 l 388 72 q 624 211 603 72 l 626 222 z "},"å":{"ha":815,"x_min":101,"x_max":699,"o":"m 449 656 q 639 596 579 656 q 699 406 699 536 l 699 36 q 663 0 699 0 q 626 36 626 0 l 626 104 q 533 26 593 53 q 388 0 472 0 l 310 0 q 152 50 203 0 q 101 208 101 100 q 152 367 101 317 q 310 418 203 418 l 626 418 q 585 547 624 510 q 449 583 546 583 l 368 583 q 239 565 279 583 q 189 500 199 546 q 175 474 183 482 q 151 467 167 467 q 123 476 132 467 q 115 504 114 486 q 187 619 125 583 q 368 656 249 656 l 449 656 m 626 222 l 626 346 l 310 346 q 203 316 232 346 q 174 208 174 286 q 203 102 174 132 q 310 72 233 72 l 388 72 q 624 211 603 72 l 626 222 m 397 738 q 319 765 347 738 q 292 843 292 793 q 319 922 292 894 q 397 950 347 950 q 476 922 449 950 q 504 843 504 894 q 476 765 504 793 q 397 738 449 738 m 397 801 q 431 810 422 801 q 440 843 440 819 q 431 878 440 869 q 397 886 422 886 q 364 877 372 886 q 356 843 356 868 q 365 810 356 818 q 397 801 374 801 z "},"ǻ":{"ha":815,"x_min":101,"x_max":699,"o":"m 449 656 q 639 596 579 656 q 699 406 699 536 l 699 36 q 663 0 699 0 q 626 36 626 0 l 626 104 q 533 26 593 53 q 388 0 472 0 l 310 0 q 152 50 203 0 q 101 208 101 100 q 152 367 101 317 q 310 418 203 418 l 626 418 q 585 547 624 510 q 449 583 546 583 l 368 583 q 239 565 279 583 q 189 500 199 546 q 175 474 183 482 q 151 467 167 467 q 123 476 132 467 q 115 504 114 486 q 187 619 125 583 q 368 656 249 656 l 449 656 m 626 222 l 626 346 l 310 346 q 203 316 232 346 q 174 208 174 286 q 203 102 174 132 q 310 72 233 72 l 388 72 q 624 211 603 72 l 626 222 m 397 738 q 319 765 347 738 q 292 843 292 793 q 319 922 292 894 q 397 950 347 950 q 476 922 449 950 q 504 843 504 894 q 476 765 504 793 q 397 738 449 738 m 397 801 q 431 810 422 801 q 440 843 440 819 q 431 878 440 869 q 397 886 422 886 q 364 877 372 886 q 356 843 356 868 q 365 810 356 818 q 397 801 374 801 m 368 1039 q 354 1064 354 1051 q 363 1088 354 1075 l 482 1229 q 508 1243 494 1243 q 531 1233 521 1243 q 544 1208 544 1221 q 536 1185 544 1197 l 417 1043 q 390 1029 404 1029 q 368 1039 378 1029 z "},"ã":{"ha":815,"x_min":101,"x_max":699,"o":"m 449 656 q 639 596 579 656 q 699 406 699 536 l 699 36 q 663 0 699 0 q 626 36 626 0 l 626 104 q 533 26 593 53 q 388 0 472 0 l 310 0 q 152 50 203 0 q 101 208 101 100 q 152 367 101 317 q 310 418 203 418 l 626 418 q 585 547 624 510 q 449 583 546 583 l 368 583 q 239 565 279 583 q 189 500 199 546 q 175 474 183 482 q 151 467 167 467 q 123 476 132 467 q 115 504 114 486 q 187 619 125 583 q 368 656 249 656 l 449 656 m 626 222 l 626 346 l 310 346 q 203 316 232 346 q 174 208 174 286 q 203 102 174 132 q 310 72 233 72 l 388 72 q 624 211 603 72 l 626 222 m 489 768 q 432 782 454 768 q 386 819 410 796 q 355 846 367 839 q 325 853 343 853 q 288 840 301 853 q 263 794 275 828 q 226 771 254 767 q 205 781 213 772 q 197 801 197 789 q 200 814 197 806 q 249 894 219 869 q 325 919 278 919 q 386 905 363 919 q 435 865 410 890 q 463 841 453 847 q 489 835 474 835 q 525 848 511 835 q 549 892 539 861 q 585 915 558 919 q 606 906 599 914 q 614 885 614 897 q 613 874 614 878 q 563 794 593 821 q 489 768 533 768 z "},"æ":{"ha":1282,"x_min":101,"x_max":1171,"o":"m 842 -8 q 707 22 760 -8 q 628 114 654 51 q 360 -6 553 -6 l 310 -6 q 152 44 203 -6 q 101 203 101 94 q 152 361 101 311 q 310 411 203 411 l 599 411 q 557 540 596 503 q 421 576 518 576 l 368 576 q 225 551 265 576 q 185 460 185 525 q 174 434 185 444 q 149 424 164 424 q 123 434 133 424 q 113 460 113 444 q 174 603 113 558 q 368 649 236 649 l 421 649 q 635 539 581 649 q 843 647 690 649 l 926 647 q 1112 581 1053 647 q 1171 375 1171 515 q 1135 339 1171 339 l 671 339 l 671 244 q 709 103 671 143 q 842 64 747 64 l 926 64 q 1061 91 1024 64 q 1099 188 1099 118 q 1109 213 1099 203 q 1135 224 1119 224 q 1160 213 1150 224 q 1171 188 1171 203 q 1112 39 1171 86 q 926 -8 1053 -8 l 842 -8 m 1099 411 q 1053 538 1093 500 q 926 575 1014 575 l 843 575 q 713 540 750 576 q 672 411 675 503 l 1099 411 m 360 67 q 540 109 481 67 q 599 239 599 151 l 599 339 l 310 339 q 203 310 233 339 q 174 203 174 281 q 203 97 174 126 q 310 67 233 67 l 360 67 z "},"ǽ":{"ha":1282,"x_min":101,"x_max":1171,"o":"m 842 -8 q 707 22 760 -8 q 628 114 654 51 q 360 -6 553 -6 l 310 -6 q 152 44 203 -6 q 101 203 101 94 q 152 361 101 311 q 310 411 203 411 l 599 411 q 557 540 596 503 q 421 576 518 576 l 368 576 q 225 551 265 576 q 185 460 185 525 q 174 434 185 444 q 149 424 164 424 q 123 434 133 424 q 113 460 113 444 q 174 603 113 558 q 368 649 236 649 l 421 649 q 635 539 581 649 q 843 647 690 649 l 926 647 q 1112 581 1053 647 q 1171 375 1171 515 q 1135 339 1171 339 l 671 339 l 671 244 q 709 103 671 143 q 842 64 747 64 l 926 64 q 1061 91 1024 64 q 1099 188 1099 118 q 1109 213 1099 203 q 1135 224 1119 224 q 1160 213 1150 224 q 1171 188 1171 203 q 1112 39 1171 86 q 926 -8 1053 -8 l 842 -8 m 1099 411 q 1053 538 1093 500 q 926 575 1014 575 l 843 575 q 713 540 750 576 q 672 411 675 503 l 1099 411 m 360 67 q 540 109 481 67 q 599 239 599 151 l 599 339 l 310 339 q 203 310 233 339 q 174 203 174 281 q 203 97 174 126 q 310 67 233 67 l 360 67 m 596 742 q 582 767 582 754 q 590 790 582 778 l 710 932 q 736 946 722 946 q 758 936 749 946 q 772 911 772 924 q 764 888 772 900 l 644 746 q 618 732 632 732 q 596 742 606 732 z "},"b":{"ha":854,"x_min":129,"x_max":743,"o":"m 493 657 q 683 597 624 657 q 743 407 743 536 l 743 250 q 683 60 743 121 q 493 0 624 0 l 440 0 q 201 96 265 0 l 201 36 q 165 0 201 0 q 129 36 129 0 l 129 926 q 165 963 129 963 q 201 926 201 963 l 201 560 q 440 657 265 657 l 493 657 m 671 407 q 632 545 671 506 q 493 585 593 585 l 440 585 q 265 549 329 585 q 201 446 201 514 l 201 217 l 201 210 q 265 108 201 143 q 440 72 329 72 l 493 72 q 632 112 593 72 q 671 250 671 151 l 671 407 z "},"c":{"ha":778,"x_min":111,"x_max":697,"o":"m 361 0 q 172 60 232 0 q 111 250 111 121 l 111 407 q 172 597 111 538 q 361 656 232 657 l 475 656 q 631 621 578 656 q 694 513 685 586 q 688 485 697 496 q 660 475 678 475 q 622 508 629 475 q 581 567 614 550 q 475 583 547 583 l 361 583 q 222 546 261 585 q 183 407 183 507 l 183 250 q 223 111 183 150 q 361 72 263 72 l 475 72 q 581 89 547 72 q 622 147 614 106 q 660 181 629 181 q 688 170 678 181 q 694 143 697 160 q 631 35 685 69 q 475 0 578 0 l 361 0 z "},"ć":{"ha":778,"x_min":111,"x_max":694,"o":"m 361 0 q 172 60 232 0 q 111 250 111 121 l 111 407 q 172 597 111 538 q 361 656 232 657 l 475 656 q 631 621 578 656 q 694 513 685 586 q 688 485 697 496 q 660 475 678 475 q 622 508 629 475 q 581 567 614 550 q 475 583 547 583 l 361 583 q 222 546 261 585 q 183 407 183 507 l 183 250 q 223 111 183 150 q 361 72 263 72 l 475 72 q 581 89 547 72 q 622 147 614 106 q 660 181 629 181 q 688 170 678 181 q 694 143 697 160 q 631 35 685 69 q 475 0 578 0 l 361 0 m 383 742 q 369 767 369 754 q 378 790 369 778 l 497 932 q 524 946 510 946 q 546 936 536 946 q 560 911 560 924 q 551 888 560 900 l 432 746 q 406 732 419 732 q 383 742 393 732 z "},"č":{"ha":778,"x_min":111,"x_max":694,"o":"m 361 0 q 172 60 232 0 q 111 250 111 121 l 111 407 q 172 597 111 538 q 361 656 232 657 l 475 656 q 631 621 578 656 q 694 513 685 586 q 688 485 697 496 q 660 475 678 475 q 622 508 629 475 q 581 567 614 550 q 475 583 547 583 l 361 583 q 222 546 261 585 q 183 407 183 507 l 183 250 q 223 111 183 150 q 361 72 263 72 l 475 72 q 581 89 547 72 q 622 147 614 106 q 660 181 629 181 q 688 170 678 181 q 694 143 697 160 q 631 35 685 69 q 475 0 578 0 l 361 0 m 286 943 q 313 929 303 943 l 414 800 l 424 800 l 524 929 q 550 943 533 943 q 574 933 564 943 q 585 908 585 924 q 576 888 585 899 l 469 753 q 429 733 454 733 l 408 733 q 367 753 385 733 l 260 888 q 253 908 253 897 q 263 933 253 922 q 286 943 272 943 z "},"ç":{"ha":778,"x_min":111,"x_max":697,"o":"m 660 181 q 688 170 678 181 q 694 143 697 160 q 635 38 685 72 q 490 0 585 3 q 524 -32 496 -14 q 571 -74 553 -51 q 589 -135 589 -96 q 553 -247 589 -211 q 440 -282 517 -282 q 321 -162 321 -282 q 354 -129 321 -129 q 389 -162 389 -129 q 399 -205 389 -194 q 440 -215 410 -215 q 504 -199 488 -215 q 521 -135 521 -182 q 515 -112 521 -121 q 486 -89 508 -104 q 444 -52 461 -71 q 421 0 426 -33 l 361 0 q 172 60 232 0 q 111 250 111 121 l 111 407 q 172 597 111 538 q 361 656 232 657 l 475 656 q 631 621 578 656 q 694 513 685 586 q 688 485 697 496 q 660 475 678 475 q 622 508 629 475 q 581 567 614 550 q 475 583 547 583 l 361 583 q 222 546 261 585 q 183 407 183 507 l 183 250 q 223 111 183 150 q 361 72 263 72 l 475 72 q 581 89 547 72 q 622 147 614 106 q 660 181 629 181 z "},"ĉ":{"ha":778,"x_min":111,"x_max":694,"o":"m 361 0 q 172 60 232 0 q 111 250 111 121 l 111 407 q 172 597 111 538 q 361 656 232 657 l 475 656 q 631 621 578 656 q 694 513 685 586 q 688 485 697 496 q 660 475 678 475 q 622 508 629 475 q 581 567 614 550 q 475 583 547 583 l 361 583 q 222 546 261 585 q 183 407 183 507 l 183 250 q 223 111 183 150 q 361 72 263 72 l 475 72 q 581 89 547 72 q 622 147 614 106 q 660 181 629 181 q 688 170 678 181 q 694 143 697 160 q 631 35 685 69 q 475 0 578 0 l 361 0 m 289 733 q 265 744 275 733 q 256 768 256 754 q 263 789 256 779 l 369 924 q 411 943 388 943 l 432 943 q 472 924 457 943 l 579 789 q 588 768 588 778 q 577 744 588 754 q 553 733 567 733 q 526 747 536 733 l 426 876 l 417 876 l 315 747 q 289 733 306 733 z "},"ċ":{"ha":778,"x_min":111,"x_max":694,"o":"m 361 0 q 172 60 232 0 q 111 250 111 121 l 111 407 q 172 597 111 538 q 361 656 232 657 l 475 656 q 631 621 578 656 q 694 513 685 586 q 688 485 697 496 q 660 475 678 475 q 622 508 629 475 q 581 567 614 550 q 475 583 547 583 l 361 583 q 222 546 261 585 q 183 407 183 507 l 183 250 q 223 111 183 150 q 361 72 263 72 l 475 72 q 581 89 547 72 q 622 147 614 106 q 660 181 629 181 q 688 170 678 181 q 694 143 697 160 q 631 35 685 69 q 475 0 578 0 l 361 0 m 404 782 q 368 794 381 782 q 356 831 356 807 l 356 861 q 368 897 356 885 q 404 910 381 910 l 436 910 q 482 861 482 910 l 482 831 q 436 782 482 782 l 404 782 z "},"d":{"ha":842,"x_min":111,"x_max":725,"o":"m 689 963 q 725 926 725 963 l 725 36 q 689 0 725 0 q 653 36 653 0 l 653 94 q 564 24 622 47 q 414 0 506 0 l 361 0 q 172 60 232 0 q 111 250 111 121 l 111 406 q 172 595 111 535 q 361 656 232 656 l 653 656 l 653 926 q 689 963 653 963 m 414 72 q 589 108 525 72 q 653 210 653 143 l 653 583 l 361 583 q 222 544 261 583 q 183 406 183 504 l 183 250 q 223 111 183 150 q 361 72 263 72 l 414 72 z "},"ð":{"ha":836,"x_min":111,"x_max":725,"o":"m 540 914 q 679 781 636 892 q 725 442 722 669 l 725 251 q 665 61 725 121 q 475 1 606 1 l 361 1 q 171 61 231 1 q 111 250 111 121 l 111 407 q 171 597 111 538 q 361 657 231 657 l 475 657 q 644 590 586 657 q 606 772 635 713 q 524 844 576 831 l 401 875 l 306 786 q 282 775 294 775 q 257 788 269 775 q 247 811 247 797 q 258 836 247 825 l 321 894 l 201 925 q 174 958 174 933 q 175 969 174 965 q 206 999 182 999 q 219 996 208 999 l 385 954 l 469 1033 q 493 1044 483 1044 q 518 1032 506 1044 q 529 1008 529 1018 q 517 983 529 996 l 464 933 l 540 914 m 653 429 q 609 549 653 514 q 475 585 565 585 l 361 585 q 223 546 263 585 q 183 407 183 507 l 183 250 q 223 113 183 151 q 361 74 263 74 l 475 74 q 613 113 574 74 q 653 251 653 151 l 653 429 z "},"ď":{"ha":882,"x_min":111,"x_max":942,"o":"m 689 963 q 725 926 725 963 l 725 36 q 689 0 725 0 q 653 36 653 0 l 653 94 q 564 24 622 47 q 414 0 506 0 l 361 0 q 172 60 232 0 q 111 250 111 121 l 111 406 q 172 595 111 535 q 361 656 232 656 l 653 656 l 653 926 q 689 963 653 963 m 414 72 q 589 108 525 72 q 653 210 653 143 l 653 583 l 361 583 q 222 544 261 583 q 183 406 183 504 l 183 250 q 223 111 183 150 q 361 72 263 72 l 414 72 m 942 910 q 935 886 942 896 l 886 776 q 861 757 876 757 q 841 765 849 757 q 835 786 833 772 l 858 925 l 858 932 q 890 965 858 965 l 911 965 q 942 932 942 965 l 942 910 z "},"đ":{"ha":842,"x_min":111,"x_max":849,"o":"m 814 835 q 849 801 849 835 q 814 768 849 768 l 725 768 l 725 36 q 689 0 725 0 q 653 36 653 0 l 653 94 q 564 24 622 47 q 414 0 506 0 l 361 0 q 172 60 232 0 q 111 250 111 121 l 111 406 q 172 595 111 535 q 361 656 232 656 l 653 656 l 653 768 l 454 768 q 421 801 421 768 q 454 835 421 835 l 653 835 l 653 926 q 689 963 653 963 q 725 926 725 963 l 725 835 l 814 835 m 414 72 q 589 108 525 72 q 653 210 653 143 l 653 583 l 361 583 q 222 544 261 583 q 183 406 183 504 l 183 250 q 223 111 183 150 q 361 72 263 72 l 414 72 z "},"ǳ":{"ha":1483,"x_min":111,"x_max":1435,"o":"m 689 963 q 725 926 725 963 l 725 36 q 689 0 725 0 q 653 36 653 0 l 653 94 q 564 24 622 47 q 414 0 506 0 l 361 0 q 172 60 232 0 q 111 250 111 121 l 111 406 q 172 595 111 535 q 361 656 232 656 l 653 656 l 653 926 q 689 963 653 963 m 414 72 q 589 108 525 72 q 653 210 653 143 l 653 583 l 361 583 q 222 544 261 583 q 183 406 183 504 l 183 250 q 223 111 183 150 q 361 72 263 72 l 414 72 m 1400 178 q 1427 168 1418 178 q 1435 140 1436 158 q 1260 0 1415 0 l 889 0 q 853 36 853 0 q 868 74 853 54 l 1279 583 l 1007 583 q 932 568 956 583 q 903 513 908 553 q 867 478 899 478 q 838 488 847 478 q 831 515 829 497 q 882 622 839 588 q 1007 656 925 656 l 1347 656 q 1374 647 1364 656 q 1383 619 1383 638 q 1367 581 1383 601 l 957 72 l 1260 72 q 1333 89 1308 72 q 1363 143 1357 106 q 1374 169 1365 161 q 1400 178 1383 178 z "},"ǆ":{"ha":1483,"x_min":111,"x_max":1435,"o":"m 689 963 q 725 926 725 963 l 725 36 q 689 0 725 0 q 653 36 653 0 l 653 94 q 564 24 622 47 q 414 0 506 0 l 361 0 q 172 60 232 0 q 111 250 111 121 l 111 406 q 172 595 111 535 q 361 656 232 656 l 653 656 l 653 926 q 689 963 653 963 m 414 72 q 589 108 525 72 q 653 210 653 143 l 653 583 l 361 583 q 222 544 261 583 q 183 406 183 504 l 183 250 q 223 111 183 150 q 361 72 263 72 l 414 72 m 1400 178 q 1427 168 1418 178 q 1435 140 1436 158 q 1260 0 1415 0 l 889 0 q 853 36 853 0 q 868 74 853 54 l 1279 583 l 1007 583 q 932 568 956 583 q 903 513 908 553 q 867 478 899 478 q 838 488 847 478 q 831 515 829 497 q 882 622 839 588 q 1007 656 925 656 l 1347 656 q 1374 647 1364 656 q 1383 619 1383 638 q 1367 581 1383 601 l 957 72 l 1260 72 q 1333 89 1308 72 q 1363 143 1357 106 q 1374 169 1365 161 q 1400 178 1383 178 m 1003 943 q 1029 929 1019 943 l 1131 800 l 1140 800 l 1240 929 q 1267 943 1250 943 q 1291 933 1281 943 q 1301 908 1301 924 q 1293 888 1301 899 l 1186 753 q 1146 733 1171 733 l 1125 733 q 1083 753 1101 733 l 976 888 q 969 908 969 897 q 979 933 969 922 q 1003 943 989 943 z "},"e":{"ha":836,"x_min":111,"x_max":725,"o":"m 183 300 l 183 249 q 223 111 183 150 q 361 72 263 72 l 475 72 q 603 95 564 72 q 650 174 643 118 q 688 208 657 208 q 716 199 707 208 q 722 171 725 189 q 652 42 713 83 q 475 0 592 0 l 361 0 q 172 60 232 0 q 111 249 111 119 l 111 406 q 172 597 111 536 q 361 656 232 657 l 475 656 q 665 595 604 656 q 725 406 725 535 l 725 336 q 689 300 725 300 l 183 300 m 183 372 l 653 372 l 653 406 q 614 544 653 506 q 475 583 575 583 l 361 583 q 222 546 261 585 q 183 406 183 507 l 183 372 z "},"é":{"ha":836,"x_min":111,"x_max":725,"o":"m 183 300 l 183 249 q 223 111 183 150 q 361 72 263 72 l 475 72 q 603 95 564 72 q 650 174 643 118 q 688 208 657 208 q 716 199 707 208 q 722 171 725 189 q 652 42 713 83 q 475 0 592 0 l 361 0 q 172 60 232 0 q 111 249 111 119 l 111 406 q 172 597 111 536 q 361 656 232 657 l 475 656 q 665 595 604 656 q 725 406 725 535 l 725 336 q 689 300 725 300 l 183 300 m 183 372 l 653 372 l 653 406 q 614 544 653 506 q 475 583 575 583 l 361 583 q 222 546 261 585 q 183 406 183 507 l 183 372 m 390 742 q 376 767 376 754 q 385 790 376 778 l 504 932 q 531 946 517 946 q 553 936 543 946 q 567 911 567 924 q 558 888 567 900 l 439 746 q 413 732 426 732 q 390 742 400 732 z "},"ĕ":{"ha":836,"x_min":111,"x_max":725,"o":"m 183 300 l 183 249 q 223 111 183 150 q 361 72 263 72 l 475 72 q 603 95 564 72 q 650 174 643 118 q 688 208 657 208 q 716 199 707 208 q 722 171 725 189 q 652 42 713 83 q 475 0 592 0 l 361 0 q 172 60 232 0 q 111 249 111 119 l 111 406 q 172 597 111 536 q 361 656 232 657 l 475 656 q 665 595 604 656 q 725 406 725 535 l 725 336 q 689 300 725 300 l 183 300 m 183 372 l 653 372 l 653 406 q 614 544 653 506 q 475 583 575 583 l 361 583 q 222 546 261 585 q 183 406 183 507 l 183 372 m 432 732 q 301 773 346 732 q 257 892 257 814 l 257 901 q 292 936 257 936 q 325 901 325 936 l 325 892 q 350 821 325 843 q 432 799 375 799 q 513 820 489 799 q 538 892 538 842 l 538 906 q 572 936 538 936 q 606 901 606 936 l 606 892 q 561 772 606 813 q 432 732 517 732 z "},"ě":{"ha":836,"x_min":111,"x_max":725,"o":"m 183 300 l 183 249 q 223 111 183 150 q 361 72 263 72 l 475 72 q 603 95 564 72 q 650 174 643 118 q 688 208 657 208 q 716 199 707 208 q 722 171 725 189 q 652 42 713 83 q 475 0 592 0 l 361 0 q 172 60 232 0 q 111 249 111 119 l 111 406 q 172 597 111 536 q 361 656 232 657 l 475 656 q 665 595 604 656 q 725 406 725 535 l 725 336 q 689 300 725 300 l 183 300 m 183 372 l 653 372 l 653 406 q 614 544 653 506 q 475 583 575 583 l 361 583 q 222 546 261 585 q 183 406 183 507 l 183 372 m 293 943 q 319 929 310 943 l 421 800 l 431 800 l 531 929 q 557 943 540 943 q 581 933 571 943 q 592 908 592 924 q 583 888 592 899 l 476 753 q 436 733 461 733 l 415 733 q 374 753 392 733 l 267 888 q 260 908 260 897 q 269 933 260 922 q 293 943 279 943 z "},"ê":{"ha":836,"x_min":111,"x_max":725,"o":"m 183 300 l 183 249 q 223 111 183 150 q 361 72 263 72 l 475 72 q 603 95 564 72 q 650 174 643 118 q 688 208 657 208 q 716 199 707 208 q 722 171 725 189 q 652 42 713 83 q 475 0 592 0 l 361 0 q 172 60 232 0 q 111 249 111 119 l 111 406 q 172 597 111 536 q 361 656 232 657 l 475 656 q 665 595 604 656 q 725 406 725 535 l 725 336 q 689 300 725 300 l 183 300 m 183 372 l 653 372 l 653 406 q 614 544 653 506 q 475 583 575 583 l 361 583 q 222 546 261 585 q 183 406 183 507 l 183 372 m 296 733 q 272 744 282 733 q 263 768 263 754 q 269 789 263 779 l 376 924 q 418 943 394 943 l 439 943 q 479 924 464 943 l 586 789 q 594 768 594 778 q 584 744 594 754 q 560 733 574 733 q 533 747 543 733 l 433 876 l 424 876 l 322 747 q 296 733 313 733 z "},"ế":{"ha":836,"x_min":111,"x_max":725,"o":"m 183 300 l 183 249 q 223 111 183 150 q 361 72 263 72 l 475 72 q 603 95 564 72 q 650 174 643 118 q 688 208 657 208 q 716 199 707 208 q 722 171 725 189 q 652 42 713 83 q 475 0 592 0 l 361 0 q 172 60 232 0 q 111 249 111 119 l 111 406 q 172 597 111 536 q 361 656 232 657 l 475 656 q 665 595 604 656 q 725 406 725 535 l 725 336 q 689 300 725 300 l 183 300 m 183 372 l 653 372 l 653 406 q 614 544 653 506 q 475 583 575 583 l 361 583 q 222 546 261 585 q 183 406 183 507 l 183 372 m 564 860 q 550 885 550 872 q 560 908 550 897 l 644 1004 q 671 1019 657 1019 q 693 1010 681 1019 q 707 983 707 997 q 697 961 707 971 l 613 864 q 586 850 600 850 q 564 860 574 850 m 294 733 q 271 744 281 733 q 261 768 261 754 q 268 789 261 779 l 375 924 q 417 943 393 943 l 438 943 q 478 924 463 943 l 585 789 q 593 768 593 778 q 583 744 593 754 q 558 733 572 733 q 532 747 542 733 l 432 876 l 422 876 l 321 747 q 294 733 311 733 z "},"ệ":{"ha":836,"x_min":111,"x_max":725,"o":"m 183 300 l 183 249 q 223 111 183 150 q 361 72 263 72 l 475 72 q 603 95 564 72 q 650 174 643 118 q 688 208 657 208 q 716 199 707 208 q 722 171 725 189 q 652 42 713 83 q 475 0 592 0 l 361 0 q 172 60 232 0 q 111 249 111 119 l 111 406 q 172 597 111 536 q 361 656 232 657 l 475 656 q 665 595 604 656 q 725 406 725 535 l 725 336 q 689 300 725 300 l 183 300 m 183 372 l 653 372 l 653 406 q 614 544 653 506 q 475 583 575 583 l 361 583 q 222 546 261 585 q 183 406 183 507 l 183 372 m 414 -211 q 384 -201 394 -211 q 374 -171 374 -190 l 374 -144 q 384 -115 374 -125 q 414 -104 394 -104 l 440 -104 q 479 -144 479 -104 l 479 -171 q 440 -211 479 -211 l 414 -211 m 296 733 q 272 744 282 733 q 263 768 263 754 q 269 789 263 779 l 376 924 q 418 943 394 943 l 439 943 q 479 924 464 943 l 586 789 q 594 768 594 778 q 584 744 594 754 q 560 733 574 733 q 533 747 543 733 l 433 876 l 424 876 l 322 747 q 296 733 313 733 z "},"ề":{"ha":836,"x_min":111,"x_max":725,"o":"m 183 300 l 183 249 q 223 111 183 150 q 361 72 263 72 l 475 72 q 603 95 564 72 q 650 174 643 118 q 688 208 657 208 q 716 199 707 208 q 722 171 725 189 q 652 42 713 83 q 475 0 592 0 l 361 0 q 172 60 232 0 q 111 249 111 119 l 111 406 q 172 597 111 536 q 361 656 232 657 l 475 656 q 665 595 604 656 q 725 406 725 535 l 725 336 q 689 300 725 300 l 183 300 m 183 372 l 653 372 l 653 406 q 614 544 653 506 q 475 583 575 583 l 361 583 q 222 546 261 585 q 183 406 183 507 l 183 372 m 289 860 q 267 850 279 850 q 240 864 253 850 l 156 961 q 147 982 147 972 q 161 1010 147 997 q 183 1019 174 1019 q 210 1004 197 1019 l 294 908 q 303 886 303 896 q 289 860 303 872 m 294 733 q 271 744 281 733 q 261 768 261 754 q 268 789 261 779 l 375 924 q 417 943 393 943 l 438 943 q 478 924 463 943 l 585 789 q 593 768 593 778 q 583 744 593 754 q 558 733 572 733 q 532 747 542 733 l 432 876 l 422 876 l 321 747 q 294 733 311 733 z "},"ể":{"ha":836,"x_min":111,"x_max":725,"o":"m 183 300 l 183 249 q 223 111 183 150 q 361 72 263 72 l 475 72 q 603 95 564 72 q 650 174 643 118 q 688 208 657 208 q 716 199 707 208 q 722 171 725 189 q 652 42 713 83 q 475 0 592 0 l 361 0 q 172 60 232 0 q 111 249 111 119 l 111 406 q 172 597 111 536 q 361 656 232 657 l 475 656 q 665 595 604 656 q 725 406 725 535 l 725 336 q 689 300 725 300 l 183 300 m 183 372 l 653 372 l 653 406 q 614 544 653 506 q 475 583 575 583 l 361 583 q 222 546 261 585 q 183 406 183 507 l 183 372 m 294 733 q 271 744 281 733 q 261 768 261 754 q 268 789 261 779 l 375 924 q 417 943 393 943 l 438 943 q 478 924 463 943 l 585 789 q 593 768 593 778 q 583 744 593 754 q 558 733 572 733 q 532 747 542 733 l 432 876 l 422 876 l 321 747 q 294 733 311 733 m 586 854 q 554 885 554 854 q 573 945 554 924 q 621 985 592 967 q 648 1004 642 997 q 654 1024 654 1011 q 643 1067 654 1056 q 600 1079 632 1079 q 556 1067 568 1079 q 544 1024 544 1056 q 514 992 544 992 q 482 1024 482 992 q 600 1142 482 1142 q 717 1024 717 1142 q 698 967 717 988 q 653 931 679 946 q 624 907 631 915 q 618 885 618 899 q 586 854 618 854 z "},"ễ":{"ha":836,"x_min":111,"x_max":725,"o":"m 183 300 l 183 249 q 223 111 183 150 q 361 72 263 72 l 475 72 q 603 95 564 72 q 650 174 643 118 q 688 208 657 208 q 716 199 707 208 q 722 171 725 189 q 652 42 713 83 q 475 0 592 0 l 361 0 q 172 60 232 0 q 111 249 111 119 l 111 406 q 172 597 111 536 q 361 656 232 657 l 475 656 q 665 595 604 656 q 725 406 725 535 l 725 336 q 689 300 725 300 l 183 300 m 183 372 l 653 372 l 653 406 q 614 544 653 506 q 475 583 575 583 l 361 583 q 222 546 261 585 q 183 406 183 507 l 183 372 m 294 733 q 271 744 281 733 q 261 768 261 754 q 268 789 261 779 l 375 924 q 417 943 393 943 l 438 943 q 478 924 463 943 l 585 789 q 593 768 593 778 q 583 744 593 754 q 558 733 572 733 q 532 747 542 733 l 432 876 l 422 876 l 321 747 q 294 733 311 733 m 497 976 q 454 989 472 976 q 414 1025 436 1001 q 392 1048 401 1040 q 372 1056 382 1056 q 348 1045 357 1056 q 324 1001 339 1035 q 288 978 313 974 q 266 988 274 979 q 258 1008 258 997 q 261 1022 258 1014 q 308 1097 283 1074 q 371 1121 332 1121 q 414 1108 396 1121 q 454 1072 432 1096 q 478 1049 469 1056 q 497 1042 488 1042 q 519 1053 511 1042 q 539 1093 528 1064 q 575 1117 549 1121 q 600 1102 593 1115 q 603 1074 607 1089 q 560 1001 588 1026 q 497 976 533 976 z "},"ȅ":{"ha":836,"x_min":111,"x_max":725,"o":"m 219 889 q 213 910 213 900 q 225 933 213 924 q 244 942 236 942 q 268 929 256 942 l 376 801 q 383 782 383 790 q 371 758 383 769 q 351 750 361 750 q 328 763 340 750 l 219 889 m 374 889 q 367 910 367 900 q 379 933 367 924 q 399 942 389 942 q 422 929 410 942 l 531 801 q 538 782 538 790 q 525 758 538 769 q 506 750 515 750 q 482 763 494 750 l 374 889 m 183 300 l 183 249 q 223 111 183 150 q 361 72 263 72 l 475 72 q 603 95 564 72 q 650 174 643 118 q 688 208 657 208 q 716 199 707 208 q 722 171 725 189 q 652 42 713 83 q 475 0 592 0 l 361 0 q 172 60 232 0 q 111 249 111 119 l 111 406 q 172 597 111 536 q 361 656 232 657 l 475 656 q 665 595 604 656 q 725 406 725 535 l 725 336 q 689 300 725 300 l 183 300 m 183 372 l 653 372 l 653 406 q 614 544 653 506 q 475 583 575 583 l 361 583 q 222 546 261 585 q 183 406 183 507 l 183 372 z "},"ë":{"ha":836,"x_min":111,"x_max":725,"o":"m 183 300 l 183 249 q 223 111 183 150 q 361 72 263 72 l 475 72 q 603 95 564 72 q 650 174 643 118 q 688 208 657 208 q 716 199 707 208 q 722 171 725 189 q 652 42 713 83 q 475 0 592 0 l 361 0 q 172 60 232 0 q 111 249 111 119 l 111 406 q 172 597 111 536 q 361 656 232 657 l 475 656 q 665 595 604 656 q 725 406 725 535 l 725 336 q 689 300 725 300 l 183 300 m 183 372 l 653 372 l 653 406 q 614 544 653 506 q 475 583 575 583 l 361 583 q 222 546 261 585 q 183 406 183 507 l 183 372 m 311 774 q 281 784 292 774 q 271 814 271 794 l 271 840 q 281 870 271 860 q 311 881 292 881 l 338 881 q 376 840 376 881 l 376 814 q 338 774 376 774 l 311 774 m 518 774 q 488 784 499 774 q 478 814 478 794 l 478 840 q 488 870 478 860 q 518 881 499 881 l 544 881 q 583 840 583 881 l 583 814 q 544 774 583 774 l 518 774 z "},"ė":{"ha":836,"x_min":111,"x_max":725,"o":"m 183 300 l 183 249 q 223 111 183 150 q 361 72 263 72 l 475 72 q 603 95 564 72 q 650 174 643 118 q 688 208 657 208 q 716 199 707 208 q 722 171 725 189 q 652 42 713 83 q 475 0 592 0 l 361 0 q 172 60 232 0 q 111 249 111 119 l 111 406 q 172 597 111 536 q 361 656 232 657 l 475 656 q 665 595 604 656 q 725 406 725 535 l 725 336 q 689 300 725 300 l 183 300 m 183 372 l 653 372 l 653 406 q 614 544 653 506 q 475 583 575 583 l 361 583 q 222 546 261 585 q 183 406 183 507 l 183 372 m 411 782 q 375 794 388 782 q 363 831 363 807 l 363 861 q 375 897 363 885 q 411 910 388 910 l 443 910 q 489 861 489 910 l 489 831 q 443 782 489 782 l 411 782 z "},"ẹ":{"ha":836,"x_min":111,"x_max":725,"o":"m 183 300 l 183 249 q 223 111 183 150 q 361 72 263 72 l 475 72 q 603 95 564 72 q 650 174 643 118 q 688 208 657 208 q 716 199 707 208 q 722 171 725 189 q 652 42 713 83 q 475 0 592 0 l 361 0 q 172 60 232 0 q 111 249 111 119 l 111 406 q 172 597 111 536 q 361 656 232 657 l 475 656 q 665 595 604 656 q 725 406 725 535 l 725 336 q 689 300 725 300 l 183 300 m 183 372 l 653 372 l 653 406 q 614 544 653 506 q 475 583 575 583 l 361 583 q 222 546 261 585 q 183 406 183 507 l 183 372 m 414 -211 q 384 -201 394 -211 q 374 -171 374 -190 l 374 -144 q 384 -115 374 -125 q 414 -104 394 -104 l 440 -104 q 479 -144 479 -104 l 479 -171 q 440 -211 479 -211 l 414 -211 z "},"è":{"ha":836,"x_min":111,"x_max":725,"o":"m 183 300 l 183 249 q 223 111 183 150 q 361 72 263 72 l 475 72 q 603 95 564 72 q 650 174 643 118 q 688 208 657 208 q 716 199 707 208 q 722 171 725 189 q 652 42 713 83 q 475 0 592 0 l 361 0 q 172 60 232 0 q 111 249 111 119 l 111 406 q 172 597 111 536 q 361 656 232 657 l 475 656 q 665 595 604 656 q 725 406 725 535 l 725 336 q 689 300 725 300 l 183 300 m 183 372 l 653 372 l 653 406 q 614 544 653 506 q 475 583 575 583 l 361 583 q 222 546 261 585 q 183 406 183 507 l 183 372 m 471 736 q 449 726 461 726 q 422 740 435 726 l 303 882 q 294 906 294 894 q 308 931 294 918 q 331 940 318 940 q 357 926 344 940 l 476 785 q 485 761 485 772 q 471 736 485 749 z "},"ẻ":{"ha":836,"x_min":111,"x_max":725,"o":"m 183 300 l 183 249 q 223 111 183 150 q 361 72 263 72 l 475 72 q 603 95 564 72 q 650 174 643 118 q 688 208 657 208 q 716 199 707 208 q 722 171 725 189 q 652 42 713 83 q 475 0 592 0 l 361 0 q 172 60 232 0 q 111 249 111 119 l 111 406 q 172 597 111 536 q 361 656 232 657 l 475 656 q 665 595 604 656 q 725 406 725 535 l 725 336 q 689 300 725 300 l 183 300 m 183 372 l 653 372 l 653 406 q 614 544 653 506 q 475 583 575 583 l 361 583 q 222 546 261 585 q 183 406 183 507 l 183 372 m 426 733 q 394 764 394 733 q 413 824 394 803 q 461 864 432 846 q 488 883 482 876 q 494 903 494 890 q 483 947 494 935 q 440 958 472 958 q 397 947 408 958 q 385 903 385 935 q 354 871 385 871 q 322 903 322 871 q 440 1021 322 1021 q 557 903 557 1021 q 538 846 557 867 q 493 810 519 825 q 465 786 471 794 q 458 764 458 778 q 426 733 458 733 z "},"ȇ":{"ha":836,"x_min":111,"x_max":725,"o":"m 183 300 l 183 249 q 223 111 183 150 q 361 72 263 72 l 475 72 q 603 95 564 72 q 650 174 643 118 q 688 208 657 208 q 716 199 707 208 q 722 171 725 189 q 652 42 713 83 q 475 0 592 0 l 361 0 q 172 60 232 0 q 111 249 111 119 l 111 406 q 172 597 111 536 q 361 656 232 657 l 475 656 q 665 595 604 656 q 725 406 725 535 l 725 336 q 689 300 725 300 l 183 300 m 183 372 l 653 372 l 653 406 q 614 544 653 506 q 475 583 575 583 l 361 583 q 222 546 261 585 q 183 406 183 507 l 183 372 m 428 956 q 557 915 513 956 q 601 796 601 875 l 601 786 q 568 751 601 751 q 533 782 533 751 l 533 796 q 509 867 533 846 q 428 889 485 889 q 346 867 371 889 q 321 796 321 844 l 321 786 q 288 751 321 751 q 253 786 253 751 l 253 796 q 297 915 253 874 q 428 956 342 956 z "},"ē":{"ha":836,"x_min":111,"x_max":725,"o":"m 183 300 l 183 249 q 223 111 183 150 q 361 72 263 72 l 475 72 q 603 95 564 72 q 650 174 643 118 q 688 208 657 208 q 716 199 707 208 q 722 171 725 189 q 652 42 713 83 q 475 0 592 0 l 361 0 q 172 60 232 0 q 111 249 111 119 l 111 406 q 172 597 111 536 q 361 656 232 657 l 475 656 q 665 595 604 656 q 725 406 725 535 l 725 336 q 689 300 725 300 l 183 300 m 183 372 l 653 372 l 653 406 q 614 544 653 506 q 475 583 575 583 l 361 583 q 222 546 261 585 q 183 406 183 507 l 183 372 m 250 814 q 214 850 214 814 q 250 886 214 886 l 601 886 q 638 850 638 886 q 601 814 638 814 l 250 814 z "},"ę":{"ha":836,"x_min":111,"x_max":747,"o":"m 713 -121 q 738 -131 729 -121 q 747 -156 747 -140 q 735 -179 747 -171 q 680 -214 710 -201 q 621 -226 650 -226 q 530 -194 567 -226 q 493 -112 493 -161 q 525 -28 493 -67 l 550 6 q 475 0 518 0 l 361 0 q 172 60 232 0 q 111 249 111 119 l 111 406 q 172 597 111 536 q 361 656 232 657 l 475 656 q 665 595 604 656 q 725 406 725 535 l 725 336 q 689 300 725 300 l 183 300 l 183 249 q 223 111 183 150 q 361 72 263 72 l 475 72 q 603 95 564 72 q 650 174 643 118 q 688 208 657 208 q 716 199 707 208 q 722 171 725 189 q 696 86 715 121 q 690 76 692 78 l 581 -69 q 561 -112 561 -93 q 578 -145 561 -132 q 621 -158 594 -158 q 692 -128 657 -158 q 713 -121 700 -121 m 183 372 l 653 372 l 653 406 q 614 544 653 506 q 475 583 575 583 l 361 583 q 222 546 261 585 q 183 406 183 507 l 183 372 z "},"ẽ":{"ha":836,"x_min":111,"x_max":725,"o":"m 183 300 l 183 249 q 223 111 183 150 q 361 72 263 72 l 475 72 q 603 95 564 72 q 650 174 643 118 q 688 208 657 208 q 716 199 707 208 q 722 171 725 189 q 652 42 713 83 q 475 0 592 0 l 361 0 q 172 60 232 0 q 111 249 111 119 l 111 406 q 172 597 111 536 q 361 656 232 657 l 475 656 q 665 595 604 656 q 725 406 725 535 l 725 336 q 689 300 725 300 l 183 300 m 183 372 l 653 372 l 653 406 q 614 544 653 506 q 475 583 575 583 l 361 583 q 222 546 261 585 q 183 406 183 507 l 183 372 m 513 768 q 456 782 478 768 q 410 819 433 796 q 378 846 390 839 q 349 853 367 853 q 312 840 325 853 q 286 794 299 828 q 250 771 278 767 q 228 781 236 772 q 221 801 221 789 q 224 814 221 806 q 272 894 243 869 q 349 919 301 919 q 410 905 386 919 q 458 865 433 890 q 487 841 476 847 q 513 835 497 835 q 549 848 535 835 q 572 892 563 861 q 608 915 582 919 q 630 906 622 914 q 638 885 638 897 q 636 874 638 878 q 587 794 617 821 q 513 768 557 768 z "},"ə":{"ha":836,"x_min":111,"x_max":725,"o":"m 475 656 q 665 596 604 656 q 725 407 725 536 l 725 250 q 665 59 725 119 q 475 0 604 -1 l 361 0 q 172 60 232 0 q 111 250 111 121 l 111 319 q 147 356 111 356 l 653 356 l 653 407 q 613 544 653 506 q 475 583 574 583 l 361 583 q 233 560 272 583 q 186 482 193 538 q 149 447 179 447 q 120 457 129 447 q 114 485 111 467 q 184 614 124 572 q 361 656 244 656 l 475 656 m 653 283 l 183 283 l 183 250 q 222 111 183 150 q 361 72 261 72 l 475 72 q 614 110 575 71 q 653 250 653 149 l 653 283 z "},"f":{"ha":454,"x_min":46,"x_max":422,"o":"m 386 656 q 422 619 422 656 q 386 583 422 583 l 214 583 l 214 36 q 178 0 214 0 q 142 36 142 0 l 142 583 l 82 583 q 46 619 46 583 q 82 656 46 656 l 142 656 l 142 717 q 201 903 142 844 q 388 963 260 963 q 422 926 422 963 q 388 890 422 890 q 252 853 290 890 q 214 717 214 815 l 214 656 l 386 656 z "},"g":{"ha":842,"x_min":111,"x_max":725,"o":"m 689 656 q 725 619 725 656 l 725 -100 q 682 -235 725 -192 q 547 -278 639 -278 l 289 -278 q 164 -244 207 -278 q 114 -137 121 -210 q 120 -110 111 -119 q 149 -100 129 -100 q 174 -109 165 -100 q 186 -136 182 -118 q 215 -190 192 -175 q 289 -206 238 -206 l 547 -206 q 631 -183 608 -206 q 653 -100 653 -161 l 653 97 q 414 0 588 0 l 361 0 q 172 60 232 0 q 111 249 111 119 l 111 406 q 172 597 111 536 q 361 656 232 657 l 475 656 q 585 638 542 656 q 653 582 628 619 l 653 619 q 689 656 653 656 m 414 72 q 589 107 525 72 q 653 210 653 142 l 653 442 q 610 551 653 518 q 475 583 567 583 l 361 583 q 222 546 261 585 q 183 406 183 507 l 183 249 q 222 111 183 150 q 361 72 261 72 l 414 72 z "},"ğ":{"ha":842,"x_min":111,"x_max":725,"o":"m 689 656 q 725 619 725 656 l 725 -100 q 682 -235 725 -192 q 547 -278 639 -278 l 289 -278 q 164 -244 207 -278 q 114 -137 121 -210 q 120 -110 111 -119 q 149 -100 129 -100 q 174 -109 165 -100 q 186 -136 182 -118 q 215 -190 192 -175 q 289 -206 238 -206 l 547 -206 q 631 -183 608 -206 q 653 -100 653 -161 l 653 97 q 414 0 588 0 l 361 0 q 172 60 232 0 q 111 249 111 119 l 111 406 q 172 597 111 536 q 361 656 232 657 l 475 656 q 585 638 542 656 q 653 582 628 619 l 653 619 q 689 656 653 656 m 414 72 q 589 107 525 72 q 653 210 653 142 l 653 442 q 610 551 653 518 q 475 583 567 583 l 361 583 q 222 546 261 585 q 183 406 183 507 l 183 249 q 222 111 183 150 q 361 72 261 72 l 414 72 m 428 732 q 297 773 342 732 q 253 892 253 814 l 253 901 q 288 936 253 936 q 321 901 321 936 l 321 892 q 346 821 321 843 q 428 799 371 799 q 509 820 485 799 q 533 892 533 842 l 533 906 q 568 936 533 936 q 601 901 601 936 l 601 892 q 557 772 601 813 q 428 732 513 732 z "},"ǧ":{"ha":842,"x_min":111,"x_max":725,"o":"m 689 656 q 725 619 725 656 l 725 -100 q 682 -235 725 -192 q 547 -278 639 -278 l 289 -278 q 164 -244 207 -278 q 114 -137 121 -210 q 120 -110 111 -119 q 149 -100 129 -100 q 174 -109 165 -100 q 186 -136 182 -118 q 215 -190 192 -175 q 289 -206 238 -206 l 547 -206 q 631 -183 608 -206 q 653 -100 653 -161 l 653 97 q 414 0 588 0 l 361 0 q 172 60 232 0 q 111 249 111 119 l 111 406 q 172 597 111 536 q 361 656 232 657 l 475 656 q 585 638 542 656 q 653 582 628 619 l 653 619 q 689 656 653 656 m 414 72 q 589 107 525 72 q 653 210 653 142 l 653 442 q 610 551 653 518 q 475 583 567 583 l 361 583 q 222 546 261 585 q 183 406 183 507 l 183 249 q 222 111 183 150 q 361 72 261 72 l 414 72 m 289 943 q 315 929 306 943 l 417 800 l 426 800 l 526 929 q 553 943 536 943 q 577 933 567 943 q 588 908 588 924 q 579 888 588 899 l 472 753 q 432 733 457 733 l 411 733 q 369 753 388 733 l 263 888 q 256 908 256 897 q 265 933 256 922 q 289 943 275 943 z "},"ĝ":{"ha":842,"x_min":111,"x_max":725,"o":"m 689 656 q 725 619 725 656 l 725 -100 q 682 -235 725 -192 q 547 -278 639 -278 l 289 -278 q 164 -244 207 -278 q 114 -137 121 -210 q 120 -110 111 -119 q 149 -100 129 -100 q 174 -109 165 -100 q 186 -136 182 -118 q 215 -190 192 -175 q 289 -206 238 -206 l 547 -206 q 631 -183 608 -206 q 653 -100 653 -161 l 653 97 q 414 0 588 0 l 361 0 q 172 60 232 0 q 111 249 111 119 l 111 406 q 172 597 111 536 q 361 656 232 657 l 475 656 q 585 638 542 656 q 653 582 628 619 l 653 619 q 689 656 653 656 m 414 72 q 589 107 525 72 q 653 210 653 142 l 653 442 q 610 551 653 518 q 475 583 567 583 l 361 583 q 222 546 261 585 q 183 406 183 507 l 183 249 q 222 111 183 150 q 361 72 261 72 l 414 72 m 292 733 q 268 744 278 733 q 258 768 258 754 q 265 789 258 779 l 372 924 q 414 943 390 943 l 435 943 q 475 924 460 943 l 582 789 q 590 768 590 778 q 580 744 590 754 q 556 733 569 733 q 529 747 539 733 l 429 876 l 419 876 l 318 747 q 292 733 308 733 z "},"ģ":{"ha":842,"x_min":111,"x_max":725,"o":"m 689 656 q 725 619 725 656 l 725 -100 q 682 -235 725 -192 q 547 -278 639 -278 l 289 -278 q 164 -244 207 -278 q 114 -137 121 -210 q 120 -110 111 -119 q 149 -100 129 -100 q 174 -109 165 -100 q 186 -136 182 -118 q 215 -190 192 -175 q 289 -206 238 -206 l 547 -206 q 631 -183 608 -206 q 653 -100 653 -161 l 653 97 q 414 0 588 0 l 361 0 q 172 60 232 0 q 111 249 111 119 l 111 406 q 172 597 111 536 q 361 656 232 657 l 475 656 q 585 638 542 656 q 653 582 628 619 l 653 619 q 689 656 653 656 m 414 72 q 589 107 525 72 q 653 210 653 142 l 653 442 q 610 551 653 518 q 475 583 567 583 l 361 583 q 222 546 261 585 q 183 406 183 507 l 183 249 q 222 111 183 150 q 361 72 261 72 l 414 72 m 432 947 q 453 940 446 947 q 460 918 461 932 l 435 775 l 435 768 q 426 742 435 751 q 401 733 417 733 l 381 733 q 350 768 350 733 l 350 792 q 356 814 350 807 l 407 928 q 432 947 417 947 z "},"ġ":{"ha":842,"x_min":111,"x_max":725,"o":"m 689 656 q 725 619 725 656 l 725 -100 q 682 -235 725 -192 q 547 -278 639 -278 l 289 -278 q 164 -244 207 -278 q 114 -137 121 -210 q 120 -110 111 -119 q 149 -100 129 -100 q 174 -109 165 -100 q 186 -136 182 -118 q 215 -190 192 -175 q 289 -206 238 -206 l 547 -206 q 631 -183 608 -206 q 653 -100 653 -161 l 653 97 q 414 0 588 0 l 361 0 q 172 60 232 0 q 111 249 111 119 l 111 406 q 172 597 111 536 q 361 656 232 657 l 475 656 q 585 638 542 656 q 653 582 628 619 l 653 619 q 689 656 653 656 m 414 72 q 589 107 525 72 q 653 210 653 142 l 653 442 q 610 551 653 518 q 475 583 567 583 l 361 583 q 222 546 261 585 q 183 406 183 507 l 183 249 q 222 111 183 150 q 361 72 261 72 l 414 72 m 407 782 q 371 794 383 782 q 358 831 358 807 l 358 861 q 371 897 358 885 q 407 910 383 910 l 439 910 q 485 861 485 910 l 485 831 q 439 782 485 782 l 407 782 z "},"h":{"ha":846,"x_min":129,"x_max":729,"o":"m 479 657 q 669 597 610 657 q 729 407 729 536 l 729 36 q 693 0 729 0 q 657 36 657 0 l 657 407 q 618 545 657 506 q 479 585 579 585 l 440 585 q 274 550 332 585 q 204 446 215 515 q 201 433 204 442 l 201 36 q 165 0 201 0 q 129 36 129 0 l 129 926 q 165 963 129 963 q 201 926 201 963 l 201 572 q 440 657 275 657 l 479 657 z "},"ħ":{"ha":846,"x_min":13,"x_max":729,"o":"m 479 657 q 669 597 610 657 q 729 407 729 536 l 729 36 q 693 0 729 0 q 657 36 657 0 l 657 407 q 618 545 657 506 q 479 585 579 585 l 440 585 q 274 550 332 585 q 204 446 215 515 q 201 433 204 442 l 201 36 q 165 0 201 0 q 129 36 129 0 l 129 764 l 46 764 q 13 797 13 764 q 46 831 13 831 l 129 831 l 129 926 q 165 963 129 963 q 201 926 201 963 l 201 831 l 406 831 q 440 797 440 831 q 406 764 440 764 l 201 764 l 201 572 q 440 657 275 657 l 479 657 z "},"ĥ":{"ha":846,"x_min":6,"x_max":729,"o":"m 479 657 q 669 597 610 657 q 729 407 729 536 l 729 36 q 693 0 729 0 q 657 36 657 0 l 657 407 q 618 545 657 506 q 479 585 579 585 l 440 585 q 274 550 332 585 q 204 446 215 515 q 201 433 204 442 l 201 36 q 165 0 201 0 q 129 36 129 0 l 129 926 q 165 963 129 963 q 201 926 201 963 l 201 572 q 440 657 275 657 l 479 657 m 39 1025 q 15 1035 25 1025 q 6 1060 6 1046 q 13 1081 6 1071 l 119 1215 q 161 1235 138 1235 l 182 1235 q 222 1215 207 1235 l 329 1081 q 338 1060 338 1069 q 327 1035 338 1046 q 303 1025 317 1025 q 276 1039 286 1025 l 176 1168 l 167 1168 l 65 1039 q 39 1025 56 1025 z "},"i":{"ha":331,"x_min":101,"x_max":228,"o":"m 165 0 q 139 9 149 0 q 129 36 129 18 l 129 619 q 139 647 129 638 q 165 656 149 656 q 201 619 201 656 l 201 36 q 165 0 201 0 m 150 782 q 114 794 126 782 q 101 831 101 807 l 101 861 q 114 897 101 885 q 150 910 126 910 l 182 910 q 228 861 228 910 l 228 831 q 182 782 228 782 l 150 782 z "},"ı":{"ha":331,"x_min":129,"x_max":201,"o":"m 165 0 q 139 9 149 0 q 129 36 129 18 l 129 619 q 139 647 129 638 q 165 656 149 656 q 201 619 201 656 l 201 36 q 165 0 201 0 z "},"í":{"ha":331,"x_min":115,"x_max":306,"o":"m 165 0 q 139 9 149 0 q 129 36 129 18 l 129 619 q 139 647 129 638 q 165 656 149 656 q 201 619 201 656 l 201 36 q 165 0 201 0 m 129 742 q 115 767 115 754 q 124 790 115 778 l 243 932 q 269 946 256 946 q 292 936 282 946 q 306 911 306 924 q 297 888 306 900 l 178 746 q 151 732 165 732 q 129 742 139 732 z "},"ĭ":{"ha":331,"x_min":-4,"x_max":344,"o":"m 165 0 q 139 9 149 0 q 129 36 129 18 l 129 619 q 139 647 129 638 q 165 656 149 656 q 201 619 201 656 l 201 36 q 165 0 201 0 m 171 732 q 40 773 85 732 q -4 892 -4 814 l -4 901 q 31 936 -4 936 q 64 901 64 936 l 64 892 q 89 821 64 843 q 171 799 114 799 q 252 820 228 799 q 276 892 276 842 l 276 906 q 311 936 276 936 q 344 901 344 936 l 344 892 q 300 772 344 813 q 171 732 256 732 z "},"î":{"ha":331,"x_min":1,"x_max":333,"o":"m 165 0 q 139 9 149 0 q 129 36 129 18 l 129 619 q 139 647 129 638 q 165 656 149 656 q 201 619 201 656 l 201 36 q 165 0 201 0 m 35 733 q 11 744 21 733 q 1 768 1 754 q 8 789 1 779 l 115 924 q 157 943 133 943 l 178 943 q 218 924 203 943 l 325 789 q 333 768 333 778 q 323 744 333 754 q 299 733 313 733 q 272 747 282 733 l 172 876 l 163 876 l 61 747 q 35 733 51 733 z "},"ȉ":{"ha":331,"x_min":-49,"x_max":276,"o":"m 110 758 q 90 750 99 750 q 67 763 79 750 l -42 889 q -49 910 -49 900 q -36 933 -49 924 q -17 942 -25 942 q 7 929 -6 942 l 115 801 q 122 782 122 790 q 110 758 122 769 m 264 758 q 244 750 254 750 q 221 763 233 750 l 113 889 q 106 910 106 900 q 118 933 106 924 q 138 942 129 942 q 161 929 149 942 l 269 801 q 276 782 276 790 q 264 758 276 769 m 165 0 q 139 9 149 0 q 129 36 129 18 l 129 619 q 139 647 129 638 q 165 656 149 656 q 201 619 201 656 l 201 36 q 165 0 201 0 z "},"ï":{"ha":331,"x_min":10,"x_max":322,"o":"m 165 0 q 139 9 149 0 q 129 36 129 18 l 129 619 q 139 647 129 638 q 165 656 149 656 q 201 619 201 656 l 201 36 q 165 0 201 0 m 50 774 q 20 784 31 774 q 10 814 10 794 l 10 840 q 20 870 10 860 q 50 881 31 881 l 76 881 q 115 840 115 881 l 115 814 q 76 774 115 774 l 50 774 m 257 774 q 227 784 238 774 q 217 814 217 794 l 217 840 q 227 870 217 860 q 257 881 238 881 l 283 881 q 322 840 322 881 l 322 814 q 283 774 322 774 l 257 774 z "},"ị":{"ha":331,"x_min":101,"x_max":228,"o":"m 165 0 q 139 9 149 0 q 129 36 129 18 l 129 619 q 139 647 129 638 q 165 656 149 656 q 201 619 201 656 l 201 36 q 165 0 201 0 m 150 782 q 114 794 126 782 q 101 831 101 807 l 101 861 q 114 897 101 885 q 150 910 126 910 l 182 910 q 228 861 228 910 l 228 831 q 182 782 228 782 l 150 782 m 153 -211 q 123 -201 133 -211 q 113 -171 113 -190 l 113 -144 q 123 -115 113 -125 q 153 -104 133 -104 l 179 -104 q 218 -144 218 -104 l 218 -171 q 179 -211 218 -211 l 153 -211 z "},"ì":{"ha":331,"x_min":33,"x_max":224,"o":"m 165 0 q 139 9 149 0 q 129 36 129 18 l 129 619 q 139 647 129 638 q 165 656 149 656 q 201 619 201 656 l 201 36 q 165 0 201 0 m 210 736 q 188 726 200 726 q 161 740 174 726 l 42 882 q 33 906 33 894 q 47 931 33 918 q 69 940 57 940 q 96 926 83 940 l 215 785 q 224 761 224 772 q 210 736 224 749 z "},"ỉ":{"ha":331,"x_min":61,"x_max":296,"o":"m 165 0 q 139 9 149 0 q 129 36 129 18 l 129 619 q 139 647 129 638 q 165 656 149 656 q 201 619 201 656 l 201 36 q 165 0 201 0 m 165 733 q 133 764 133 733 q 152 824 133 803 q 200 864 171 846 q 227 883 221 876 q 233 903 233 890 q 222 947 233 935 q 179 958 211 958 q 135 947 147 958 q 124 903 124 935 q 93 871 124 871 q 61 903 61 871 q 179 1021 61 1021 q 296 903 296 1021 q 277 846 296 867 q 232 810 258 825 q 203 786 210 794 q 197 764 197 778 q 165 733 197 733 z "},"ȋ":{"ha":331,"x_min":18,"x_max":311,"o":"m 165 0 q 139 9 149 0 q 129 36 129 18 l 129 619 q 139 647 129 638 q 165 656 149 656 q 201 619 201 656 l 201 36 q 165 0 201 0 m 165 910 q 274 872 238 910 q 311 763 311 835 q 278 731 311 731 q 251 738 260 731 q 243 763 243 744 q 226 823 243 804 q 165 842 208 842 q 104 824 122 842 q 86 763 86 806 q 53 731 86 731 q 18 763 18 731 q 55 872 18 833 q 165 910 92 910 z "},"ī":{"ha":331,"x_min":29,"x_max":301,"o":"m 165 0 q 139 9 149 0 q 129 36 129 18 l 129 619 q 139 647 129 638 q 165 656 149 656 q 201 619 201 656 l 201 36 q 165 0 201 0 m 65 811 q 29 847 29 811 q 65 882 29 882 l 265 882 q 301 847 301 882 q 265 811 301 811 l 65 811 z "},"į":{"ha":331,"x_min":36,"x_max":300,"o":"m 150 782 q 114 794 126 782 q 101 831 101 807 l 101 861 q 114 897 101 885 q 150 910 126 910 l 182 910 q 228 861 228 910 l 228 831 q 182 782 228 782 l 150 782 m 267 -124 q 290 -133 281 -124 q 300 -158 300 -143 q 290 -182 300 -174 q 231 -224 264 -210 q 164 -239 197 -239 q 73 -206 110 -239 q 36 -125 36 -174 q 68 -40 36 -79 l 129 42 l 129 619 q 139 647 129 638 q 165 656 149 656 q 201 619 201 656 l 201 36 q 190 7 201 18 l 124 -82 q 104 -125 104 -106 q 121 -158 104 -144 q 164 -171 138 -171 q 242 -133 204 -171 q 267 -124 254 -124 z "},"ĩ":{"ha":331,"x_min":-7,"x_max":339,"o":"m 165 0 q 139 9 149 0 q 129 36 129 18 l 129 619 q 139 647 129 638 q 165 656 149 656 q 201 619 201 656 l 201 36 q 165 0 201 0 m 232 769 q 189 782 207 769 q 149 818 171 794 q 126 841 136 833 q 107 849 117 849 q 83 838 92 849 q 58 794 74 828 q 22 771 47 767 q 1 781 8 772 q -7 801 -7 790 q -4 815 -7 807 q 42 890 18 867 q 106 914 67 914 q 149 901 131 914 q 189 865 167 889 q 213 842 204 849 q 232 835 222 835 q 254 846 246 835 q 274 886 263 857 q 310 910 283 914 q 335 895 328 908 q 338 867 342 882 q 295 794 322 819 q 232 769 268 769 z "},"j":{"ha":331,"x_min":-25,"x_max":228,"o":"m -25 -242 q -15 -215 -25 -225 q 13 -206 -4 -206 q 104 -181 79 -206 q 129 -89 129 -156 l 129 619 q 165 656 129 656 q 201 619 201 656 l 201 -89 q 156 -232 201 -186 q 13 -278 110 -278 q -15 -268 -4 -278 q -25 -242 -25 -258 m 150 782 q 114 794 126 782 q 101 831 101 807 l 101 861 q 114 897 101 885 q 150 910 126 910 l 182 910 q 228 861 228 910 l 228 831 q 182 782 228 782 l 150 782 z "},"ȷ":{"ha":331,"x_min":-25,"x_max":201,"o":"m -25 -242 q -15 -215 -25 -225 q 13 -206 -4 -206 q 104 -181 79 -206 q 129 -89 129 -156 l 129 619 q 165 656 129 656 q 201 619 201 656 l 201 -89 q 156 -232 201 -186 q 13 -278 110 -278 q -15 -268 -4 -278 q -25 -242 -25 -258 z "},"ĵ":{"ha":331,"x_min":-25,"x_max":333,"o":"m -25 -242 q -15 -215 -25 -225 q 13 -206 -4 -206 q 104 -181 79 -206 q 129 -89 129 -156 l 129 619 q 165 656 129 656 q 201 619 201 656 l 201 -89 q 156 -232 201 -186 q 13 -278 110 -278 q -15 -268 -4 -278 q -25 -242 -25 -258 m 35 733 q 11 744 21 733 q 1 768 1 754 q 8 789 1 779 l 115 924 q 157 943 133 943 l 178 943 q 218 924 203 943 l 325 789 q 333 768 333 778 q 323 744 333 754 q 299 733 313 733 q 272 747 282 733 l 172 876 l 163 876 l 61 747 q 35 733 51 733 z "},"k":{"ha":664,"x_min":129,"x_max":636,"o":"m 625 63 q 636 38 636 49 q 621 11 636 24 q 597 0 607 0 q 571 14 585 0 l 290 331 l 201 253 l 201 36 q 165 0 201 0 q 129 36 129 0 l 129 926 q 165 963 129 963 q 201 926 201 963 l 201 350 l 554 653 q 579 664 568 664 q 606 649 593 664 q 617 625 617 635 q 601 597 617 613 l 346 376 l 625 63 z "},"ķ":{"ha":664,"x_min":129,"x_max":636,"o":"m 625 63 q 636 38 636 49 q 621 11 636 24 q 597 0 607 0 q 571 14 585 0 l 290 331 l 201 253 l 201 36 q 165 0 201 0 q 129 36 129 0 l 129 926 q 165 963 129 963 q 201 926 201 963 l 201 350 l 554 653 q 579 664 568 664 q 606 649 593 664 q 617 625 617 635 q 601 597 617 613 l 346 376 l 625 63 m 396 -125 q 390 -147 396 -140 l 339 -261 q 314 -281 329 -281 q 292 -273 300 -281 q 286 -251 285 -265 l 311 -108 l 311 -101 q 320 -76 311 -85 q 344 -67 329 -67 l 365 -67 q 396 -101 396 -67 l 396 -125 z "},"ĸ":{"ha":664,"x_min":129,"x_max":635,"o":"m 624 63 q 635 38 635 51 q 621 11 635 24 q 597 0 607 0 q 569 14 583 0 l 290 331 l 201 253 l 201 36 q 165 0 201 0 q 139 9 149 0 q 129 36 129 18 l 129 619 q 165 656 129 656 q 201 619 201 656 l 201 350 l 554 653 q 579 664 568 664 q 606 649 593 664 q 617 625 617 635 q 601 599 617 611 l 344 378 l 624 63 z "},"l":{"ha":403,"x_min":129,"x_max":357,"o":"m 321 0 q 176 46 222 0 q 129 189 129 92 l 129 926 q 165 963 129 963 q 201 926 201 963 l 201 189 q 226 97 201 121 q 319 72 251 72 q 357 36 357 72 q 347 9 357 18 q 321 0 338 0 z "}}}
